<svg width="260" height="183" viewBox="0 0 260 183" fill="none" xmlns="http://www.w3.org/2000/svg">
<mask id="path-1-inside-1_1_8" fill="white">
<rect x="151" y="42" width="82" height="47" rx="2"/>
</mask>
<rect x="151" y="42" width="82" height="47" rx="2" fill="#69AB80" stroke="#D5AC70" stroke-width="6" mask="url(#path-1-inside-1_1_8)"/>
<path d="M194.599 79.0357L187.945 73.9155L184.303 67.3628L178.933 70.5976L172.242 65.7547" stroke="#FFF9F9" stroke-width="2"/>
<path d="M96 22.5H164.26C166.193 22.5 167.76 24.067 167.76 26V67.2561H92.5V26C92.5 24.067 94.067 22.5 96 22.5Z" fill="#DDF7FF" stroke="#727272"/>
<path d="M168.26 72.4716C168.26 74.6807 166.469 76.4716 164.26 76.4716L96 76.4716C93.7909 76.4716 92 74.6807 92 72.4716L92 67.7561L168.26 67.7561L168.26 72.4716Z" fill="#C6C6C6"/>
<path d="M123.127 76.4716H137.134L139.935 87.3659H120.325L123.127 76.4716Z" fill="#C6C6C6"/>
<path d="M123.127 76.4716H137.134L138.573 81.9187L122.232 80.0122L123.127 76.4716Z" fill="#626262"/>
<rect x="114.333" y="87.3659" width="31.5935" height="1.63415" fill="#626262"/>
<rect x="50" y="89" width="160" height="6" fill="#5B87CA"/>
<rect x="70" y="95" width="77" height="6" transform="rotate(90 70 95)" fill="#4D4D4D"/>
<rect x="196" y="95" width="77" height="6" transform="rotate(90 196 95)" fill="#4D4D4D"/>
<path d="M37.1014 83.3264L48.4593 81.2502L48.2196 86.4408L37.1014 83.3264Z" fill="#4F9A2B"/>
<path d="M40.7475 74.4882L52.2693 75.2368L50.7743 80.2132L40.7475 74.4882Z" fill="#326918"/>
<path d="M38.0368 77.4271L50.5258 76.9045L48.8485 83.7005L38.0368 77.4271Z" fill="#70BC4C"/>
<path d="M46.6795 88.3153L49.0757 78.6066L64.6096 82.4405L62.9323 89.2366L46.6795 88.3153Z" fill="#FFF27E"/>
<path d="M46.6795 88.3153L49.0757 78.6066L64.6096 82.4405L62.9323 89.2366L46.6795 88.3153Z" fill="#FFF27E"/>
<path d="M49.0757 78.6066L50.9927 70.8397L65.5681 78.557L64.6096 82.4405L49.0757 78.6066Z" fill="#FFCE84"/>
<path d="M198.707 142.313L226.089 132.76L236.228 161.823C236.41 162.345 236.135 162.915 235.613 163.097L210.12 171.991C209.599 172.173 209.029 171.897 208.847 171.376L198.707 142.313Z" fill="#FFF59D"/>
<rect x="203.562" y="142.941" width="20.2453" height="0.758693" transform="rotate(-19.2323 203.562 142.941)" fill="#8F8F8F"/>
<rect x="205.062" y="147.239" width="20.2453" height="0.758694" transform="rotate(-19.2323 205.062 147.239)" fill="#8F8F8F"/>
<rect x="206.561" y="151.537" width="10.1226" height="0.758694" transform="rotate(-19.2323 206.561 151.537)" fill="#8F8F8F"/>
<rect x="205.812" y="149.388" width="20.2453" height="0.758693" transform="rotate(-19.2323 205.812 149.388)" fill="#8F8F8F"/>
<rect x="204.312" y="145.09" width="20.2453" height="0.758693" transform="rotate(-19.2323 204.312 145.09)" fill="#8F8F8F"/>
<rect x="230.981" y="160.071" width="20.2453" height="0.758693" transform="rotate(160.768 230.981 160.071)" fill="#8F8F8F"/>
<rect x="229.481" y="155.773" width="20.2453" height="0.758693" transform="rotate(160.768 229.481 155.773)" fill="#8F8F8F"/>
<rect x="227.982" y="151.474" width="10.1226" height="0.758693" transform="rotate(160.768 227.982 151.474)" fill="#8F8F8F"/>
<rect x="228.731" y="153.623" width="20.2453" height="0.758693" transform="rotate(160.768 228.731 153.623)" fill="#8F8F8F"/>
<rect x="230.231" y="157.922" width="20.2453" height="0.758693" transform="rotate(160.768 230.231 157.922)" fill="#8F8F8F"/>
<rect x="197.815" y="136.719" width="27" height="4.57534" transform="rotate(-19.2323 197.815 136.719)" fill="#F3B881" stroke="#666666" stroke-width="2"/>
<rect x="201.757" y="137.767" width="4.93151" height="1.09434" transform="rotate(-109.232 201.757 137.767)" fill="#8F8F8F"/>
<rect x="220.356" y="131.278" width="4.93151" height="1.09434" transform="rotate(-109.232 220.356 131.278)" fill="#8F8F8F"/>
<rect x="207.957" y="135.604" width="4.93151" height="1.09434" transform="rotate(-109.232 207.957 135.604)" fill="#8F8F8F"/>
<rect x="214.157" y="133.441" width="4.93151" height="1.09434" transform="rotate(-109.232 214.157 133.441)" fill="#8F8F8F"/>
<rect width="14.6772" height="14.4201" transform="matrix(0.933759 0.357902 -0.348353 0.937363 161.325 150.027)" fill="#F3F3F3"/>
<rect x="163.531" y="151.455" width="7.34847" height="14.4" transform="rotate(35.6816 163.531 151.455)" fill="#FFF59D"/>
<rect x="169.5" y="155.741" width="7.34847" height="14.4" transform="rotate(35.6816 169.5 155.741)" fill="#FFDB94"/>
<rect width="2.23776" height="9.23077" transform="matrix(-1 0 0 1 159.28 45.7692)" fill="#E57373"/>
<rect width="2.23776" height="16.2238" transform="matrix(-1 0 0 1 150.888 38.7762)" fill="#24BBCB"/>
<rect width="2.23776" height="7.55245" transform="matrix(-1 0 0 1 146.692 47.4476)" fill="#2196F3"/>
<rect width="2.23776" height="11.7482" transform="matrix(-1 0 0 1 142.497 43.2518)" fill="#F3B881"/>
<rect width="2.23776" height="11.7482" transform="matrix(-1 0 0 1 155.084 43.2518)" fill="#90CAF9"/>
<path d="M162.916 45.2098L155.643 41.014L151.168 35L146.273 38.9161L139 35" stroke="#FF5E5E" stroke-width="2"/>
<path d="M117.063 39.4301C116.92 39.2293 116.771 39.0339 116.615 38.844C114.687 36.4986 111.766 35 108.5 35C105.235 35 102.313 36.4986 100.385 38.844C100.229 39.0339 100.08 39.2293 99.9368 39.4301C98.7176 41.145 98 43.2403 98 45.5C98 47.7727 98.726 49.879 99.958 51.5993C100.101 51.7995 100.251 51.9947 100.408 52.184C102.336 54.5134 105.247 56 108.5 56C111.753 56 114.664 54.5134 116.592 52.184C116.749 51.9947 116.899 51.7995 117.042 51.5993C118.274 49.879 119 47.7727 119 45.5C119 43.2403 118.282 41.145 117.063 39.4301ZM116.013 39.2734C115.846 39.381 115.67 39.4857 115.486 39.5872C114.939 39.8883 114.337 40.1492 113.693 40.3681C113.442 39.5701 113.131 38.8272 112.763 38.1585C112.299 37.3154 111.768 36.6297 111.189 36.1149C113.101 36.6636 114.774 37.7817 116.013 39.2734ZM113.908 42.4777C114.014 42.4777 114.115 42.5015 114.205 42.5431C114.451 42.6561 114.623 42.9042 114.623 43.1922C114.623 43.4153 114.52 43.6147 114.359 43.7458C114.236 43.8462 114.079 43.9066 113.908 43.9066C113.809 43.9066 113.714 43.8861 113.628 43.8492C113.373 43.74 113.194 43.4867 113.194 43.1922C113.194 42.9625 113.303 42.7583 113.472 42.6275C113.593 42.534 113.744 42.4777 113.908 42.4777ZM108.869 35.7627C110.081 35.9255 111.222 36.8879 112.116 38.514C112.461 39.14 112.753 39.8367 112.989 40.586C111.724 40.9401 110.325 41.1404 108.869 41.1693V35.7627ZM108.869 41.9072C110.393 41.8779 111.861 41.6677 113.192 41.2948C113.24 41.4812 113.284 41.6705 113.326 41.8622C112.814 42.0871 112.456 42.5985 112.456 43.1922C112.456 43.9159 112.988 44.5174 113.682 44.6266C113.69 44.8015 113.696 44.9775 113.699 45.1543H109.91C109.784 44.6385 109.381 44.2301 108.869 44.0954V41.9072ZM113.181 49.7484C111.852 49.3774 110.388 49.1683 108.869 49.1392V46.9046C109.366 46.774 109.759 46.3859 109.898 45.8921H113.698C113.669 47.2482 113.492 48.5546 113.181 49.7484ZM113.332 52.4258C113.332 52.8198 113.011 53.1403 112.617 53.1403C112.609 53.1403 112.6 53.1393 112.592 53.139C112.32 53.1294 112.086 52.9671 111.974 52.7349C111.929 52.6413 111.903 52.5367 111.903 52.4258C111.903 52.0736 112.159 51.7809 112.495 51.7226C112.535 51.7156 112.575 51.7114 112.617 51.7114C112.847 51.7114 113.052 51.8212 113.183 51.9908C113.276 52.1115 113.332 52.2621 113.332 52.4258ZM108.131 35.7627V41.1693C106.675 41.1404 105.276 40.9401 104.011 40.5861C104.067 40.4086 104.126 40.2339 104.188 40.0627C104.218 40.0645 104.248 40.0657 104.278 40.0657C105.079 40.0657 105.731 39.4142 105.731 38.6134C105.731 38.2628 105.606 37.9409 105.398 37.6897C106.198 36.563 107.141 35.8957 108.131 35.7627ZM103.808 41.2948C105.139 41.6678 106.607 41.8779 108.131 41.9072V44.0954C107.619 44.2301 107.216 44.6385 107.09 45.1543H103.301C103.326 43.7979 103.5 42.4906 103.808 41.2948ZM103.564 38.6134C103.564 38.2194 103.884 37.8989 104.278 37.8989C104.313 37.8989 104.347 37.9023 104.381 37.9071C104.65 37.946 104.871 38.1349 104.955 38.3866C104.979 38.4579 104.993 38.5341 104.993 38.6134C104.993 38.9306 104.785 39.2 104.498 39.2929C104.429 39.3155 104.355 39.3279 104.278 39.3279C104.08 39.3279 103.9 39.2464 103.771 39.1153C103.643 38.9862 103.564 38.8089 103.564 38.6134ZM105.811 36.1149C105.454 36.4321 105.115 36.8142 104.8 37.2583C104.638 37.1958 104.462 37.1612 104.278 37.1612C103.478 37.1612 102.826 37.8126 102.826 38.6134C102.826 39.1229 103.09 39.5717 103.488 39.8309C103.425 40.007 103.364 40.1861 103.307 40.3681C102.663 40.1492 102.062 39.8883 101.514 39.5872C101.33 39.4857 101.154 39.381 100.987 39.2735C102.226 37.7817 103.899 36.6636 105.811 36.1149ZM100.536 39.8601C100.733 39.9889 100.94 40.1136 101.158 40.2336C101.753 40.5604 102.405 40.8424 103.103 41.0774C102.774 42.343 102.589 43.7243 102.563 45.1543H98.7442C98.813 43.1872 99.4664 41.366 100.536 39.8601ZM103.382 47.2518C103.574 47.3799 103.702 47.5987 103.702 47.8472C103.702 48.0294 103.633 48.1954 103.52 48.3217C103.389 48.4685 103.199 48.5616 102.987 48.5616C102.926 48.5616 102.866 48.5527 102.808 48.5379C102.501 48.458 102.273 48.179 102.273 47.8472C102.273 47.5799 102.42 47.3468 102.638 47.2243C102.742 47.1662 102.861 47.1326 102.987 47.1326C103.133 47.1326 103.269 47.1767 103.382 47.2518ZM98.7456 45.8921H102.564C102.568 46.0797 102.574 46.2665 102.584 46.4524C101.979 46.6277 101.535 47.1863 101.535 47.8472C101.535 48.6368 102.169 49.2809 102.955 49.2984C103.003 49.5238 103.057 49.7462 103.114 49.9651C102.412 50.2009 101.756 50.4842 101.159 50.8127C100.949 50.9281 100.749 51.048 100.559 51.1715C99.4842 49.6711 98.8235 47.8554 98.7456 45.8921ZM101.012 51.7564C101.172 51.6547 101.339 51.5555 101.514 51.4592C102.065 51.1559 102.672 50.8935 103.32 50.6737C103.569 51.4558 103.876 52.1846 104.237 52.8415C104.701 53.6847 105.232 54.3705 105.811 54.8854C103.912 54.3403 102.248 53.2332 101.012 51.7564ZM108.131 55.2374C106.919 55.0745 105.778 54.1122 104.884 52.4861C104.546 51.8719 104.258 51.1896 104.025 50.4565C105.286 50.1046 106.68 49.9059 108.131 49.8769V55.2374ZM108.131 49.1392C106.612 49.1683 105.147 49.3774 103.819 49.7484C103.766 49.5446 103.717 49.3375 103.672 49.1275C104.128 48.8825 104.44 48.4004 104.44 47.8472C104.44 47.1612 103.962 46.5852 103.321 46.434C103.312 46.2544 103.306 46.0736 103.302 45.8921H107.102C107.241 46.3859 107.634 46.774 108.131 46.9046V49.1392ZM108.869 55.2374V49.8769C110.32 49.9059 111.714 50.1046 112.975 50.4565C112.918 50.6356 112.858 50.812 112.795 50.9849C112.736 50.9776 112.677 50.9736 112.617 50.9736C111.816 50.9736 111.165 51.6251 111.165 52.4258C111.165 52.7993 111.307 53.1402 111.539 53.3979C110.753 54.4717 109.833 55.1078 108.869 55.2374ZM111.189 54.8854C111.529 54.5827 111.853 54.2207 112.156 53.8027C112.301 53.8513 112.456 53.8781 112.617 53.8781C113.418 53.8781 114.069 53.2266 114.069 52.4258C114.069 51.9478 113.837 51.5232 113.48 51.2584C113.55 51.0672 113.617 50.8721 113.68 50.6737C114.328 50.8935 114.935 51.1559 115.486 51.4592C115.661 51.5555 115.828 51.6547 115.988 51.7565C114.752 53.2333 113.088 54.3403 111.189 54.8854ZM116.441 51.1715C116.251 51.048 116.051 50.9281 115.842 50.8127C115.244 50.4842 114.588 50.2009 113.886 49.9651C114.218 48.7017 114.407 47.3216 114.436 45.8921H118.254C118.176 47.8554 117.516 49.6711 116.441 51.1715ZM118.256 45.1543H114.437C114.433 44.9526 114.427 44.7519 114.417 44.5524C114.967 44.3457 115.36 43.8142 115.36 43.1922C115.36 42.4412 114.787 41.8214 114.056 41.7473C114.007 41.5208 113.954 41.2974 113.897 41.0774C114.595 40.8424 115.247 40.5604 115.842 40.2336C116.06 40.1136 116.267 39.9888 116.464 39.8601C117.534 41.366 118.187 43.1871 118.256 45.1543Z" fill="#FF5E5E"/>
<path d="M122.5 52L126 51.5L126.5 57H121.5L122.5 52Z" fill="#FF5E5E"/>
<path d="M121 32L129 30L126 49.5L122.5 50L121 32Z" fill="#FF5E5E"/>
<path d="M40.8387 165.398L53.3277 164.875L51.6504 171.671L40.8387 165.398Z" fill="#70BC4C"/>
</svg>
