<svg width="260" height="175" viewBox="0 0 260 175" fill="none" xmlns="http://www.w3.org/2000/svg">
<path d="M244.467 28.0902C244.137 27.6264 243.791 27.175 243.43 26.7362C238.977 21.3169 232.226 17.8543 224.681 17.8543C217.135 17.8543 210.384 21.3169 205.931 26.7362C205.57 27.175 205.224 27.6264 204.895 28.0902C202.078 32.0528 200.42 36.8941 200.42 42.1153C200.42 47.3665 202.097 52.2333 204.944 56.2082C205.275 56.6709 205.622 57.1219 205.984 57.5592C210.438 62.9416 217.165 66.3765 224.681 66.3765C232.196 66.3765 238.924 62.9416 243.377 57.5592C243.739 57.1219 244.086 56.6709 244.418 56.2082C247.264 52.2333 248.942 47.3665 248.942 42.1153C248.942 36.8941 247.284 32.0528 244.467 28.0902ZM242.04 27.7284C241.654 27.9768 241.249 28.2189 240.822 28.4532C239.557 29.1491 238.167 29.7519 236.68 30.2576C236.1 28.4139 235.38 26.6973 234.53 25.1522C233.459 23.2041 232.232 21.6198 230.894 20.4302C235.312 21.698 239.178 24.2816 242.04 27.7284ZM237.177 35.1321C237.422 35.1321 237.653 35.1871 237.863 35.2832C238.431 35.5443 238.828 36.1175 238.828 36.783C238.828 37.2985 238.59 37.7593 238.218 38.0622C237.934 38.294 237.572 38.4336 237.177 38.4336C236.947 38.4336 236.728 38.3864 236.529 38.301C235.94 38.0486 235.526 37.4634 235.526 36.783C235.526 36.2523 235.779 35.7805 236.169 35.4783C236.448 35.2622 236.797 35.1321 237.177 35.1321ZM225.533 19.6165C228.333 19.9927 230.97 22.2163 233.037 25.9736C233.832 27.4201 234.507 29.0298 235.053 30.7612C232.13 31.5794 228.898 32.042 225.533 32.1089V19.6165ZM225.533 33.8138C229.054 33.7463 232.446 33.2604 235.521 32.399C235.632 32.8296 235.736 33.267 235.831 33.71C234.649 34.2295 233.821 35.4112 233.821 36.783C233.821 38.4552 235.051 39.8451 236.653 40.0972C236.672 40.5014 236.686 40.9081 236.694 41.3165H227.939C227.647 40.1248 226.717 39.1812 225.533 38.8699V33.8138ZM235.495 51.9316C232.427 51.0743 229.044 50.5913 225.533 50.5239V45.3607C226.682 45.059 227.591 44.1622 227.911 43.0213H236.691C236.625 46.1546 236.216 49.1731 235.495 51.9316ZM235.845 58.1181C235.844 59.0284 235.104 59.769 234.194 59.769C234.174 59.769 234.155 59.7666 234.136 59.7659C233.506 59.7437 232.967 59.3687 232.708 58.8321C232.603 58.6158 232.543 58.3742 232.543 58.1181C232.543 57.3041 233.135 56.6279 233.911 56.4931C234.003 56.477 234.097 56.4672 234.194 56.4672C234.726 56.4672 235.198 56.721 235.5 57.1127C235.715 57.3918 235.845 57.7396 235.845 58.1181ZM223.828 19.6165V32.1089C220.464 32.042 217.231 31.5794 214.308 30.7614C214.438 30.3511 214.574 29.9477 214.718 29.5519C214.787 29.5561 214.856 29.5589 214.926 29.5589C216.776 29.5589 218.282 28.0535 218.282 26.2033C218.282 25.3932 217.993 24.6494 217.514 24.069C219.362 21.4657 221.541 19.9239 223.828 19.6165ZM213.84 32.399C216.915 33.2607 220.308 33.7463 223.828 33.8138V38.8699C222.644 39.1812 221.714 40.1248 221.422 41.3165H212.668C212.726 38.1824 213.128 35.1618 213.84 32.399ZM213.275 26.2033C213.275 25.293 214.016 24.5524 214.926 24.5524C215.007 24.5524 215.085 24.5602 215.162 24.5713C215.785 24.6611 216.295 25.0975 216.49 25.6792C216.546 25.844 216.577 26.02 216.577 26.2033C216.577 26.9363 216.097 27.5586 215.434 27.7733C215.274 27.8255 215.104 27.8542 214.926 27.8542C214.468 27.8542 214.052 27.6659 213.753 27.3631C213.458 27.0646 213.275 26.655 213.275 26.2033ZM218.467 20.4303C217.643 21.1633 216.86 22.0461 216.131 23.0722C215.756 22.9278 215.351 22.8478 214.926 22.8478C213.076 22.8478 211.571 24.3531 211.571 26.2034C211.571 27.3806 212.181 28.4175 213.1 29.0165C212.954 29.4233 212.814 29.837 212.681 30.2576C211.194 29.7519 209.804 29.1491 208.539 28.4533C208.113 28.2189 207.707 27.9768 207.321 27.7284C210.183 24.2816 214.05 21.698 218.467 20.4303ZM206.279 29.0839C206.734 29.3814 207.213 29.6696 207.717 29.947C209.09 30.702 210.599 31.3536 212.211 31.8966C211.45 34.8208 211.022 38.0124 210.963 41.3165H202.139C202.298 36.7713 203.808 32.5634 206.279 29.0839ZM212.854 46.163C213.299 46.4589 213.594 46.9646 213.594 47.5386C213.594 47.9596 213.434 48.3433 213.174 48.6352C212.871 48.9743 212.432 49.1893 211.944 49.1893C211.8 49.1893 211.662 49.1689 211.529 49.1345C210.819 48.95 210.292 48.3053 210.292 47.5386C210.292 46.9211 210.633 46.3824 211.137 46.0994C211.375 45.9652 211.65 45.8875 211.943 45.8875C212.28 45.8875 212.593 45.9895 212.854 46.163ZM202.142 43.0213H210.965C210.974 43.4547 210.989 43.8865 211.01 44.3159C209.613 44.721 208.588 46.0117 208.588 47.5386C208.588 49.363 210.052 50.8514 211.867 50.8919C211.98 51.4127 212.103 51.9266 212.237 52.4323C210.615 52.9771 209.098 53.6318 207.718 54.3908C207.232 54.6575 206.771 54.9344 206.332 55.2198C203.849 51.7531 202.322 47.5576 202.142 43.0213ZM207.38 56.5713C207.748 56.3362 208.134 56.107 208.539 55.8845C209.813 55.1838 211.214 54.5775 212.712 54.0697C213.287 55.8766 213.996 57.5607 214.831 59.0785C215.902 61.0266 217.13 62.6113 218.467 63.8009C214.08 62.5416 210.236 59.9834 207.38 56.5713ZM223.828 64.6143C221.029 64.2379 218.391 62.0144 216.325 58.2572C215.544 56.8381 214.88 55.2616 214.34 53.5677C217.254 52.7547 220.476 52.2955 223.828 52.2286V64.6143ZM223.828 50.5239C220.318 50.5913 216.934 51.0743 213.866 51.9315C213.743 51.4607 213.629 50.9821 213.525 50.497C214.58 49.9307 215.299 48.8169 215.299 47.5386C215.299 45.9537 214.194 44.6228 212.715 44.2733C212.693 43.8584 212.679 43.4406 212.67 43.0213H221.45C221.771 44.1622 222.68 45.059 223.828 45.3607V50.5239ZM225.533 64.6143V52.2286C228.886 52.2955 232.107 52.7547 235.021 53.5677C234.889 53.9815 234.751 54.3892 234.604 54.7887C234.469 54.7719 234.333 54.7625 234.193 54.7625C232.343 54.7625 230.838 56.2679 230.838 58.1181C230.838 58.9809 231.166 59.7687 231.703 60.364C229.886 62.8452 227.761 64.3148 225.533 64.6143ZM230.894 63.801C231.68 63.1016 232.428 62.2652 233.129 61.2994C233.463 61.4116 233.821 61.4736 234.194 61.4736C236.044 61.4736 237.549 59.9682 237.549 58.1181C237.549 57.0136 237.013 56.0324 236.186 55.4205C236.349 54.9788 236.503 54.5279 236.649 54.0697C238.148 54.5775 239.548 55.1838 240.822 55.8845C241.227 56.107 241.613 56.3362 241.982 56.5715C239.126 59.9837 235.282 62.5416 230.894 63.801ZM243.03 55.2198C242.59 54.9344 242.129 54.6575 241.644 54.3908C240.264 53.6318 238.747 52.9771 237.125 52.4323C237.893 49.513 238.329 46.3242 238.396 43.0213H247.219C247.039 47.5576 245.512 51.7531 243.03 55.2198ZM247.222 41.3165H238.398C238.39 40.8505 238.374 40.3867 238.351 39.9257C239.624 39.4483 240.532 38.2201 240.532 36.783C240.532 35.0477 239.208 33.6157 237.517 33.4445C237.405 32.921 237.283 32.4048 237.151 31.8965C238.763 31.3536 240.271 30.702 241.644 29.9469C242.148 29.6695 242.627 29.3811 243.082 29.0838C245.553 32.5634 247.063 36.7711 247.222 41.3165Z" fill="#64B5F6"/>
<path d="M191.455 24.1216C140.606 16.4744 129.498 36.2458 130.3 47.0874" stroke="black"/>
<path d="M173.157 119.803C223.351 108.637 226.599 86.1928 221.948 76.3663" stroke="black"/>
<path d="M41.665 140.539C90.4453 166.304 109.207 151.955 112.49 141.561" stroke="black"/>
<path d="M43.2999 123.983C46.6893 123.34 50.004 122.328 52.5 120.793V124.881C52.5 125.646 52.0357 126.453 51.0256 127.261C50.0215 128.063 48.5452 128.807 46.6967 129.441C43.0047 130.708 37.9365 131.5 32.5 131.5C27.0645 131.5 21.9964 130.708 18.3041 129.441C16.4554 128.807 14.9789 128.063 13.9746 127.261C12.9644 126.453 12.5 125.646 12.5 124.881V120.793C15.0017 122.332 18.322 123.345 21.7134 123.987C25.4876 124.702 29.4052 124.968 32.5 124.968C35.6063 124.968 39.527 124.699 43.2999 123.983ZM52.5 109.227V113.266C52.5 114.031 52.0357 114.838 51.0256 115.646C50.0215 116.448 48.5452 117.192 46.6967 117.826C43.0047 119.093 37.9365 119.885 32.5 119.885C27.0645 119.885 21.9963 119.094 18.304 117.827C16.4554 117.193 14.9789 116.449 13.9747 115.646C12.9645 114.839 12.5 114.031 12.5 113.266V109.227C14.996 110.762 18.3107 111.774 21.7001 112.417C25.473 113.133 29.3937 113.402 32.5 113.402C35.5948 113.402 39.5124 113.136 43.2866 112.421C46.678 111.779 49.9983 110.766 52.5 109.227ZM12.5 90.1213C12.5 89.3558 12.9645 88.5477 13.9747 87.7403C14.979 86.9377 16.4555 86.1934 18.3041 85.559C21.9964 84.2919 27.0645 83.5 32.5 83.5C37.9365 83.5 43.0047 84.2919 46.6967 85.559C48.5452 86.1934 50.0215 86.9377 51.0256 87.7403C52.0356 88.5476 52.5 89.3557 52.5 90.1213C52.5 90.8863 52.0357 91.6941 51.0256 92.5012C50.0215 93.3035 48.5452 94.0476 46.6967 94.6819C43.0047 95.9487 37.9365 96.7406 32.5 96.7406C27.0645 96.7406 21.9963 95.9492 18.304 94.6826C16.4554 94.0485 14.9789 93.3044 13.9747 92.502C12.9645 91.6949 12.5 90.8869 12.5 90.1213ZM12.5 97.6487C14.996 99.1834 18.3107 100.196 21.7001 100.839C25.473 101.555 29.3937 101.824 32.5 101.824C35.5948 101.824 39.5124 101.558 43.2866 100.843C46.678 100.201 49.9983 99.188 52.5 97.649V101.7C52.5 102.465 52.0357 103.272 51.0256 104.079C50.0215 104.882 48.5452 105.626 46.6967 106.26C43.0047 107.527 37.9365 108.319 32.5 108.319C27.0645 108.319 21.9963 107.527 18.304 106.261C16.4554 105.627 14.9789 104.883 13.9747 104.08C12.9645 103.273 12.5 102.465 12.5 101.7V97.6487Z" fill="#78909C" stroke="#546E7A"/>
<path d="M186.295 125.557V125.205C186.612 125.205 186.832 125.138 186.957 125.006C187.084 124.873 187.148 124.652 187.148 124.341V123.432C187.148 123.17 187.172 122.944 187.222 122.753C187.273 122.562 187.355 122.403 187.469 122.278C187.582 122.153 187.734 122.061 187.923 122C188.113 121.939 188.347 121.909 188.625 121.909V122.466C188.405 122.466 188.232 122.5 188.105 122.568C187.98 122.636 187.891 122.742 187.838 122.886C187.787 123.028 187.761 123.21 187.761 123.432V124.568C187.761 124.716 187.741 124.85 187.702 124.972C187.664 125.093 187.593 125.197 187.489 125.284C187.384 125.371 187.236 125.438 187.043 125.486C186.851 125.533 186.602 125.557 186.295 125.557ZM188.625 129.182C188.347 129.182 188.113 129.152 187.923 129.091C187.734 129.03 187.582 128.938 187.469 128.812C187.355 128.688 187.273 128.529 187.222 128.338C187.172 128.147 187.148 127.92 187.148 127.659V126.75C187.148 126.439 187.084 126.218 186.957 126.085C186.832 125.953 186.612 125.886 186.295 125.886V125.534C186.602 125.534 186.851 125.558 187.043 125.605C187.236 125.652 187.384 125.72 187.489 125.807C187.593 125.894 187.664 125.998 187.702 126.119C187.741 126.241 187.761 126.375 187.761 126.523V127.659C187.761 127.881 187.787 128.063 187.838 128.205C187.891 128.347 187.98 128.452 188.105 128.52C188.232 128.59 188.405 128.625 188.625 128.625V129.182ZM186.295 125.886V125.205H186.966V125.886H186.295ZM188.602 155.534V155.886C188.286 155.886 188.064 155.953 187.938 156.085C187.812 156.218 187.75 156.439 187.75 156.75V157.659C187.75 157.92 187.724 158.147 187.673 158.338C187.624 158.529 187.543 158.688 187.429 158.812C187.315 158.938 187.164 159.03 186.974 159.091C186.785 159.152 186.551 159.182 186.273 159.182V158.625C186.492 158.625 186.665 158.59 186.79 158.52C186.917 158.452 187.006 158.347 187.057 158.205C187.11 158.063 187.136 157.881 187.136 157.659V156.523C187.136 156.375 187.155 156.241 187.193 156.119C187.233 155.998 187.305 155.894 187.409 155.807C187.513 155.72 187.661 155.652 187.852 155.605C188.045 155.558 188.295 155.534 188.602 155.534ZM186.273 151.909C186.551 151.909 186.785 151.939 186.974 152C187.164 152.061 187.315 152.153 187.429 152.278C187.543 152.403 187.624 152.562 187.673 152.753C187.724 152.944 187.75 153.17 187.75 153.432V154.341C187.75 154.652 187.812 154.873 187.938 155.006C188.064 155.138 188.286 155.205 188.602 155.205V155.557C188.295 155.557 188.045 155.533 187.852 155.486C187.661 155.438 187.513 155.371 187.409 155.284C187.305 155.197 187.233 155.093 187.193 154.972C187.155 154.85 187.136 154.716 187.136 154.568V153.432C187.136 153.21 187.11 153.028 187.057 152.886C187.006 152.742 186.917 152.636 186.79 152.568C186.665 152.5 186.492 152.466 186.273 152.466V151.909ZM188.602 155.205V155.886H187.932V155.205H188.602Z" fill="#E3823B"/>
<path d="M218.173 138.045C218.032 138.045 217.912 137.995 217.812 137.895C217.711 137.795 217.661 137.674 217.661 137.534C217.661 137.394 217.711 137.274 217.812 137.173C217.912 137.073 218.032 137.023 218.173 137.023C218.313 137.023 218.433 137.073 218.533 137.173C218.634 137.274 218.684 137.394 218.684 137.534C218.684 137.627 218.66 137.712 218.613 137.79C218.567 137.867 218.506 137.93 218.428 137.977C218.353 138.023 218.267 138.045 218.173 138.045ZM218.173 134.807C218.032 134.807 217.912 134.757 217.812 134.656C217.711 134.556 217.661 134.436 217.661 134.295C217.661 134.155 217.711 134.035 217.812 133.935C217.912 133.834 218.032 133.784 218.173 133.784C218.313 133.784 218.433 133.834 218.533 133.935C218.634 134.035 218.684 134.155 218.684 134.295C218.684 134.388 218.66 134.473 218.613 134.551C218.567 134.629 218.506 134.691 218.428 134.739C218.353 134.784 218.267 134.807 218.173 134.807ZM238.887 137.205L238.842 137.511C238.809 137.727 238.76 137.958 238.694 138.205C238.629 138.451 238.562 138.683 238.492 138.901C238.422 139.118 238.364 139.292 238.319 139.42H237.808C237.832 139.299 237.864 139.139 237.904 138.94C237.944 138.741 237.984 138.519 238.023 138.273C238.065 138.028 238.099 137.778 238.126 137.523L238.16 137.205H238.887ZM233.954 148.045C233.814 148.045 233.693 147.995 233.593 147.895C233.493 147.795 233.442 147.674 233.442 147.534C233.442 147.394 233.493 147.274 233.593 147.173C233.693 147.073 233.814 147.023 233.954 147.023C234.094 147.023 234.214 147.073 234.315 147.173C234.415 147.274 234.465 147.394 234.465 147.534C234.465 147.627 234.442 147.712 234.394 147.79C234.349 147.867 234.287 147.93 234.21 147.977C234.134 148.023 234.049 148.045 233.954 148.045ZM233.954 144.807C233.814 144.807 233.693 144.757 233.593 144.656C233.493 144.556 233.442 144.436 233.442 144.295C233.442 144.155 233.493 144.035 233.593 143.935C233.693 143.834 233.814 143.784 233.954 143.784C234.094 143.784 234.214 143.834 234.315 143.935C234.415 144.035 234.465 144.155 234.465 144.295C234.465 144.388 234.442 144.473 234.394 144.551C234.349 144.629 234.287 144.691 234.21 144.739C234.134 144.784 234.049 144.807 233.954 144.807Z" fill="#393939"/>
<path d="M193.955 132.182V132.693C193.955 132.848 193.926 133.014 193.869 133.19C193.814 133.365 193.733 133.534 193.625 133.699C193.519 133.862 193.39 134.004 193.239 134.125L192.875 133.83C192.994 133.659 193.098 133.482 193.185 133.298C193.274 133.113 193.318 132.915 193.318 132.705V132.182H193.955ZM195.409 132.182V132.693C195.409 132.848 195.381 133.014 195.324 133.19C195.269 133.365 195.188 133.534 195.08 133.699C194.973 133.862 194.845 134.004 194.693 134.125L194.33 133.83C194.449 133.659 194.552 133.482 194.639 133.298C194.728 133.113 194.773 132.915 194.773 132.705V132.182H195.409ZM215.228 132.182V132.693C215.228 132.848 215.2 133.014 215.143 133.19C215.088 133.365 215.006 133.534 214.898 133.699C214.792 133.862 214.664 134.004 214.512 134.125L214.148 133.83C214.268 133.659 214.371 133.482 214.458 133.298C214.547 133.113 214.592 132.915 214.592 132.705V132.182H215.228ZM216.683 132.182V132.693C216.683 132.848 216.654 133.014 216.597 133.19C216.542 133.365 216.461 133.534 216.353 133.699C216.247 133.862 216.118 134.004 215.967 134.125L215.603 133.83C215.722 133.659 215.826 133.482 215.913 133.298C216.002 133.113 216.046 132.915 216.046 132.705V132.182H216.683ZM193.136 144V143.489C193.136 143.333 193.164 143.169 193.219 142.994C193.276 142.818 193.357 142.649 193.463 142.486C193.571 142.321 193.701 142.178 193.852 142.057L194.216 142.352C194.097 142.523 193.992 142.701 193.903 142.886C193.816 143.07 193.773 143.267 193.773 143.477V144H193.136ZM194.591 144V143.489C194.591 143.333 194.618 143.169 194.673 142.994C194.73 142.818 194.812 142.649 194.918 142.486C195.026 142.321 195.155 142.178 195.307 142.057L195.67 142.352C195.551 142.523 195.447 142.701 195.358 142.886C195.271 143.07 195.227 143.267 195.227 143.477V144H194.591ZM196.411 148V143.636H197.058V144.318H197.115C197.206 144.085 197.353 143.904 197.555 143.776C197.758 143.645 198.001 143.58 198.286 143.58C198.573 143.58 198.813 143.645 199.004 143.776C199.197 143.904 199.348 144.085 199.456 144.318H199.501C199.613 144.093 199.781 143.914 200.004 143.781C200.228 143.647 200.496 143.58 200.808 143.58C201.198 143.58 201.518 143.702 201.766 143.946C202.014 144.188 202.138 144.566 202.138 145.08V148H201.467V145.08C201.467 144.758 201.379 144.527 201.203 144.389C201.027 144.251 200.82 144.182 200.581 144.182C200.274 144.182 200.036 144.275 199.868 144.46C199.699 144.644 199.615 144.877 199.615 145.159V148H198.933V145.011C198.933 144.763 198.853 144.563 198.692 144.412C198.531 144.259 198.323 144.182 198.07 144.182C197.895 144.182 197.732 144.228 197.581 144.321C197.431 144.414 197.31 144.543 197.217 144.707C197.126 144.87 197.081 145.059 197.081 145.273V148H196.411ZM205.193 148.091C204.773 148.091 204.41 147.998 204.105 147.812C203.802 147.625 203.568 147.364 203.403 147.028C203.241 146.691 203.159 146.299 203.159 145.852C203.159 145.405 203.241 145.011 203.403 144.67C203.568 144.328 203.797 144.061 204.091 143.869C204.386 143.676 204.731 143.58 205.125 143.58C205.352 143.58 205.577 143.617 205.798 143.693C206.02 143.769 206.222 143.892 206.403 144.062C206.585 144.231 206.73 144.455 206.838 144.733C206.946 145.011 207 145.354 207 145.761V146.045H203.636V145.466H206.318C206.318 145.22 206.269 145 206.17 144.807C206.074 144.614 205.936 144.461 205.756 144.349C205.578 144.238 205.367 144.182 205.125 144.182C204.858 144.182 204.627 144.248 204.432 144.381C204.239 144.511 204.09 144.682 203.986 144.892C203.882 145.102 203.83 145.328 203.83 145.568V145.955C203.83 146.284 203.886 146.563 204 146.793C204.116 147.02 204.276 147.193 204.48 147.312C204.685 147.43 204.922 147.489 205.193 147.489C205.369 147.489 205.528 147.464 205.67 147.415C205.814 147.364 205.938 147.288 206.043 147.188C206.147 147.085 206.227 146.958 206.284 146.807L206.932 146.989C206.864 147.208 206.749 147.402 206.588 147.568C206.427 147.733 206.228 147.862 205.991 147.955C205.755 148.045 205.489 148.091 205.193 148.091ZM211.111 144.614L210.509 144.784C210.471 144.684 210.415 144.586 210.341 144.491C210.269 144.395 210.17 144.315 210.045 144.253C209.92 144.19 209.76 144.159 209.565 144.159C209.298 144.159 209.076 144.221 208.898 144.344C208.722 144.465 208.634 144.619 208.634 144.807C208.634 144.973 208.694 145.105 208.815 145.202C208.937 145.298 209.126 145.379 209.384 145.443L210.031 145.602C210.421 145.697 210.712 145.842 210.903 146.037C211.095 146.23 211.19 146.479 211.19 146.784C211.19 147.034 211.118 147.258 210.974 147.455C210.832 147.652 210.634 147.807 210.378 147.92C210.122 148.034 209.825 148.091 209.486 148.091C209.041 148.091 208.672 147.994 208.381 147.801C208.089 147.608 207.904 147.326 207.827 146.955L208.463 146.795C208.524 147.03 208.638 147.206 208.807 147.324C208.977 147.441 209.2 147.5 209.474 147.5C209.787 147.5 210.035 147.434 210.219 147.301C210.404 147.167 210.497 147.006 210.497 146.818C210.497 146.667 210.444 146.54 210.338 146.438C210.232 146.333 210.069 146.256 209.849 146.205L209.122 146.034C208.723 145.939 208.429 145.793 208.241 145.594C208.056 145.393 207.963 145.142 207.963 144.841C207.963 144.595 208.032 144.377 208.17 144.188C208.311 143.998 208.501 143.849 208.741 143.741C208.984 143.634 209.259 143.58 209.565 143.58C209.997 143.58 210.336 143.674 210.582 143.864C210.83 144.053 211.007 144.303 211.111 144.614ZM215.29 144.614L214.688 144.784C214.65 144.684 214.594 144.586 214.521 144.491C214.449 144.395 214.35 144.315 214.225 144.253C214.1 144.19 213.94 144.159 213.745 144.159C213.478 144.159 213.255 144.221 213.077 144.344C212.901 144.465 212.813 144.619 212.813 144.807C212.813 144.973 212.874 145.105 212.995 145.202C213.116 145.298 213.306 145.379 213.563 145.443L214.211 145.602C214.601 145.697 214.892 145.842 215.083 146.037C215.274 146.23 215.37 146.479 215.37 146.784C215.37 147.034 215.298 147.258 215.154 147.455C215.012 147.652 214.813 147.807 214.558 147.92C214.302 148.034 214.004 148.091 213.665 148.091C213.22 148.091 212.852 147.994 212.56 147.801C212.269 147.608 212.084 147.326 212.006 146.955L212.643 146.795C212.703 147.03 212.818 147.206 212.987 147.324C213.157 147.441 213.379 147.5 213.654 147.5C213.967 147.5 214.215 147.434 214.398 147.301C214.584 147.167 214.677 147.006 214.677 146.818C214.677 146.667 214.624 146.54 214.518 146.438C214.412 146.333 214.249 146.256 214.029 146.205L213.302 146.034C212.902 145.939 212.609 145.793 212.421 145.594C212.236 145.393 212.143 145.142 212.143 144.841C212.143 144.595 212.212 144.377 212.35 144.188C212.49 143.998 212.681 143.849 212.921 143.741C213.164 143.634 213.438 143.58 213.745 143.58C214.177 143.58 214.516 143.674 214.762 143.864C215.01 144.053 215.186 144.303 215.29 144.614ZM217.663 148.102C217.387 148.102 217.136 148.05 216.911 147.946C216.685 147.84 216.506 147.688 216.374 147.489C216.241 147.288 216.175 147.045 216.175 146.761C216.175 146.511 216.224 146.309 216.322 146.153C216.421 145.996 216.553 145.873 216.717 145.784C216.882 145.695 217.064 145.629 217.263 145.585C217.464 145.54 217.665 145.504 217.868 145.477C218.133 145.443 218.348 145.418 218.513 145.401C218.679 145.382 218.801 145.35 218.876 145.307C218.954 145.263 218.993 145.187 218.993 145.08V145.057C218.993 144.777 218.916 144.559 218.763 144.403C218.611 144.248 218.381 144.17 218.072 144.17C217.752 144.17 217.501 144.241 217.32 144.381C217.138 144.521 217.01 144.67 216.936 144.83L216.3 144.602C216.413 144.337 216.565 144.131 216.754 143.983C216.946 143.833 217.154 143.729 217.379 143.67C217.607 143.61 217.83 143.58 218.05 143.58C218.19 143.58 218.351 143.597 218.533 143.631C218.716 143.663 218.893 143.73 219.064 143.832C219.236 143.935 219.379 144.089 219.493 144.295C219.607 144.502 219.663 144.778 219.663 145.125V148H218.993V147.409H218.959C218.913 147.504 218.838 147.605 218.732 147.713C218.625 147.821 218.484 147.913 218.308 147.989C218.132 148.064 217.917 148.102 217.663 148.102ZM217.766 147.5C218.031 147.5 218.254 147.448 218.436 147.344C218.62 147.24 218.758 147.105 218.851 146.94C218.946 146.776 218.993 146.602 218.993 146.42V145.807C218.964 145.841 218.902 145.872 218.805 145.901C218.711 145.927 218.601 145.951 218.476 145.972C218.353 145.991 218.232 146.008 218.115 146.023C218 146.036 217.906 146.047 217.834 146.057C217.66 146.08 217.497 146.116 217.345 146.168C217.196 146.217 217.074 146.292 216.982 146.392C216.891 146.491 216.845 146.625 216.845 146.795C216.845 147.028 216.931 147.205 217.104 147.324C217.278 147.441 217.499 147.5 217.766 147.5ZM222.648 149.727C222.325 149.727 222.046 149.686 221.813 149.602C221.58 149.521 221.386 149.413 221.231 149.278C221.077 149.146 220.955 149.004 220.864 148.852L221.398 148.477C221.459 148.557 221.536 148.648 221.629 148.75C221.721 148.854 221.848 148.944 222.009 149.02C222.172 149.098 222.385 149.136 222.648 149.136C223.001 149.136 223.291 149.051 223.521 148.881C223.75 148.71 223.864 148.443 223.864 148.08V147.193H223.808C223.758 147.273 223.688 147.371 223.597 147.489C223.508 147.604 223.379 147.707 223.211 147.798C223.044 147.887 222.819 147.932 222.535 147.932C222.183 147.932 221.866 147.848 221.586 147.682C221.308 147.515 221.087 147.273 220.924 146.955C220.763 146.636 220.683 146.25 220.683 145.795C220.683 145.348 220.761 144.959 220.918 144.628C221.076 144.295 221.294 144.037 221.575 143.855C221.855 143.671 222.179 143.58 222.546 143.58C222.83 143.58 223.056 143.627 223.222 143.722C223.391 143.814 223.52 143.92 223.609 144.04C223.7 144.157 223.77 144.254 223.819 144.33H223.887V143.636H224.535V148.125C224.535 148.5 224.45 148.805 224.279 149.04C224.111 149.277 223.883 149.45 223.597 149.56C223.313 149.671 222.997 149.727 222.648 149.727ZM222.626 147.33C222.895 147.33 223.122 147.268 223.308 147.145C223.493 147.022 223.634 146.845 223.731 146.614C223.827 146.383 223.876 146.106 223.876 145.784C223.876 145.47 223.828 145.192 223.734 144.952C223.639 144.711 223.499 144.523 223.313 144.386C223.128 144.25 222.898 144.182 222.626 144.182C222.342 144.182 222.105 144.254 221.915 144.398C221.728 144.542 221.587 144.735 221.492 144.977C221.399 145.22 221.353 145.489 221.353 145.784C221.353 146.087 221.4 146.355 221.495 146.588C221.592 146.819 221.734 147.001 221.921 147.134C222.111 147.264 222.345 147.33 222.626 147.33ZM227.592 148.091C227.171 148.091 226.808 147.998 226.504 147.812C226.201 147.625 225.967 147.364 225.802 147.028C225.639 146.691 225.558 146.299 225.558 145.852C225.558 145.405 225.639 145.011 225.802 144.67C225.967 144.328 226.196 144.061 226.489 143.869C226.785 143.676 227.129 143.58 227.523 143.58C227.751 143.58 227.975 143.617 228.197 143.693C228.418 143.769 228.62 143.892 228.802 144.062C228.984 144.231 229.129 144.455 229.237 144.733C229.344 145.011 229.398 145.354 229.398 145.761V146.045H226.035V145.466H228.717C228.717 145.22 228.667 145 228.569 144.807C228.472 144.614 228.334 144.461 228.154 144.349C227.976 144.238 227.766 144.182 227.523 144.182C227.256 144.182 227.025 144.248 226.83 144.381C226.637 144.511 226.488 144.682 226.384 144.892C226.28 145.102 226.228 145.328 226.228 145.568V145.955C226.228 146.284 226.285 146.563 226.398 146.793C226.514 147.02 226.674 147.193 226.879 147.312C227.083 147.43 227.321 147.489 227.592 147.489C227.768 147.489 227.927 147.464 228.069 147.415C228.213 147.364 228.337 147.288 228.441 147.188C228.545 147.085 228.626 146.958 228.683 146.807L229.33 146.989C229.262 147.208 229.147 147.402 228.987 147.568C228.826 147.733 228.627 147.862 228.39 147.955C228.153 148.045 227.887 148.091 227.592 148.091ZM231.009 142.182V142.693C231.009 142.848 230.981 143.014 230.924 143.19C230.869 143.365 230.788 143.534 230.68 143.699C230.574 143.862 230.445 144.004 230.293 144.125L229.93 143.83C230.049 143.659 230.152 143.482 230.239 143.298C230.328 143.113 230.373 142.915 230.373 142.705V142.182H231.009ZM232.464 142.182V142.693C232.464 142.848 232.435 143.014 232.379 143.19C232.324 143.365 232.242 143.534 232.134 143.699C232.028 143.862 231.899 144.004 231.748 144.125L231.384 143.83C231.504 143.659 231.607 143.482 231.694 143.298C231.783 143.113 231.827 142.915 231.827 142.705V142.182H232.464Z" fill="#4C9B67"/>
<path d="M198.24 138.091C197.82 138.091 197.457 137.998 197.152 137.812C196.849 137.625 196.615 137.364 196.45 137.028C196.287 136.691 196.206 136.299 196.206 135.852C196.206 135.405 196.287 135.011 196.45 134.67C196.615 134.328 196.844 134.061 197.138 133.869C197.433 133.676 197.778 133.58 198.172 133.58C198.399 133.58 198.624 133.617 198.845 133.693C199.067 133.769 199.268 133.892 199.45 134.062C199.632 134.231 199.777 134.455 199.885 134.733C199.993 135.011 200.047 135.354 200.047 135.761V136.045H196.683V135.466H199.365C199.365 135.22 199.316 135 199.217 134.807C199.121 134.614 198.982 134.461 198.803 134.349C198.625 134.238 198.414 134.182 198.172 134.182C197.905 134.182 197.674 134.248 197.479 134.381C197.286 134.511 197.137 134.682 197.033 134.892C196.929 135.102 196.876 135.328 196.876 135.568V135.955C196.876 136.284 196.933 136.563 197.047 136.793C197.162 137.02 197.322 137.193 197.527 137.312C197.732 137.43 197.969 137.489 198.24 137.489C198.416 137.489 198.575 137.464 198.717 137.415C198.861 137.364 198.985 137.288 199.089 137.188C199.194 137.085 199.274 136.958 199.331 136.807L199.979 136.989C199.911 137.208 199.796 137.402 199.635 137.568C199.474 137.733 199.275 137.862 199.038 137.955C198.802 138.045 198.536 138.091 198.24 138.091ZM201.067 138V133.636H201.714V134.295H201.76C201.839 134.08 201.983 133.904 202.192 133.77C202.4 133.635 202.635 133.568 202.896 133.568C202.946 133.568 203.007 133.569 203.081 133.571C203.155 133.573 203.211 133.576 203.249 133.58V134.261C203.226 134.256 203.174 134.247 203.092 134.236C203.013 134.223 202.929 134.216 202.839 134.216C202.627 134.216 202.438 134.26 202.271 134.349C202.107 134.437 201.976 134.558 201.879 134.713C201.785 134.866 201.737 135.042 201.737 135.239V138H201.067ZM204.043 138V133.636H204.691V134.295H204.737C204.816 134.08 204.96 133.904 205.168 133.77C205.377 133.635 205.612 133.568 205.873 133.568C205.922 133.568 205.984 133.569 206.058 133.571C206.131 133.573 206.187 133.576 206.225 133.58V134.261C206.202 134.256 206.15 134.247 206.069 134.236C205.989 134.223 205.905 134.216 205.816 134.216C205.604 134.216 205.415 134.26 205.248 134.349C205.083 134.437 204.952 134.558 204.856 134.713C204.761 134.866 204.714 135.042 204.714 135.239V138H204.043ZM208.66 138.091C208.266 138.091 207.92 137.997 207.623 137.81C207.327 137.622 207.096 137.36 206.93 137.023C206.765 136.686 206.683 136.292 206.683 135.841C206.683 135.386 206.765 134.99 206.93 134.651C207.096 134.312 207.327 134.048 207.623 133.861C207.92 133.673 208.266 133.58 208.66 133.58C209.054 133.58 209.398 133.673 209.694 133.861C209.991 134.048 210.222 134.312 210.387 134.651C210.554 134.99 210.637 135.386 210.637 135.841C210.637 136.292 210.554 136.686 210.387 137.023C210.222 137.36 209.991 137.622 209.694 137.81C209.398 137.997 209.054 138.091 208.66 138.091ZM208.66 137.489C208.959 137.489 209.205 137.412 209.398 137.259C209.592 137.105 209.735 136.903 209.827 136.653C209.92 136.403 209.967 136.133 209.967 135.841C209.967 135.549 209.92 135.277 209.827 135.026C209.735 134.774 209.592 134.57 209.398 134.415C209.205 134.259 208.959 134.182 208.66 134.182C208.361 134.182 208.114 134.259 207.921 134.415C207.728 134.57 207.585 134.774 207.492 135.026C207.399 135.277 207.353 135.549 207.353 135.841C207.353 136.133 207.399 136.403 207.492 136.653C207.585 136.903 207.728 137.105 207.921 137.259C208.114 137.412 208.361 137.489 208.66 137.489ZM211.661 138V133.636H212.308V134.295H212.354C212.433 134.08 212.577 133.904 212.786 133.77C212.994 133.635 213.229 133.568 213.49 133.568C213.539 133.568 213.601 133.569 213.675 133.571C213.749 133.573 213.804 133.576 213.842 133.58V134.261C213.82 134.256 213.768 134.247 213.686 134.236C213.607 134.223 213.522 134.216 213.433 134.216C213.221 134.216 213.032 134.26 212.865 134.349C212.7 134.437 212.57 134.558 212.473 134.713C212.378 134.866 212.331 135.042 212.331 135.239V138H211.661Z" fill="#4C9B67"/>
<path d="M221.83 133.636V134.205H219.478V133.636H221.83ZM220.183 138V133.034C220.183 132.784 220.241 132.576 220.359 132.409C220.476 132.242 220.629 132.117 220.816 132.034C221.004 131.951 221.201 131.909 221.41 131.909C221.575 131.909 221.709 131.922 221.813 131.949C221.917 131.975 221.995 132 222.046 132.023L221.853 132.602C221.819 132.591 221.772 132.577 221.711 132.56C221.652 132.543 221.575 132.534 221.478 132.534C221.256 132.534 221.096 132.59 220.998 132.702C220.901 132.813 220.853 132.977 220.853 133.193V138H220.183ZM223.929 138.102C223.652 138.102 223.402 138.05 223.176 137.946C222.951 137.84 222.772 137.688 222.639 137.489C222.507 137.288 222.44 137.045 222.44 136.761C222.44 136.511 222.49 136.309 222.588 136.153C222.687 135.996 222.818 135.873 222.983 135.784C223.148 135.695 223.33 135.629 223.528 135.585C223.729 135.54 223.931 135.504 224.134 135.477C224.399 135.443 224.614 135.418 224.778 135.401C224.945 135.382 225.066 135.35 225.142 135.307C225.22 135.263 225.259 135.187 225.259 135.08V135.057C225.259 134.777 225.182 134.559 225.028 134.403C224.877 134.248 224.647 134.17 224.338 134.17C224.018 134.17 223.767 134.241 223.585 134.381C223.403 134.521 223.276 134.67 223.202 134.83L222.565 134.602C222.679 134.337 222.83 134.131 223.02 133.983C223.211 133.833 223.42 133.729 223.645 133.67C223.872 133.61 224.096 133.58 224.315 133.58C224.455 133.58 224.616 133.597 224.798 133.631C224.982 133.663 225.159 133.73 225.33 133.832C225.502 133.935 225.645 134.089 225.759 134.295C225.872 134.502 225.929 134.778 225.929 135.125V138H225.259V137.409H225.224C225.179 137.504 225.103 137.605 224.997 137.713C224.891 137.821 224.75 137.913 224.574 137.989C224.398 138.064 224.183 138.102 223.929 138.102ZM224.031 137.5C224.296 137.5 224.52 137.448 224.702 137.344C224.885 137.24 225.024 137.105 225.116 136.94C225.211 136.776 225.259 136.602 225.259 136.42V135.807C225.23 135.841 225.168 135.872 225.071 135.901C224.976 135.927 224.866 135.951 224.741 135.972C224.618 135.991 224.498 136.008 224.381 136.023C224.265 136.036 224.171 136.047 224.099 136.057C223.925 136.08 223.762 136.116 223.611 136.168C223.461 136.217 223.34 136.292 223.247 136.392C223.156 136.491 223.111 136.625 223.111 136.795C223.111 137.028 223.197 137.205 223.369 137.324C223.544 137.441 223.764 137.5 224.031 137.5ZM227.823 132.182V138H227.153V132.182H227.823ZM232.142 134.614L231.54 134.784C231.502 134.684 231.446 134.586 231.372 134.491C231.3 134.395 231.202 134.315 231.077 134.253C230.952 134.19 230.792 134.159 230.597 134.159C230.33 134.159 230.107 134.221 229.929 134.344C229.753 134.465 229.665 134.619 229.665 134.807C229.665 134.973 229.725 135.105 229.847 135.202C229.968 135.298 230.157 135.379 230.415 135.443L231.062 135.602C231.453 135.697 231.743 135.842 231.935 136.037C232.126 136.23 232.222 136.479 232.222 136.784C232.222 137.034 232.15 137.258 232.006 137.455C231.864 137.652 231.665 137.807 231.409 137.92C231.153 138.034 230.856 138.091 230.517 138.091C230.072 138.091 229.704 137.994 229.412 137.801C229.12 137.608 228.936 137.326 228.858 136.955L229.494 136.795C229.555 137.03 229.67 137.206 229.838 137.324C230.009 137.441 230.231 137.5 230.506 137.5C230.818 137.5 231.066 137.434 231.25 137.301C231.436 137.167 231.528 137.006 231.528 136.818C231.528 136.667 231.475 136.54 231.369 136.438C231.263 136.333 231.1 136.256 230.881 136.205L230.153 136.034C229.754 135.939 229.46 135.793 229.273 135.594C229.087 135.393 228.994 135.142 228.994 134.841C228.994 134.595 229.063 134.377 229.202 134.188C229.342 133.998 229.532 133.849 229.773 133.741C230.015 133.634 230.29 133.58 230.597 133.58C231.028 133.58 231.367 133.674 231.614 133.864C231.862 134.053 232.038 134.303 232.142 134.614ZM235.06 138.091C234.64 138.091 234.277 137.998 233.972 137.812C233.669 137.625 233.435 137.364 233.271 137.028C233.108 136.691 233.026 136.299 233.026 135.852C233.026 135.405 233.108 135.011 233.271 134.67C233.435 134.328 233.665 134.061 233.958 133.869C234.254 133.676 234.598 133.58 234.992 133.58C235.219 133.58 235.444 133.617 235.665 133.693C235.887 133.769 236.089 133.892 236.271 134.062C236.452 134.231 236.597 134.455 236.705 134.733C236.813 135.011 236.867 135.354 236.867 135.761V136.045H233.504V135.466H236.185C236.185 135.22 236.136 135 236.038 134.807C235.941 134.614 235.803 134.461 235.623 134.349C235.445 134.238 235.235 134.182 234.992 134.182C234.725 134.182 234.494 134.248 234.299 134.381C234.106 134.511 233.957 134.682 233.853 134.892C233.749 135.102 233.697 135.328 233.697 135.568V135.955C233.697 136.284 233.754 136.563 233.867 136.793C233.983 137.02 234.143 137.193 234.347 137.312C234.552 137.43 234.79 137.489 235.06 137.489C235.237 137.489 235.396 137.464 235.538 137.415C235.682 137.364 235.806 137.288 235.91 137.188C236.014 137.085 236.094 136.958 236.151 136.807L236.799 136.989C236.731 137.208 236.616 137.402 236.455 137.568C236.294 137.733 236.095 137.862 235.859 137.955C235.622 138.045 235.356 138.091 235.06 138.091Z" fill="#6268FA"/>
<path d="M236.259 142.182V142.693C236.259 142.848 236.231 143.014 236.174 143.19C236.119 143.365 236.038 143.534 235.93 143.699C235.824 143.862 235.695 144.004 235.543 144.125L235.18 143.83C235.299 143.659 235.402 143.482 235.489 143.298C235.578 143.113 235.623 142.915 235.623 142.705V142.182H236.259ZM237.714 142.182V142.693C237.714 142.848 237.685 143.014 237.629 143.19C237.574 143.365 237.492 143.534 237.384 143.699C237.278 143.862 237.149 144.004 236.998 144.125L236.634 143.83C236.754 143.659 236.857 143.482 236.944 143.298C237.033 143.113 237.077 142.915 237.077 142.705V142.182H237.714ZM239.988 148.091C239.594 148.091 239.248 147.997 238.951 147.81C238.656 147.622 238.424 147.36 238.258 147.023C238.093 146.686 238.011 146.292 238.011 145.841C238.011 145.386 238.093 144.99 238.258 144.651C238.424 144.312 238.656 144.048 238.951 143.861C239.248 143.673 239.594 143.58 239.988 143.58C240.382 143.58 240.727 143.673 241.022 143.861C241.319 144.048 241.55 144.312 241.715 144.651C241.882 144.99 241.965 145.386 241.965 145.841C241.965 146.292 241.882 146.686 241.715 147.023C241.55 147.36 241.319 147.622 241.022 147.81C240.727 147.997 240.382 148.091 239.988 148.091ZM239.988 147.489C240.287 147.489 240.533 147.412 240.727 147.259C240.92 147.105 241.063 146.903 241.156 146.653C241.248 146.403 241.295 146.133 241.295 145.841C241.295 145.549 241.248 145.277 241.156 145.026C241.063 144.774 240.92 144.57 240.727 144.415C240.533 144.259 240.287 144.182 239.988 144.182C239.689 144.182 239.442 144.259 239.249 144.415C239.056 144.57 238.913 144.774 238.82 145.026C238.728 145.277 238.681 145.549 238.681 145.841C238.681 146.133 238.728 146.403 238.82 146.653C238.913 146.903 239.056 147.105 239.249 147.259C239.442 147.412 239.689 147.489 239.988 147.489ZM243.614 146.409L243.602 145.58H243.739L245.648 143.636H246.477L244.443 145.693H244.386L243.614 146.409ZM242.989 148V142.182H243.659V148H242.989ZM245.761 148L244.057 145.841L244.534 145.375L246.614 148H245.761ZM248.227 142.182L248.17 146.364H247.511L247.454 142.182H248.227ZM247.84 148.045C247.7 148.045 247.58 147.995 247.479 147.895C247.379 147.795 247.329 147.674 247.329 147.534C247.329 147.394 247.379 147.274 247.479 147.173C247.58 147.073 247.7 147.023 247.84 147.023C247.98 147.023 248.101 147.073 248.201 147.173C248.301 147.274 248.352 147.394 248.352 147.534C248.352 147.627 248.328 147.712 248.281 147.79C248.235 147.867 248.174 147.93 248.096 147.977C248.02 148.023 247.935 148.045 247.84 148.045ZM250.158 142.182V142.693C250.158 142.848 250.129 143.014 250.072 143.19C250.018 143.365 249.936 143.534 249.828 143.699C249.722 143.862 249.593 144.004 249.442 144.125L249.078 143.83C249.197 143.659 249.301 143.482 249.388 143.298C249.477 143.113 249.521 142.915 249.521 142.705V142.182H250.158ZM251.612 142.182V142.693C251.612 142.848 251.584 143.014 251.527 143.19C251.472 143.365 251.391 143.534 251.283 143.699C251.177 143.862 251.048 144.004 250.896 144.125L250.533 143.83C250.652 143.659 250.755 143.482 250.842 143.298C250.931 143.113 250.976 142.915 250.976 142.705V142.182H251.612Z" fill="#FF8E26"/>
<path d="M14.1562 18.0796V23.9029H13.4526V18.8189H13.4186L12 19.7629V19.0464L13.4526 18.0796H14.1562Z" fill="#ACACAC"/>
<path d="M19.9695 23.9825C19.542 23.9825 19.1779 23.8659 18.8772 23.6328C18.5765 23.3977 18.3466 23.0575 18.1878 22.612C18.0289 22.1646 17.9495 21.6244 17.9495 20.9913C17.9495 20.3619 18.0289 19.8245 18.1878 19.379C18.3485 18.9317 18.5793 18.5905 18.88 18.3554C19.1827 18.1185 19.5458 18 19.9695 18C20.3932 18 20.7554 18.1185 21.0561 18.3554C21.3587 18.5905 21.5895 18.9317 21.7484 19.379C21.9091 19.8245 21.9895 20.3619 21.9895 20.9913C21.9895 21.6244 21.9101 22.1646 21.7512 22.612C21.5923 23.0575 21.3625 23.3977 21.0618 23.6328C20.761 23.8659 20.3969 23.9825 19.9695 23.9825ZM19.9695 23.357C20.3932 23.357 20.7223 23.1522 20.9568 22.7428C21.1913 22.3333 21.3086 21.7495 21.3086 20.9913C21.3086 20.487 21.2547 20.0577 21.1469 19.7032C21.041 19.3487 20.8878 19.0786 20.6873 18.8928C20.4887 18.7071 20.2494 18.6142 19.9695 18.6142C19.5496 18.6142 19.2214 18.8217 18.985 19.2369C18.7486 19.6501 18.6304 20.2349 18.6304 20.9913C18.6304 21.4955 18.6833 21.9239 18.7892 22.2765C18.8952 22.629 19.0474 22.8973 19.246 23.0811C19.4465 23.265 19.6877 23.357 19.9695 23.357Z" fill="#ACACAC"/>
<path d="M27.2098 23.9825C26.7824 23.9825 26.4183 23.8659 26.1175 23.6328C25.8168 23.3977 25.587 23.0575 25.4281 22.612C25.2692 22.1646 25.1898 21.6244 25.1898 20.9913C25.1898 20.3619 25.2692 19.8245 25.4281 19.379C25.5889 18.9317 25.8196 18.5905 26.1204 18.3554C26.423 18.1185 26.7862 18 27.2098 18C27.6335 18 27.9957 18.1185 28.2964 18.3554C28.5991 18.5905 28.8298 18.9317 28.9887 19.379C29.1495 19.8245 29.2299 20.3619 29.2299 20.9913C29.2299 21.6244 29.1504 22.1646 28.9915 22.612C28.8327 23.0575 28.6029 23.3977 28.3021 23.6328C28.0014 23.8659 27.6373 23.9825 27.2098 23.9825ZM27.2098 23.357C27.6335 23.357 27.9626 23.1522 28.1972 22.7428C28.4317 22.3333 28.549 21.7495 28.549 20.9913C28.549 20.487 28.495 20.0577 28.3872 19.7032C28.2813 19.3487 28.1281 19.0786 27.9276 18.8928C27.729 18.7071 27.4898 18.6142 27.2098 18.6142C26.7899 18.6142 26.4618 18.8217 26.2253 19.2369C25.9889 19.6501 25.8707 20.2349 25.8707 20.9913C25.8707 21.4955 25.9237 21.9239 26.0296 22.2765C26.1355 22.629 26.2878 22.8973 26.4864 23.0811C26.6869 23.265 26.928 23.357 27.2098 23.357Z" fill="#ACACAC"/>
<path d="M34.4502 23.9825C34.0227 23.9825 33.6586 23.8659 33.3579 23.6328C33.0571 23.3977 32.8273 23.0575 32.6685 22.612C32.5096 22.1646 32.4301 21.6244 32.4301 20.9913C32.4301 20.3619 32.5096 19.8245 32.6685 19.379C32.8292 18.9317 33.06 18.5905 33.3607 18.3554C33.6633 18.1185 34.0265 18 34.4502 18C34.8739 18 35.2361 18.1185 35.5368 18.3554C35.8394 18.5905 36.0702 18.9317 36.2291 19.379C36.3898 19.8245 36.4702 20.3619 36.4702 20.9913C36.4702 21.6244 36.3908 22.1646 36.2319 22.612C36.073 23.0575 35.8432 23.3977 35.5425 23.6328C35.2417 23.8659 34.8776 23.9825 34.4502 23.9825ZM34.4502 23.357C34.8739 23.357 35.203 23.1522 35.4375 22.7428C35.672 22.3333 35.7893 21.7495 35.7893 20.9913C35.7893 20.487 35.7354 20.0577 35.6276 19.7032C35.5217 19.3487 35.3685 19.0786 35.168 18.8928C34.9694 18.7071 34.7301 18.6142 34.4502 18.6142C34.0303 18.6142 33.7021 18.8217 33.4657 19.2369C33.2293 19.6501 33.1111 20.2349 33.1111 20.9913C33.1111 21.4955 33.164 21.9239 33.2699 22.2765C33.3759 22.629 33.5281 22.8973 33.7267 23.0811C33.9272 23.265 34.1684 23.357 34.4502 23.357Z" fill="#ACACAC"/>
<path d="M41.8381 18.0796V23.9029H41.1344V18.8189H41.1004L39.6818 19.7629V19.0464L41.1344 18.0796H41.8381Z" fill="#ACACAC"/>
<path d="M47.6513 23.9825C47.2239 23.9825 46.8598 23.8659 46.559 23.6328C46.2583 23.3977 46.0285 23.0575 45.8696 22.612C45.7107 22.1646 45.6313 21.6244 45.6313 20.9913C45.6313 20.3619 45.7107 19.8245 45.8696 19.379C46.0304 18.9317 46.2611 18.5905 46.5619 18.3554C46.8645 18.1185 47.2276 18 47.6513 18C48.075 18 48.4372 18.1185 48.7379 18.3554C49.0406 18.5905 49.2713 18.9317 49.4302 19.379C49.591 19.8245 49.6714 20.3619 49.6714 20.9913C49.6714 21.6244 49.5919 22.1646 49.433 22.612C49.2742 23.0575 49.0443 23.3977 48.7436 23.6328C48.4429 23.8659 48.0788 23.9825 47.6513 23.9825ZM47.6513 23.357C48.075 23.357 48.4041 23.1522 48.6386 22.7428C48.8732 22.3333 48.9904 21.7495 48.9904 20.9913C48.9904 20.487 48.9365 20.0577 48.8287 19.7032C48.7228 19.3487 48.5696 19.0786 48.3691 18.8928C48.1705 18.7071 47.9312 18.6142 47.6513 18.6142C47.2314 18.6142 46.9033 18.8217 46.6668 19.2369C46.4304 19.6501 46.3122 20.2349 46.3122 20.9913C46.3122 21.4955 46.3652 21.9239 46.4711 22.2765C46.577 22.629 46.7293 22.8973 46.9279 23.0811C47.1283 23.265 47.3695 23.357 47.6513 23.357Z" fill="#ACACAC"/>
<path d="M55.0392 18.0796V23.9029H54.3356V18.8189H54.3015L52.883 19.7629V19.0464L54.3356 18.0796H55.0392Z" fill="#ACACAC"/>
<path d="M61 18.0796V23.9029H60.2964V18.8189H60.2623L58.8438 19.7629V19.0464L60.2964 18.0796H61Z" fill="#ACACAC"/>
<path d="M14.1562 28.0884V33.9116H13.4526V28.8276H13.4186L12 29.7717V29.0551L13.4526 28.0884H14.1562Z" fill="#ACACAC"/>
<path d="M19.9695 33.9913C19.542 33.9913 19.1779 33.8747 18.8772 33.6415C18.5765 33.4065 18.3466 33.0662 18.1878 32.6207C18.0289 32.1734 17.9495 31.6331 17.9495 31C17.9495 30.3707 18.0289 29.8333 18.1878 29.3878C18.3485 28.9404 18.5793 28.5992 18.88 28.3642C19.1827 28.1272 19.5458 28.0087 19.9695 28.0087C20.3932 28.0087 20.7554 28.1272 21.0561 28.3642C21.3587 28.5992 21.5895 28.9404 21.7484 29.3878C21.9091 29.8333 21.9895 30.3707 21.9895 31C21.9895 31.6331 21.9101 32.1734 21.7512 32.6207C21.5923 33.0662 21.3625 33.4065 21.0618 33.6415C20.761 33.8747 20.3969 33.9913 19.9695 33.9913ZM19.9695 33.3657C20.3932 33.3657 20.7223 33.161 20.9568 32.7515C21.1913 32.3421 21.3086 31.7582 21.3086 31C21.3086 30.4958 21.2547 30.0664 21.1469 29.7119C21.041 29.3575 20.8878 29.0873 20.6873 28.9016C20.4887 28.7158 20.2494 28.6229 19.9695 28.6229C19.5496 28.6229 19.2214 28.8305 18.985 29.2456C18.7486 29.6589 18.6304 30.2437 18.6304 31C18.6304 31.5042 18.6833 31.9326 18.7892 32.2852C18.8952 32.6378 19.0474 32.906 19.246 33.0899C19.4465 33.2738 19.6877 33.3657 19.9695 33.3657Z" fill="#ACACAC"/>
<path d="M27.3574 28.0884V33.9116H26.6538V28.8276H26.6197L25.2011 29.7717V29.0551L26.6538 28.0884H27.3574Z" fill="#ACACAC"/>
<path d="M33.3182 28.0884V33.9116H32.6146V28.8276H32.5805L31.1619 29.7717V29.0551L32.6146 28.0884H33.3182Z" fill="#ACACAC"/>
<path d="M39.1314 33.9913C38.704 33.9913 38.3399 33.8747 38.0391 33.6415C37.7384 33.4065 37.5086 33.0662 37.3497 32.6207C37.1908 32.1734 37.1114 31.6331 37.1114 31C37.1114 30.3707 37.1908 29.8333 37.3497 29.3878C37.5105 28.9404 37.7412 28.5992 38.042 28.3642C38.3446 28.1272 38.7078 28.0087 39.1314 28.0087C39.5551 28.0087 39.9173 28.1272 40.2181 28.3642C40.5207 28.5992 40.7514 28.9404 40.9103 29.3878C41.0711 29.8333 41.1515 30.3707 41.1515 31C41.1515 31.6331 41.072 32.1734 40.9131 32.6207C40.7543 33.0662 40.5245 33.4065 40.2237 33.6415C39.923 33.8747 39.5589 33.9913 39.1314 33.9913ZM39.1314 33.3657C39.5551 33.3657 39.8842 33.161 40.1188 32.7515C40.3533 32.3421 40.4706 31.7582 40.4706 31C40.4706 30.4958 40.4167 30.0664 40.3088 29.7119C40.2029 29.3575 40.0497 29.0873 39.8492 28.9016C39.6506 28.7158 39.4114 28.6229 39.1314 28.6229C38.7115 28.6229 38.3834 28.8305 38.147 29.2456C37.9105 29.6589 37.7923 30.2437 37.7923 31C37.7923 31.5042 37.8453 31.9326 37.9512 32.2852C38.0571 32.6378 38.2094 32.906 38.408 33.0899C38.6085 33.2738 38.8496 33.3657 39.1314 33.3657Z" fill="#ACACAC"/>
<path d="M46.3718 33.9913C45.9443 33.9913 45.5802 33.8747 45.2795 33.6415C44.9787 33.4065 44.7489 33.0662 44.5901 32.6207C44.4312 32.1734 44.3517 31.6331 44.3517 31C44.3517 30.3707 44.4312 29.8333 44.5901 29.3878C44.7508 28.9404 44.9816 28.5992 45.2823 28.3642C45.5849 28.1272 45.9481 28.0087 46.3718 28.0087C46.7955 28.0087 47.1577 28.1272 47.4584 28.3642C47.761 28.5992 47.9918 28.9404 48.1507 29.3878C48.3114 29.8333 48.3918 30.3707 48.3918 31C48.3918 31.6331 48.3124 32.1734 48.1535 32.6207C47.9946 33.0662 47.7648 33.4065 47.4641 33.6415C47.1633 33.8747 46.7992 33.9913 46.3718 33.9913ZM46.3718 33.3657C46.7955 33.3657 47.1246 33.161 47.3591 32.7515C47.5936 32.3421 47.7109 31.7582 47.7109 31C47.7109 30.4958 47.657 30.0664 47.5492 29.7119C47.4433 29.3575 47.2901 29.0873 47.0896 28.9016C46.891 28.7158 46.6517 28.6229 46.3718 28.6229C45.9519 28.6229 45.6237 28.8305 45.3873 29.2456C45.1509 29.6589 45.0327 30.2437 45.0327 31C45.0327 31.5042 45.0856 31.9326 45.1915 32.2852C45.2975 32.6378 45.4497 32.906 45.6483 33.0899C45.8488 33.2738 46.09 33.3657 46.3718 33.3657Z" fill="#ACACAC"/>
<path d="M53.6121 33.9913C53.1847 33.9913 52.8206 33.8747 52.5198 33.6415C52.2191 33.4065 51.9893 33.0662 51.8304 32.6207C51.6715 32.1734 51.5921 31.6331 51.5921 31C51.5921 30.3707 51.6715 29.8333 51.8304 29.3878C51.9912 28.9404 52.2219 28.5992 52.5227 28.3642C52.8253 28.1272 53.1884 28.0087 53.6121 28.0087C54.0358 28.0087 54.398 28.1272 54.6987 28.3642C55.0014 28.5992 55.2321 28.9404 55.391 29.3878C55.5518 29.8333 55.6322 30.3707 55.6322 31C55.6322 31.6331 55.5527 32.1734 55.3938 32.6207C55.235 33.0662 55.0051 33.4065 54.7044 33.6415C54.4037 33.8747 54.0396 33.9913 53.6121 33.9913ZM53.6121 33.3657C54.0358 33.3657 54.3649 33.161 54.5994 32.7515C54.834 32.3421 54.9512 31.7582 54.9512 31C54.9512 30.4958 54.8973 30.0664 54.7895 29.7119C54.6836 29.3575 54.5304 29.0873 54.3299 28.9016C54.1313 28.7158 53.8921 28.6229 53.6121 28.6229C53.1922 28.6229 52.8641 28.8305 52.6276 29.2456C52.3912 29.6589 52.273 30.2437 52.273 31C52.273 31.5042 52.326 31.9326 52.4319 32.2852C52.5378 32.6378 52.6901 32.906 52.8887 33.0899C53.0891 33.2738 53.3303 33.3657 53.6121 33.3657Z" fill="#ACACAC"/>
<path d="M61 28.0884V33.9116H60.2964V28.8276H60.2623L58.8438 29.7717V29.0551L60.2964 28.0884H61Z" fill="#ACACAC"/>
<path d="M14.1562 38.0971V43.9204H13.4526V38.8364H13.4186L12 39.7804V39.0639L13.4526 38.0971H14.1562Z" fill="#ACACAC"/>
<path d="M20.117 38.0971V43.9204H19.4134V38.8364H19.3794L17.9608 39.7804V39.0639L19.4134 38.0971H20.117Z" fill="#ACACAC"/>
<path d="M26.0778 38.0971V43.9204H25.3742V38.8364H25.3402L23.9216 39.7804V39.0639L25.3742 38.0971H26.0778Z" fill="#ACACAC"/>
<path d="M31.8911 44C31.4636 44 31.0995 43.8834 30.7988 43.6503C30.4981 43.4152 30.2683 43.075 30.1094 42.6295C29.9505 42.1821 29.8711 41.6419 29.8711 41.0087C29.8711 40.3794 29.9505 39.842 30.1094 39.3965C30.2701 38.9492 30.5009 38.608 30.8016 38.3729C31.1043 38.136 31.4674 38.0175 31.8911 38.0175C32.3148 38.0175 32.677 38.136 32.9777 38.3729C33.2803 38.608 33.5111 38.9492 33.67 39.3965C33.8307 39.842 33.9111 40.3794 33.9111 41.0087C33.9111 41.6419 33.8317 42.1821 33.6728 42.6295C33.5139 43.075 33.2841 43.4152 32.9834 43.6503C32.6826 43.8834 32.3185 44 31.8911 44ZM31.8911 43.3745C32.3148 43.3745 32.6439 43.1697 32.8784 42.7603C33.1129 42.3508 33.2302 41.767 33.2302 41.0087C33.2302 40.5045 33.1763 40.0752 33.0685 39.7207C32.9626 39.3662 32.8094 39.0961 32.6089 38.9103C32.4103 38.7246 32.171 38.6317 31.8911 38.6317C31.4712 38.6317 31.143 38.8392 30.9066 39.2544C30.6702 39.6676 30.552 40.2524 30.552 41.0087C30.552 41.513 30.6049 41.9414 30.7108 42.294C30.8168 42.6465 30.969 42.9148 31.1676 43.0986C31.3681 43.2825 31.6093 43.3745 31.8911 43.3745Z" fill="#ACACAC"/>
<path d="M39.279 38.0971V43.9204H38.5754V38.8364H38.5413L37.1227 39.7804V39.0639L38.5754 38.0971H39.279Z" fill="#ACACAC"/>
<path d="M45.0922 44C44.6648 44 44.3007 43.8834 43.9999 43.6503C43.6992 43.4152 43.4694 43.075 43.3105 42.6295C43.1516 42.1821 43.0722 41.6419 43.0722 41.0087C43.0722 40.3794 43.1516 39.842 43.3105 39.3965C43.4713 38.9492 43.702 38.608 44.0028 38.3729C44.3054 38.136 44.6686 38.0175 45.0922 38.0175C45.5159 38.0175 45.8781 38.136 46.1789 38.3729C46.4815 38.608 46.7122 38.9492 46.8711 39.3965C47.0319 39.842 47.1123 40.3794 47.1123 41.0087C47.1123 41.6419 47.0328 42.1821 46.8739 42.6295C46.7151 43.075 46.4853 43.4152 46.1845 43.6503C45.8838 43.8834 45.5197 44 45.0922 44ZM45.0922 43.3745C45.5159 43.3745 45.845 43.1697 46.0796 42.7603C46.3141 42.3508 46.4314 41.767 46.4314 41.0087C46.4314 40.5045 46.3775 40.0752 46.2696 39.7207C46.1637 39.3662 46.0105 39.0961 45.81 38.9103C45.6114 38.7246 45.3722 38.6317 45.0922 38.6317C44.6723 38.6317 44.3442 38.8392 44.1078 39.2544C43.8713 39.6676 43.7531 40.2524 43.7531 41.0087C43.7531 41.513 43.8061 41.9414 43.912 42.294C44.0179 42.6465 44.1702 42.9148 44.3688 43.0986C44.5693 43.2825 44.8104 43.3745 45.0922 43.3745Z" fill="#ACACAC"/>
<path d="M52.4801 38.0971V43.9204H51.7765V38.8364H51.7425L50.3239 39.7804V39.0639L51.7765 38.0971H52.4801Z" fill="#ACACAC"/>
<path d="M58.2934 44C57.8659 44 57.5018 43.8834 57.2011 43.6503C56.9003 43.4152 56.6705 43.075 56.5117 42.6295C56.3528 42.1821 56.2733 41.6419 56.2733 41.0087C56.2733 40.3794 56.3528 39.842 56.5117 39.3965C56.6724 38.9492 56.9032 38.608 57.2039 38.3729C57.5066 38.136 57.8697 38.0175 58.2934 38.0175C58.7171 38.0175 59.0793 38.136 59.38 38.3729C59.6826 38.608 59.9134 38.9492 60.0723 39.3965C60.233 39.842 60.3134 40.3794 60.3134 41.0087C60.3134 41.6419 60.234 42.1821 60.0751 42.6295C59.9162 43.075 59.6864 43.4152 59.3857 43.6503C59.0849 43.8834 58.7208 44 58.2934 44ZM58.2934 43.3745C58.7171 43.3745 59.0462 43.1697 59.2807 42.7603C59.5152 42.3508 59.6325 41.767 59.6325 41.0087C59.6325 40.5045 59.5786 40.0752 59.4708 39.7207C59.3649 39.3662 59.2117 39.0961 59.0112 38.9103C58.8126 38.7246 58.5733 38.6317 58.2934 38.6317C57.8735 38.6317 57.5453 38.8392 57.3089 39.2544C57.0725 39.6676 56.9543 40.2524 56.9543 41.0087C56.9543 41.513 57.0072 41.9414 57.1131 42.294C57.2191 42.6465 57.3713 42.9148 57.5699 43.0986C57.7704 43.2825 58.0116 43.3745 58.2934 43.3745Z" fill="#ACACAC"/>
<rect x="105.5" y="58.5" width="55" height="13.1667" rx="1.5" fill="#D9D9D9" stroke="#C0C0C0"/>
<rect x="105.5" y="89.6667" width="55" height="13.1667" rx="1.5" fill="#D9D9D9" stroke="#C0C0C0"/>
<rect x="105.5" y="74.0833" width="55" height="13.1667" rx="1.5" fill="#D9D9D9" stroke="#C0C0C0"/>
<line x1="132.782" y1="103.333" x2="132.782" y2="116.083" stroke="#434343"/>
<line x1="115.051" y1="121.25" x2="127.974" y2="121.25" stroke="#434343"/>
<line x1="138.026" y1="121.25" x2="150.949" y2="121.25" stroke="#434343"/>
<line x1="132.282" y1="97.1667" x2="155.256" y2="97.1667" stroke="#8A8A8A"/>
<line x1="132.282" y1="66" x2="155.256" y2="66" stroke="#8A8A8A"/>
<line x1="132.282" y1="81.5833" x2="155.256" y2="81.5833" stroke="#8A8A8A"/>
<path d="M137.526 121.042C137.526 123.498 135.506 125.5 133 125.5C130.494 125.5 128.474 123.498 128.474 121.042C128.474 118.586 130.494 116.583 133 116.583C135.506 116.583 137.526 118.586 137.526 121.042Z" fill="#D9D9D9" stroke="#C0C0C0"/>
<path d="M160.5 121.042C160.5 123.498 158.48 125.5 155.974 125.5C153.469 125.5 151.449 123.498 151.449 121.042C151.449 118.586 153.469 116.583 155.974 116.583C158.48 116.583 160.5 118.586 160.5 121.042Z" fill="#D9D9D9" stroke="#C0C0C0"/>
<path d="M114.551 121.042C114.551 123.498 112.531 125.5 110.026 125.5C107.52 125.5 105.5 123.498 105.5 121.042C105.5 118.586 107.52 116.583 110.026 116.583C112.531 116.583 114.551 118.586 114.551 121.042Z" fill="#D9D9D9" stroke="#C0C0C0"/>
<ellipse cx="120.795" cy="65.0833" rx="2.87179" ry="2.83333" fill="#FFA726"/>
<ellipse cx="112.179" cy="65.0833" rx="2.87179" ry="2.83333" fill="#2FC822"/>
<ellipse cx="120.795" cy="96.25" rx="2.87179" ry="2.83333" fill="#FFA726"/>
<ellipse cx="112.179" cy="96.25" rx="2.87179" ry="2.83333" fill="#2FC822"/>
<ellipse cx="120.795" cy="80.6667" rx="2.87179" ry="2.83333" fill="#FFA726"/>
<ellipse cx="112.179" cy="80.6667" rx="2.87179" ry="2.83333" fill="#2FC822"/>
</svg>
