<svg width="260" height="175" viewBox="0 0 260 175" fill="none" xmlns="http://www.w3.org/2000/svg">
<rect width="260" height="175" fill="white"/>
<g clip-path="url(#clip0_1_7)">
<path d="M160.989 59.0417L156.435 109.299L135.964 114.89L115.549 109.307L111 59.0417H160.989Z" fill="#264DE4"/>
<path d="M152.536 106.099L156.428 63.1517H135.995V110.616L152.536 106.099Z" fill="#2965F1"/>
<path d="M121.429 81.7943L121.99 87.959H135.995V81.7943H121.429Z" fill="#EBEBEB"/>
<path d="M135.995 69.3165H135.973H120.302L120.871 75.4814H135.995V69.3165Z" fill="#EBEBEB"/>
<path d="M135.995 104.219V97.8051L135.967 97.8122L128.997 95.9583L128.552 91.0415H125.165H122.27L123.146 100.721L135.966 104.227L135.995 104.219Z" fill="#EBEBEB"/>
<path d="M143.679 87.959L142.953 95.9544L135.973 97.8102V104.224L148.802 100.721L148.897 99.6797L150.367 83.4497L150.52 81.7943L151.65 69.3165H135.973V75.4814H144.791L144.222 81.7943H135.973V87.959H143.679Z" fill="white"/>
</g>
<g clip-path="url(#clip1_1_7)">
<path d="M185 31H235V81H185V31Z" fill="#F0DB4F"/>
<path d="M230.908 69.0751C230.542 66.7937 229.054 64.8783 224.648 63.0913C223.118 62.3878 221.412 61.8841 220.903 60.7243C220.722 60.0494 220.699 59.6692 220.813 59.2605C221.141 57.9344 222.723 57.5209 223.978 57.9011C224.786 58.1721 225.551 58.7947 226.012 59.788C228.17 58.3907 228.165 58.4002 229.672 57.4402C229.121 56.5847 228.826 56.1901 228.465 55.8242C227.167 54.3746 225.399 53.6284 222.571 53.6854C222.082 53.7472 221.587 53.8137 221.098 53.8755C219.686 54.232 218.341 54.9734 217.552 55.9668C215.185 58.6521 215.86 63.3527 218.74 65.2871C221.578 67.4164 225.746 67.9012 226.279 69.8926C226.797 72.3308 224.487 73.1198 222.191 72.8394C220.499 72.4877 219.558 71.6274 218.541 70.0637C216.668 71.1474 216.668 71.1474 214.743 72.2548C215.2 73.2529 215.68 73.7044 216.445 74.5694C220.067 78.2434 229.13 78.0628 230.756 72.502C230.822 72.3118 231.26 71.038 230.908 69.0751ZM212.182 53.98H207.505C207.505 58.02 207.486 62.0314 207.486 66.0713C207.486 68.6426 207.619 71 207.201 71.7224C206.516 73.1435 204.743 72.9677 203.935 72.692C203.113 72.288 202.695 71.7129 202.21 70.9002C202.077 70.6673 201.977 70.4867 201.944 70.4724C200.675 71.2472 199.411 72.0266 198.142 72.8013C198.774 74.0989 199.705 75.2253 200.898 75.9572C202.681 77.0266 205.076 77.3545 207.581 76.7794C209.211 76.3041 210.618 75.3203 211.355 73.8232C212.419 71.8603 212.191 69.4838 212.182 66.8555C212.205 62.5684 212.182 58.2814 212.182 53.98Z" fill="#323330"/>
</g>
<g clip-path="url(#clip2_1_7)">
<path d="M41.5455 137.346L37 87H86.9724L82.427 137.318L61.9449 142.918" fill="#E44D26"/>
<path d="M61.9862 138.637V91.132H82.4132L78.5151 134.083" fill="#F16529"/>
<path d="M46.2837 97.2893H61.9862V103.46H53.1432L53.7218 109.781H61.9862V115.938H47.9917M48.2672 119.037H54.5482L54.989 123.971L61.9862 125.819V132.262L49.1488 128.728" fill="#EBEBEB"/>
<path d="M77.6336 97.2893H61.9587V103.46H77.0551M76.4904 109.781H61.9587V115.951H69.6722L68.9422 123.971L61.9587 125.819V132.235L74.7686 128.728" fill="white"/>
</g>
<circle cx="37.5" cy="17.5" r="9.5" transform="rotate(-180 37.5 17.5)" fill="#24BBCB"/>
<path d="M184 116C184 110.753 188.253 106.5 193.5 106.5C198.747 106.5 203 110.753 203 116C203 121.247 198.747 125.5 193.5 125.5C188.253 125.5 184 121.247 184 116Z" fill="#E4BFF5"/>
<circle cx="244.5" cy="152.5" r="9.5" transform="rotate(-180 244.5 152.5)" fill="#FFF59D"/>
<circle cx="15.5" cy="72.5" r="9.5" transform="rotate(-180 15.5 72.5)" fill="#F3B881"/>
<path d="M94 22.5C94 17.2533 98.2533 13 103.5 13C108.747 13 113 17.2533 113 22.5C113 27.7467 108.747 32 103.5 32C98.2533 32 94 27.7467 94 22.5Z" fill="#E0C06C"/>
<path d="M226 17.5C226 12.2533 230.253 8 235.5 8C240.747 8 245 12.2533 245 17.5C245 22.7467 240.747 27 235.5 27C230.253 27 226 22.7467 226 17.5Z" fill="#A7EDBA"/>
<circle cx="24.5" cy="162.5" r="9.5" transform="rotate(-180 24.5 162.5)" fill="#ECD5FF"/>
<circle cx="120.5" cy="156.5" r="9.5" transform="rotate(-180 120.5 156.5)" fill="#E57373"/>
<defs>
<clipPath id="clip0_1_7">
<rect width="50" height="56" fill="white" transform="translate(111 59)"/>
</clipPath>
<clipPath id="clip1_1_7">
<rect width="50" height="50" fill="white" transform="translate(185 31)"/>
</clipPath>
<clipPath id="clip2_1_7">
<rect width="50" height="56" fill="white" transform="translate(37 87)"/>
</clipPath>
</defs>
</svg>
