<svg width="260" height="175" viewBox="0 0 260 175" fill="none" xmlns="http://www.w3.org/2000/svg">
<path d="M97.4171 65.9447L97.0065 65.6168H96.4811H95C91.4153 65.6168 88.5 62.6987 88.5 59.0876V43.0292C88.5 39.4181 91.4153 36.5 95 36.5H127C130.585 36.5 133.5 39.4181 133.5 43.0292V59.0876C133.5 62.6987 130.585 65.6168 127 65.6168H106.323H104.081L104.936 67.6889L107.558 74.0435L97.4171 65.9447Z" fill="#FFFBD3" stroke="#90CAF9" stroke-width="3"/>
<path d="M89.5829 58.9447L89.9935 58.6168H90.5189H92C95.5847 58.6168 98.5 55.6987 98.5 52.0876V36.0292C98.5 32.4181 95.5847 29.5 92 29.5H60C56.4153 29.5 53.5 32.4181 53.5 36.0292V52.0876C53.5 55.6987 56.4153 58.6168 60 58.6168H80.6771H82.9187L82.0637 60.6889L79.4416 67.0435L89.5829 58.9447Z" fill="#FFFBD3" stroke="#E57373" stroke-width="3"/>
<path d="M134.417 58.9447L134.007 58.6168H133.481H132C128.415 58.6168 125.5 55.6987 125.5 52.0876V36.0292C125.5 32.4181 128.415 29.5 132 29.5H164C167.585 29.5 170.5 32.4181 170.5 36.0292V52.0876C170.5 55.6987 167.585 58.6168 164 58.6168H143.323H141.081L141.936 60.6889L144.558 67.0435L134.417 58.9447Z" fill="#FFFBD3" stroke="#24BBCB" stroke-width="3"/>
<path d="M197.583 66.9447L197.993 66.6168H198.519H200C203.585 66.6168 206.5 63.6987 206.5 60.0876V44.0292C206.5 40.4181 203.585 37.5 200 37.5H168C164.415 37.5 161.5 40.4181 161.5 44.0292V60.0876C161.5 63.6987 164.415 66.6168 168 66.6168H188.677H190.919L190.064 68.6889L187.442 75.0435L197.583 66.9447Z" fill="#FFFBD3" stroke="#2196F3" stroke-width="3"/>
<path d="M80.1406 38.5039H73.2852V42.8984H79.0156C79.5469 42.8984 79.9414 43.0195 80.1992 43.2617C80.4648 43.4961 80.5977 43.8125 80.5977 44.2109C80.5977 44.6094 80.4648 44.9258 80.1992 45.1602C79.9336 45.3945 79.5391 45.5117 79.0156 45.5117H73.2852V51.1719C73.2852 51.8906 73.1211 52.4258 72.793 52.7773C72.4727 53.1211 72.0586 53.293 71.5508 53.293C71.0352 53.293 70.6133 53.1172 70.2852 52.7656C69.9648 52.4141 69.8047 51.8828 69.8047 51.1719V37.9531C69.8047 37.4531 69.8789 37.0469 70.0273 36.7344C70.1758 36.4141 70.4062 36.1836 70.7188 36.043C71.0391 35.8945 71.4453 35.8203 71.9375 35.8203H80.1406C80.6953 35.8203 81.1055 35.9453 81.3711 36.1953C81.6445 36.4375 81.7812 36.7578 81.7812 37.1562C81.7812 37.5625 81.6445 37.8906 81.3711 38.1406C81.1055 38.3828 80.6953 38.5039 80.1406 38.5039Z" fill="#5A5A5A"/>
<path d="M169.781 59.7656C169.297 59.7656 168.879 59.6094 168.527 59.2969C168.176 58.9844 168 58.5469 168 57.9844C168 57.5078 168.168 57.0977 168.504 56.7539C168.84 56.4102 169.254 56.2383 169.746 56.2383C170.238 56.2383 170.656 56.4102 171 56.7539C171.352 57.0898 171.527 57.5 171.527 57.9844C171.527 58.5391 171.352 58.9766 171 59.2969C170.656 59.6094 170.25 59.7656 169.781 59.7656Z" fill="#5A5A5A"/>
<path d="M177.305 59.7656C176.82 59.7656 176.402 59.6094 176.051 59.2969C175.699 58.9844 175.523 58.5469 175.523 57.9844C175.523 57.5078 175.691 57.0977 176.027 56.7539C176.363 56.4102 176.777 56.2383 177.27 56.2383C177.762 56.2383 178.18 56.4102 178.523 56.7539C178.875 57.0898 179.051 57.5 179.051 57.9844C179.051 58.5391 178.875 58.9766 178.523 59.2969C178.18 59.6094 177.773 59.7656 177.305 59.7656Z" fill="#5A5A5A"/>
<path d="M184.828 59.7656C184.344 59.7656 183.926 59.6094 183.574 59.2969C183.223 58.9844 183.047 58.5469 183.047 57.9844C183.047 57.5078 183.215 57.0977 183.551 56.7539C183.887 56.4102 184.301 56.2383 184.793 56.2383C185.285 56.2383 185.703 56.4102 186.047 56.7539C186.398 57.0898 186.574 57.5 186.574 57.9844C186.574 58.5391 186.398 58.9766 186.047 59.2969C185.703 59.6094 185.297 59.7656 184.828 59.7656Z" fill="#5A5A5A"/>
<path d="M189.633 46.8984C189.633 46.1562 189.871 45.4062 190.348 44.6484C190.824 43.8828 191.52 43.25 192.434 42.75C193.348 42.25 194.414 42 195.633 42C196.766 42 197.766 42.2109 198.633 42.6328C199.5 43.0469 200.168 43.6133 200.637 44.332C201.113 45.0508 201.352 45.832 201.352 46.6758C201.352 47.3398 201.215 47.9219 200.941 48.4219C200.676 48.9219 200.355 49.3555 199.98 49.7227C199.613 50.082 198.949 50.6914 197.988 51.5508C197.723 51.793 197.508 52.0078 197.344 52.1953C197.188 52.375 197.07 52.543 196.992 52.6992C196.914 52.8477 196.852 53 196.805 53.1562C196.766 53.3047 196.703 53.5703 196.617 53.9531C196.469 54.7656 196.004 55.1719 195.223 55.1719C194.816 55.1719 194.473 55.0391 194.191 54.7734C193.918 54.5078 193.781 54.1133 193.781 53.5898C193.781 52.9336 193.883 52.3672 194.086 51.8906C194.289 51.4062 194.559 50.9844 194.895 50.625C195.23 50.2578 195.684 49.8242 196.254 49.3242C196.754 48.8867 197.113 48.5586 197.332 48.3398C197.559 48.1133 197.746 47.8633 197.895 47.5898C198.051 47.3164 198.129 47.0195 198.129 46.6992C198.129 46.0742 197.895 45.5469 197.426 45.1172C196.965 44.6875 196.367 44.4727 195.633 44.4727C194.773 44.4727 194.141 44.6914 193.734 45.1289C193.328 45.5586 192.984 46.1953 192.703 47.0391C192.438 47.9219 191.934 48.3633 191.191 48.3633C190.754 48.3633 190.383 48.2109 190.078 47.9062C189.781 47.5938 189.633 47.2578 189.633 46.8984ZM195.352 59.7422C194.875 59.7422 194.457 59.5898 194.098 59.2852C193.746 58.9727 193.57 58.5391 193.57 57.9844C193.57 57.4922 193.742 57.0781 194.086 56.7422C194.43 56.4062 194.852 56.2383 195.352 56.2383C195.844 56.2383 196.258 56.4062 196.594 56.7422C196.93 57.0781 197.098 57.4922 197.098 57.9844C197.098 58.5312 196.922 58.9609 196.57 59.2734C196.219 59.5859 195.812 59.7422 195.352 59.7422Z" fill="#5A5A5A"/>
<path d="M151.691 49.8672C152.199 50.2109 152.754 50.5469 153.355 50.875C153.957 51.1953 154.355 51.4531 154.551 51.6484C154.746 51.8359 154.844 52.1055 154.844 52.457C154.844 52.707 154.727 52.957 154.492 53.207C154.266 53.457 153.988 53.582 153.66 53.582C153.395 53.582 153.07 53.4961 152.688 53.3242C152.312 53.1523 151.867 52.9023 151.352 52.5742C150.844 52.2461 150.285 51.8633 149.676 51.4258C148.543 52.0039 147.152 52.293 145.504 52.293C144.168 52.293 142.969 52.082 141.906 51.6602C140.852 51.2305 139.965 50.6172 139.246 49.8203C138.527 49.0156 137.984 48.0625 137.617 46.9609C137.258 45.8594 137.078 44.6602 137.078 43.3633C137.078 42.043 137.266 40.832 137.641 39.7305C138.023 38.6289 138.574 37.6914 139.293 36.918C140.012 36.1445 140.887 35.5547 141.918 35.1484C142.949 34.7344 144.121 34.5273 145.434 34.5273C147.215 34.5273 148.742 34.8906 150.016 35.6172C151.297 36.3359 152.266 37.3633 152.922 38.6992C153.578 40.0273 153.906 41.5898 153.906 43.3867C153.906 46.1133 153.168 48.2734 151.691 49.8672ZM148.961 47.9688C149.445 47.4141 149.801 46.7578 150.027 46C150.262 45.2422 150.379 44.3633 150.379 43.3633C150.379 42.1055 150.176 41.0156 149.77 40.0938C149.363 39.1719 148.781 38.4766 148.023 38.0078C147.273 37.5312 146.41 37.293 145.434 37.293C144.738 37.293 144.094 37.4258 143.5 37.6914C142.914 37.9492 142.406 38.3281 141.977 38.8281C141.555 39.3281 141.219 39.9688 140.969 40.75C140.727 41.5234 140.605 42.3945 140.605 43.3633C140.605 45.3398 141.066 46.8633 141.988 47.9336C142.91 48.9961 144.074 49.5273 145.48 49.5273C146.059 49.5273 146.652 49.4062 147.262 49.1641C146.895 48.8906 146.434 48.6172 145.879 48.3438C145.332 48.0703 144.957 47.8594 144.754 47.7109C144.551 47.5625 144.449 47.3516 144.449 47.0781C144.449 46.8438 144.547 46.6367 144.742 46.457C144.938 46.2773 145.152 46.1875 145.387 46.1875C146.098 46.1875 147.289 46.7812 148.961 47.9688Z" fill="#5A5A5A"/>
<path d="M115.223 56.5273L114.402 54.3711H107.418L106.598 56.5742C106.277 57.4336 106.004 58.0156 105.777 58.3203C105.551 58.6172 105.18 58.7656 104.664 58.7656C104.227 58.7656 103.84 58.6055 103.504 58.2852C103.168 57.9648 103 57.6016 103 57.1953C103 56.9609 103.039 56.7188 103.117 56.4688C103.195 56.2188 103.324 55.8711 103.504 55.4258L107.898 44.2695C108.023 43.9492 108.172 43.5664 108.344 43.1211C108.523 42.668 108.711 42.293 108.906 41.9961C109.109 41.6992 109.371 41.4609 109.691 41.2812C110.02 41.0938 110.422 41 110.898 41C111.383 41 111.785 41.0938 112.105 41.2812C112.434 41.4609 112.695 41.6953 112.891 41.9844C113.094 42.2734 113.262 42.5859 113.395 42.9219C113.535 43.25 113.711 43.6914 113.922 44.2461L118.41 55.332C118.762 56.1758 118.938 56.7891 118.938 57.1719C118.938 57.5703 118.77 57.9375 118.434 58.2734C118.105 58.6016 117.707 58.7656 117.238 58.7656C116.965 58.7656 116.73 58.7148 116.535 58.6133C116.34 58.5195 116.176 58.3906 116.043 58.2266C115.91 58.0547 115.766 57.7969 115.609 57.4531C115.461 57.1016 115.332 56.793 115.223 56.5273ZM108.332 51.7578H113.465L110.875 44.668L108.332 51.7578Z" fill="#5A5A5A"/>
<mask id="path-9-inside-1_4_46" fill="white">
<path fill-rule="evenodd" clip-rule="evenodd" d="M107.867 141C122.226 141 133.867 129.359 133.867 115C133.867 100.641 122.226 89 107.867 89C93.5077 89 81.8671 100.641 81.8671 115C81.8671 117.587 82.245 120.086 82.9486 122.445C83.1715 123.192 82.987 124.009 82.4288 124.553L77.9692 128.9C77.9012 128.967 77.838 129.038 77.7801 129.113L71.4228 137.378C70.2616 138.887 71.668 141.012 73.5113 140.533L86.8516 137.064C87.016 137.022 87.1851 137 87.3549 137H93.4257C93.8037 137 94.1729 137.109 94.4969 137.303C98.4036 139.65 102.978 141 107.867 141Z"/>
</mask>
<path fill-rule="evenodd" clip-rule="evenodd" d="M107.867 141C122.226 141 133.867 129.359 133.867 115C133.867 100.641 122.226 89 107.867 89C93.5077 89 81.8671 100.641 81.8671 115C81.8671 117.587 82.245 120.086 82.9486 122.445C83.1715 123.192 82.987 124.009 82.4288 124.553L77.9692 128.9C77.9012 128.967 77.838 129.038 77.7801 129.113L71.4228 137.378C70.2616 138.887 71.668 141.012 73.5113 140.533L86.8516 137.064C87.016 137.022 87.1851 137 87.3549 137H93.4257C93.8037 137 94.1729 137.109 94.4969 137.303C98.4036 139.65 102.978 141 107.867 141Z" fill="#FFFBD3"/>
<path d="M94.4969 137.303L96.0419 134.732L94.4969 137.303ZM86.8516 137.064L87.6065 139.968L86.8516 137.064ZM71.4228 137.378L69.045 135.548L71.4228 137.378ZM73.5113 140.533L72.7565 137.629L72.7565 137.629L73.5113 140.533ZM77.9692 128.9L75.8751 126.752L77.9692 128.9ZM77.7801 129.113L80.158 130.942L77.7801 129.113ZM82.4288 124.553L84.523 126.701L82.4288 124.553ZM130.867 115C130.867 127.703 120.57 138 107.867 138V144C123.883 144 136.867 131.016 136.867 115H130.867ZM107.867 92C120.57 92 130.867 102.297 130.867 115H136.867C136.867 98.9837 123.883 86 107.867 86V92ZM84.8671 115C84.8671 102.297 95.1645 92 107.867 92V86C91.8508 86 78.8671 98.9837 78.8671 115H84.8671ZM85.8234 121.587C85.2019 119.504 84.8671 117.294 84.8671 115H78.8671C78.8671 117.881 79.2881 120.669 80.0738 123.302L85.8234 121.587ZM80.0634 131.049L84.523 126.701L80.3347 122.405L75.8751 126.752L80.0634 131.049ZM73.8007 139.207L80.158 130.942L75.4022 127.284L69.045 135.548L73.8007 139.207ZM86.0968 134.161L72.7565 137.629L74.2662 143.436L87.6065 139.968L86.0968 134.161ZM93.4257 134H87.3549V140H93.4257V134ZM107.867 138C103.537 138 99.495 136.806 96.0419 134.732L92.952 139.875C97.3122 142.494 102.418 144 107.867 144V138ZM93.4257 140C93.2257 140 93.0648 139.943 92.952 139.875L96.0419 134.732C95.2811 134.275 94.3818 134 93.4257 134V140ZM87.6065 139.968C87.5243 139.989 87.4398 140 87.3549 140V134C86.9304 134 86.5076 134.054 86.0968 134.161L87.6065 139.968ZM69.045 135.548C66.1418 139.322 69.6578 144.634 74.2662 143.436L72.7565 137.629C73.6781 137.389 74.3813 138.452 73.8007 139.207L69.045 135.548ZM75.8751 126.752C75.705 126.918 75.547 127.096 75.4022 127.284L80.158 130.942C80.129 130.98 80.0974 131.015 80.0634 131.049L75.8751 126.752ZM80.0738 123.302C80.0019 123.061 80.0352 122.697 80.3347 122.405L84.523 126.701C85.9389 125.321 86.341 123.322 85.8234 121.587L80.0738 123.302Z" fill="#F3B881" mask="url(#path-9-inside-1_4_46)"/>
<path d="M97.6249 108.043C97.6249 106.806 98.022 105.556 98.8163 104.293C99.6106 103.017 100.769 101.962 102.293 101.129C103.816 100.296 105.594 99.8789 107.625 99.8789C109.513 99.8789 111.18 100.23 112.625 100.934C114.07 101.624 115.184 102.568 115.965 103.766C116.759 104.964 117.156 106.266 117.156 107.672C117.156 108.779 116.928 109.749 116.473 110.582C116.03 111.415 115.496 112.138 114.871 112.75C114.259 113.349 113.152 114.365 111.551 115.797C111.108 116.201 110.75 116.559 110.476 116.871C110.216 117.171 110.021 117.451 109.891 117.711C109.76 117.958 109.656 118.212 109.578 118.473C109.513 118.72 109.409 119.163 109.266 119.801C109.018 121.155 108.243 121.832 106.941 121.832C106.264 121.832 105.691 121.611 105.223 121.168C104.767 120.725 104.539 120.068 104.539 119.195C104.539 118.102 104.708 117.158 105.047 116.363C105.385 115.556 105.835 114.853 106.394 114.254C106.954 113.642 107.71 112.919 108.66 112.086C109.493 111.357 110.092 110.81 110.457 110.445C110.835 110.068 111.147 109.651 111.394 109.195C111.655 108.74 111.785 108.245 111.785 107.711C111.785 106.669 111.394 105.79 110.613 105.074C109.845 104.358 108.849 104 107.625 104C106.193 104 105.138 104.365 104.461 105.094C103.784 105.81 103.211 106.871 102.742 108.277C102.299 109.749 101.46 110.484 100.223 110.484C99.4934 110.484 98.8749 110.23 98.3671 109.723C97.8723 109.202 97.6249 108.642 97.6249 108.043ZM107.156 129.449C106.362 129.449 105.665 129.195 105.066 128.688C104.48 128.167 104.187 127.444 104.187 126.52C104.187 125.699 104.474 125.009 105.047 124.449C105.62 123.889 106.323 123.609 107.156 123.609C107.976 123.609 108.667 123.889 109.226 124.449C109.786 125.009 110.066 125.699 110.066 126.52C110.066 127.431 109.773 128.147 109.187 128.668C108.601 129.189 107.924 129.449 107.156 129.449Z" fill="#5A5A5A"/>
<mask id="path-12-inside-2_4_46" fill="white">
<path fill-rule="evenodd" clip-rule="evenodd" d="M161.057 108.72C155.088 98.3812 142.104 94.7021 132.058 100.502C122.011 106.303 118.706 119.386 124.675 129.725C130.644 140.064 143.627 143.743 153.674 137.943C155.401 136.946 156.928 135.734 158.244 134.357C158.794 133.782 159.613 133.527 160.377 133.754L164.995 135.127C165.086 135.154 165.179 135.174 165.273 135.188L172.548 136.258C174.439 136.536 175.605 134.256 174.273 132.885L167.064 125.467C166.949 125.349 166.849 125.216 166.767 125.073L164.303 120.806C164.118 120.486 164.028 120.122 164.028 119.752C164.031 116.02 163.073 112.213 161.057 108.72Z"/>
</mask>
<path fill-rule="evenodd" clip-rule="evenodd" d="M161.057 108.72C155.088 98.3812 142.104 94.7021 132.058 100.502C122.011 106.303 118.706 119.386 124.675 129.725C130.644 140.064 143.627 143.743 153.674 137.943C155.401 136.946 156.928 135.734 158.244 134.357C158.794 133.782 159.613 133.527 160.377 133.754L164.995 135.127C165.086 135.154 165.179 135.174 165.273 135.188L172.548 136.258C174.439 136.536 175.605 134.256 174.273 132.885L167.064 125.467C166.949 125.349 166.849 125.216 166.767 125.073L164.303 120.806C164.118 120.486 164.028 120.122 164.028 119.752C164.031 116.02 163.073 112.213 161.057 108.72Z" fill="#FFFBD3"/>
<path d="M167.064 125.467L164.913 127.558L167.064 125.467ZM164.995 135.127L165.849 132.251L164.995 135.127ZM165.273 135.188L164.837 138.156L165.273 135.188ZM158.244 134.357L160.412 136.43L158.244 134.357ZM160.377 133.754L159.522 136.63L160.377 133.754ZM133.558 103.101C142.1 98.1689 153.277 101.245 158.459 110.22L163.655 107.22C156.898 95.5171 142.109 91.2353 130.558 97.9044L133.558 103.101ZM127.273 128.225C122.092 119.25 125.016 108.032 133.558 103.101L130.558 97.9044C119.007 104.573 115.32 119.522 122.077 131.225L127.273 128.225ZM152.174 135.344C143.632 140.276 132.455 137.2 127.273 128.225L122.077 131.225C128.834 142.928 143.623 147.21 155.174 140.541L152.174 135.344ZM156.075 132.284C154.954 133.457 153.651 134.492 152.174 135.344L155.174 140.541C157.15 139.4 158.902 138.01 160.412 136.43L156.075 132.284ZM165.849 132.251L161.231 130.879L159.522 136.63L164.14 138.002L165.849 132.251ZM172.984 133.29L165.71 132.22L164.837 138.156L172.111 139.226L172.984 133.29ZM164.913 127.558L172.121 134.976L176.424 130.795L169.216 123.376L164.913 127.558ZM161.705 122.306L164.169 126.573L169.365 123.573L166.901 119.306L161.705 122.306ZM158.459 110.22C160.206 113.247 161.031 116.534 161.028 119.75L167.028 119.755C167.032 115.505 165.94 111.179 163.655 107.22L158.459 110.22ZM166.901 119.306C167 119.477 167.029 119.637 167.028 119.755L161.028 119.75C161.028 120.606 161.237 121.496 161.705 122.306L166.901 119.306ZM169.216 123.376C169.274 123.436 169.324 123.502 169.365 123.573L164.169 126.573C164.375 126.931 164.625 127.262 164.913 127.558L169.216 123.376ZM172.111 139.226C176.839 139.921 179.755 134.222 176.424 130.795L172.121 134.976C171.455 134.291 172.038 133.151 172.984 133.29L172.111 139.226ZM164.14 138.002C164.368 138.07 164.601 138.122 164.837 138.156L165.71 132.22C165.757 132.227 165.803 132.237 165.849 132.251L164.14 138.002ZM160.412 136.43C160.261 136.588 159.939 136.754 159.522 136.63L161.231 130.879C159.287 130.301 157.327 130.975 156.075 132.284L160.412 136.43Z" fill="#24BBCB" mask="url(#path-12-inside-2_4_46)"/>
<path d="M143.97 115.203L143.97 115.203L143.974 115.2C144.351 114.885 144.503 114.434 144.503 113.942C144.503 113.461 144.357 113.011 143.973 112.712C143.663 112.438 143.284 112.306 142.867 112.306C142.406 112.306 141.969 112.42 141.649 112.734C141.315 113.042 141.202 113.486 141.202 113.942C141.202 114.396 141.323 114.823 141.64 115.14C141.961 115.461 142.402 115.578 142.867 115.578C143.278 115.578 143.656 115.46 143.97 115.203ZM134.006 128.855L134.006 128.855L134.012 128.862C135.164 129.994 136.498 130.883 138.011 131.528C139.532 132.177 141.152 132.5 142.867 132.5C144.6 132.5 146.221 132.177 147.724 131.527C149.237 130.882 150.563 129.992 151.696 128.858C152.849 127.706 153.749 126.371 154.395 124.856C155.044 123.335 155.367 121.715 155.367 120C155.367 118.267 155.044 116.646 154.395 115.143C153.749 113.629 152.849 112.304 151.696 111.171C150.563 110.018 149.238 109.119 147.725 108.473C146.221 107.823 144.6 107.5 142.867 107.5C141.152 107.5 139.532 107.823 138.011 108.472C136.496 109.118 135.161 110.018 134.009 111.171C132.875 112.304 131.985 113.63 131.34 115.142C130.69 116.646 130.367 118.267 130.367 120C130.367 121.715 130.69 123.335 131.339 124.856C131.985 126.369 132.874 127.703 134.006 128.855ZM151.961 123.851L151.96 123.854C151.461 125.038 150.759 126.081 149.853 126.986C148.948 127.892 147.895 128.604 146.69 129.123C145.514 129.619 144.241 129.869 142.867 129.869C141.494 129.869 140.212 129.619 139.015 129.123C137.83 128.604 136.787 127.892 135.881 126.986C134.975 126.08 134.263 125.037 133.745 123.852C133.248 122.655 132.998 121.373 132.998 120C132.998 118.626 133.248 117.353 133.745 116.177C134.264 114.972 134.976 113.919 135.881 113.014C136.787 112.108 137.83 111.407 139.013 110.907L139.013 110.907L139.016 110.906C140.213 110.39 141.495 110.131 142.867 110.131C144.239 110.131 145.51 110.39 146.686 110.905L146.686 110.905L146.695 110.908C147.897 111.408 148.949 112.109 149.853 113.014C150.758 113.918 151.459 114.97 151.959 116.172L151.959 116.172L151.962 116.181C152.477 117.357 152.736 118.628 152.736 120C152.736 121.372 152.477 122.654 151.961 123.851ZM140.789 120.435L141.308 124.967C141.394 125.724 142.036 126.296 142.798 126.296H142.89C143.682 126.296 144.337 125.682 144.387 124.892L144.654 120.737C144.695 120.103 144.332 119.512 143.748 119.262L142.87 118.886C141.811 118.432 140.658 119.291 140.789 120.435Z" fill="#5A5A5A" stroke="#5A5A5A"/>
<path d="M228.404 135.744L220.82 139.489L220.812 140.1L220.806 140.713H236.001H251.196L251.191 140.1L251.183 139.489L243.591 135.742C239.418 133.682 235.999 131.997 235.993 132C235.991 132 232.575 133.685 228.404 135.744Z" fill="#797C8B"/>
<path d="M223.742 141.304C223.734 141.321 223.731 141.776 223.734 142.309L223.742 143.281H236.001H248.261V142.281V141.282L236.007 141.274C226.188 141.268 223.75 141.274 223.742 141.304Z" fill="#0097A7"/>
<path d="M224.86 143.938C224.852 143.988 224.834 144.655 224.818 145.418C224.802 146.181 224.778 147.267 224.765 147.833C224.751 148.396 224.727 149.371 224.711 149.998C224.695 150.622 224.672 151.63 224.658 152.232C224.645 152.835 224.621 153.84 224.605 154.467C224.589 155.091 224.565 156.066 224.552 156.632C224.539 157.195 224.517 158.056 224.51 158.539L224.491 159.422H226.279H228.064L228.048 158.955C228.032 158.589 227.634 144.022 227.634 143.886C227.634 143.858 227.368 143.85 226.252 143.85H224.873L224.86 143.938Z" fill="#CCB975"/>
<path d="M231.342 144.133C231.334 144.291 231.315 144.988 231.299 145.682C231.284 146.376 231.26 147.419 231.246 147.999C231.233 148.579 231.209 149.562 231.193 150.184C231.18 150.808 231.153 151.819 231.14 152.432C231.007 157.898 230.981 159.044 230.981 159.219V159.422H232.761H234.54V159.33C234.54 159.255 234.439 155.519 234.328 151.511C234.312 150.969 234.288 150.101 234.275 149.582C234.259 149.062 234.224 147.75 234.195 146.667C234.168 145.582 234.137 144.505 234.126 144.272L234.11 143.85H232.734H231.358L231.342 144.133Z" fill="#D89150"/>
<path d="M237.824 144.299C237.808 144.691 237.462 159.138 237.462 159.344V159.422H239.242H241.022V159.316C241.025 159.077 240.621 144.341 240.608 144.105L240.592 143.85H239.216H237.84L237.824 144.299Z" fill="#90CAF9"/>
<path d="M244.306 144.438C244.295 144.763 244.276 145.523 244.263 146.126C244.247 146.728 244.226 147.725 244.21 148.338C244.197 148.954 244.173 149.956 244.157 150.567C244.143 151.178 244.12 152.177 244.104 152.787C244.09 153.398 244.066 154.397 244.05 155.008C244.037 155.619 244.013 156.621 243.997 157.234C243.984 157.85 243.965 158.594 243.955 158.886L243.939 159.422H245.721H247.504V159.274C247.507 158.983 247.103 144.027 247.089 143.938L247.076 143.85H245.7H244.324L244.306 144.438Z" fill="#E57373"/>
<path d="M222.241 160.99V162.006L221.425 162.003L220.607 162L220.599 162.999L220.594 164.001H219.797H219V165.001V166H236.001H253.003V165.001V164.001H252.206H251.409V163.002V162.003H250.585H249.762V160.99V159.977H236.001H222.241V160.99Z" fill="#797C8B"/>
<path d="M240.079 30.4967L234.243 31.0125L234.514 45.5023L237.714 43.0432L241.315 44.9037L240.079 30.4967Z" fill="#E57373"/>
<path d="M236.615 31.372L231.965 29.3347L227.012 40.2339L230.337 39.7311L232.431 42.6101L236.615 31.372Z" fill="#0097A7"/>
<path d="M230.351 26.6335L234.243 31.0125L224.105 41.3685L223.464 37.3838L219.567 36.2669L230.351 26.6335Z" fill="#90CAF9"/>
<path d="M248.884 21.871L248.027 23.0368C247.761 23.4337 247.639 23.923 247.696 24.4118L247.879 25.8474C248.011 26.6889 247.53 27.5381 246.689 27.8497L245.341 28.3544C244.877 28.5289 244.519 28.8888 244.316 29.3102L243.725 30.6177C243.343 31.3986 242.515 31.8587 241.66 31.6627L240.229 31.3815C239.759 31.3022 239.258 31.3901 238.843 31.6201L237.638 32.3968C236.915 32.8629 235.949 32.7662 235.36 32.1735L234.33 31.1547C233.97 30.7966 233.536 30.6243 233.029 30.6379L231.562 30.6292C230.707 30.6127 229.938 30.0204 229.732 29.1853L229.413 27.7315C229.313 27.2613 229.008 26.8535 228.612 26.5883L227.409 25.8237C226.665 25.349 226.378 24.446 226.667 23.6282L227.146 22.2405C227.331 21.7758 227.305 21.2992 227.087 20.8541L226.465 19.531C226.098 18.7396 226.318 17.823 227.035 17.2827L228.215 16.3884C228.61 16.1151 228.857 15.675 228.905 15.1921L229.124 13.7369C229.246 12.8886 229.938 12.2307 230.798 12.142L232.24 12.0332C232.716 12.0072 233.174 11.7585 233.489 11.4173L234.439 10.2884C235.013 9.65559 235.954 9.45519 236.722 9.86801L238.036 10.5333C238.445 10.7675 238.959 10.8281 239.454 10.6659L240.839 10.2478C241.656 9.99818 242.554 10.355 242.965 11.1277L243.686 12.3824C243.947 12.8089 244.319 13.136 244.777 13.2463L246.159 13.6514C247.001 13.8784 247.548 14.6693 247.488 15.5423L247.386 16.9724C247.338 17.4553 247.531 17.9624 247.86 18.3082L248.822 19.4076C249.326 20.2172 249.408 21.1827 248.884 21.871Z" fill="#FFC54D"/>
<path d="M234.318 28.9264C238.664 30.6522 243.586 28.5283 245.312 24.1825C247.038 19.8367 244.914 14.9145 240.568 13.1887C236.222 11.4628 231.3 13.5867 229.574 17.9325C227.848 22.2784 229.972 27.2005 234.318 28.9264Z" fill="#E8B04B"/>
<path d="M16.2904 149.71L27.853 143.768L37.6844 162.899L30.569 166.556C28.1129 167.818 25.0987 166.85 23.8365 164.394L16.2904 149.71Z" fill="#FABE45"/>
<path d="M27.853 143.768L39.4156 137.826L46.9616 152.51C48.2238 154.966 47.2559 157.98 44.7999 159.243L37.6844 162.899L27.853 143.768Z" fill="#FECE62"/>
<path fill-rule="evenodd" clip-rule="evenodd" d="M33.476 152.678C33.9713 152.041 34.0872 151.159 33.7001 150.406C33.164 149.363 31.8667 148.96 30.8024 149.507C29.7381 150.054 29.3099 151.343 29.8459 152.386C30.233 153.14 31.0174 153.559 31.8242 153.527L33.5814 156.947L35.2332 156.098L33.476 152.678Z" fill="#646464"/>
<path fill-rule="evenodd" clip-rule="evenodd" d="M20.5104 129.001C18.6408 129.974 17.2071 131.289 16.2094 132.946C15.2008 134.622 14.706 136.521 14.7249 138.644C14.7439 140.767 15.3486 142.987 16.539 145.304C16.7517 145.718 16.952 146.145 17.1509 146.57C17.5018 147.319 17.8486 148.06 18.2527 148.702L21.307 147.132C20.5147 146.277 19.7954 145.221 19.1488 143.963C18.1715 142.061 17.6656 140.292 17.6311 138.655C17.6039 137.015 17.9614 135.58 18.7034 134.349C19.4414 133.133 20.47 132.18 21.7891 131.489L20.5104 129.001Z" fill="#DDDDDD"/>
<path fill-rule="evenodd" clip-rule="evenodd" d="M21.7891 131.489C21.8092 131.479 21.8295 131.468 21.8498 131.458C23.1982 130.765 24.5888 130.475 26.0216 130.588C27.4617 130.698 28.8369 131.243 30.1472 132.223C31.4648 133.2 32.6123 134.64 33.5896 136.541C34.2362 137.799 34.6748 139 34.9055 140.144L38.1268 138.488C37.8592 137.92 37.4988 137.351 37.1316 136.772C36.8062 136.259 36.4755 135.737 36.1994 135.2C35.009 132.884 33.5561 131.1 31.8408 129.848C30.1254 128.597 28.2932 127.893 26.344 127.738C24.3948 127.583 22.4705 127.993 20.5712 128.97C20.5509 128.98 20.5306 128.99 20.5104 129.001L21.7891 131.489Z" fill="#C0C0C0"/>
<path d="M236.041 81.3319C235.747 81.3853 231.596 81.9935 225.159 82.9294C223.387 83.1901 221.81 83.4307 221.65 83.4775C220.928 83.6646 220.186 84.253 219.778 84.948C219.55 85.3358 219.33 86.1849 219.33 86.6726C219.33 87.5016 219.711 88.3906 220.306 88.9519C221.583 90.1617 223.581 89.9211 224.317 88.4708C224.544 88.0296 224.537 87.3811 224.31 86.9C223.996 86.2116 223.314 85.7436 222.646 85.7436C222.097 85.7436 221.335 86.265 221.335 86.6393C221.335 86.8198 221.596 87.0805 221.777 87.0805C221.85 87.0805 222.031 86.9937 222.178 86.8798C222.565 86.5858 222.879 86.6059 223.207 86.9333C223.561 87.2877 223.655 87.6553 223.488 88.0431C223.26 88.551 222.665 88.8651 222.064 88.7985C220.466 88.6044 219.731 86.6729 220.713 85.2289C221.188 84.5203 221.863 84.2464 222.999 84.2864C223.641 84.3065 223.755 84.3263 224.156 84.5269C225.506 85.1886 226.308 87.0069 226.642 90.162C226.816 91.7529 226.876 93.2769 226.916 97.2075C226.983 103.584 227.13 105.61 227.685 107.702C228.38 110.329 229.637 111.613 231.629 111.726C232.217 111.76 232.658 111.699 237.645 110.877C247.778 109.22 247.31 109.307 247.845 109.046C248.36 108.792 248.861 108.317 249.162 107.796C249.389 107.408 249.61 106.559 249.61 106.071C249.61 104.574 248.54 103.277 247.123 103.05C246.742 102.983 246.495 103.017 244.65 103.317C243.527 103.504 242.571 103.658 242.538 103.658C242.457 103.658 242.35 102.976 242.23 101.766C242.13 100.757 242.056 100.583 241.709 100.583C241.608 100.583 241.455 100.65 241.381 100.724C241.248 100.857 241.241 100.911 241.281 101.546C241.308 101.914 241.381 102.575 241.448 103.017C241.522 103.545 241.541 103.812 241.488 103.832C241.455 103.845 239.362 104.186 236.842 104.594C234.322 105.002 232.129 105.369 231.962 105.403C230.726 105.677 230.01 106.88 230.398 108.023C230.525 108.404 231.013 108.959 231.388 109.159C231.809 109.38 232.437 109.36 232.845 109.126C233.4 108.792 233.58 108.418 233.299 108.137C233.112 107.95 232.878 107.97 232.55 108.204C232.236 108.438 232.016 108.458 231.722 108.277C231.2 107.957 231.046 107.261 231.401 106.813C231.715 106.426 232.109 106.252 232.631 106.279C234.014 106.352 234.823 107.722 234.369 109.213C234.242 109.634 234.168 109.754 233.814 110.109C233.259 110.663 232.932 110.777 231.895 110.777C231.167 110.777 231.1 110.764 230.672 110.563C229.549 110.028 228.814 108.772 228.386 106.633C228.012 104.774 227.918 103.003 227.818 96.4386C227.737 91.285 227.677 90.3089 227.303 88.3503C227.122 87.3877 226.781 86.2713 226.501 85.71C226.153 85.0282 225.598 84.3398 225.11 83.9719C225.037 83.9184 225.01 83.8716 225.05 83.8716C225.204 83.8716 235.752 82.3275 236.126 82.2605C236.334 82.2136 236.822 82.1935 237.196 82.2136C238.072 82.2536 238.573 82.4611 239.134 83.0291C240.137 84.0316 240.779 86.3581 240.953 89.6198C240.973 90.0409 241.006 90.4554 241.026 90.5356C241.1 90.9167 241.628 91.0303 241.835 90.7161C241.935 90.5557 241.942 90.4419 241.868 89.3459C241.554 84.6936 240.585 82.374 238.613 81.5517C237.98 81.285 236.85 81.1913 236.041 81.3319ZM247.485 104.112C248.394 104.513 248.882 105.703 248.575 106.773C248.368 107.508 247.96 107.99 247.311 108.277C247.111 108.364 245.019 108.732 241.075 109.373C237.813 109.908 235.072 110.356 234.985 110.376C234.838 110.409 234.838 110.409 235.039 110.008C235.694 108.711 235.513 107.201 234.597 106.245L234.31 105.944L234.758 105.87C235.005 105.83 237.706 105.389 240.754 104.894C243.809 104.4 246.336 103.978 246.369 103.958C246.516 103.892 247.204 103.986 247.485 104.112Z" fill="#B18000"/>
<path d="M248.073 84.5939C247.846 84.7074 246.202 86.7531 240.827 93.6448L239.069 95.8974L238.782 97.9764C238.508 99.9818 238.501 100.055 238.615 100.182C238.682 100.256 238.802 100.316 238.876 100.316C239.063 100.316 242.659 98.9192 242.819 98.7856C242.886 98.7255 243.722 97.6827 244.664 96.4726C245.614 95.2559 247.539 92.8096 248.943 91.0246C250.346 89.2397 251.543 87.6758 251.596 87.5487C251.723 87.2547 251.683 86.7333 251.503 86.4927C251.369 86.3056 249.791 85.0153 249.283 84.6744C248.929 84.4335 248.448 84.4068 248.073 84.5939ZM249.765 86.0578C250.794 86.86 250.968 87.0603 250.828 87.2811C250.787 87.3481 249.484 89.0192 247.926 91.0045C246.369 92.9832 244.517 95.3427 243.809 96.2584C242.973 97.328 242.492 97.8962 242.438 97.8629C242.358 97.816 240.205 96.1317 240.092 96.0314C240.025 95.9713 240.199 95.7506 245.052 89.5674C248.006 85.804 248.441 85.276 248.595 85.276C248.722 85.2757 249.069 85.5097 249.765 86.0578ZM241.235 97.9629C241.502 98.1701 241.696 98.3572 241.67 98.384C241.583 98.4777 239.51 99.2598 239.471 99.2195C239.431 99.1862 239.691 97.1207 239.758 96.9201C239.778 96.86 239.945 96.9534 240.266 97.2075C240.533 97.4148 240.974 97.7556 241.235 97.9629Z" fill="#B18000"/>
<path d="M236.008 91.3919C234.577 91.6259 232.612 91.9401 231.643 92.1004C230.025 92.3545 229.872 92.3945 229.778 92.535C229.651 92.7288 229.711 92.9964 229.898 93.0964C230.099 93.2099 239.029 91.7797 239.196 91.6058C239.47 91.3385 239.256 90.9507 238.842 90.9639C238.715 90.9642 237.445 91.158 236.008 91.3919Z" fill="#B18000"/>
<path d="M233.535 96.0779C231.623 96.3852 229.992 96.666 229.911 96.7063C229.738 96.7798 229.638 97.0805 229.738 97.2277C229.891 97.4818 229.951 97.4752 233.28 96.9468C235.072 96.6594 236.75 96.3852 237.004 96.3386C237.478 96.2518 237.646 96.1314 237.646 95.8908C237.646 95.7103 237.405 95.5031 237.198 95.51C237.091 95.5163 235.446 95.7704 233.535 96.0779Z" fill="#B18000"/>
<path d="M233.327 100.443C231.496 100.737 230.132 100.991 230.065 101.044C229.818 101.252 230.018 101.72 230.359 101.72C230.613 101.72 236.863 100.717 237.024 100.65C237.224 100.563 237.284 100.289 237.151 100.082C237.057 99.9416 236.99 99.9148 236.756 99.9214C236.603 99.928 235.058 100.162 233.327 100.443Z" fill="#B18000"/>
<path d="M228.17 88.341L228.082 87.8598L230.035 87.5034L230.123 87.9846L229.395 88.1174L229.811 90.3965L229.314 90.4872L228.898 88.2081L228.17 88.341Z" fill="#B18000"/>
<path d="M230.861 90.205L230.357 87.4448L231.96 87.1524L232.047 87.6335L230.948 87.8342L231.068 88.4919L232.085 88.3063L232.173 88.7875L231.155 88.973L231.276 89.6321L232.38 89.4306L232.468 89.9118L230.861 90.205Z" fill="#B18000"/>
<path d="M232.863 89.8397L232.359 87.0794L233.298 86.9083C233.477 86.8755 233.638 86.8848 233.778 86.9362C233.919 86.9866 234.036 87.0735 234.127 87.1971C234.219 87.3196 234.281 87.472 234.315 87.6544C234.348 87.8377 234.343 88.0016 234.299 88.1461C234.255 88.2897 234.174 88.4084 234.058 88.5021C233.942 88.5956 233.793 88.659 233.61 88.6923L232.982 88.807L232.896 88.3379L233.443 88.2382C233.539 88.2206 233.616 88.1908 233.674 88.1487C233.732 88.1066 233.771 88.0521 233.791 87.9854C233.811 87.9185 233.813 87.8397 233.797 87.7489C233.78 87.6573 233.75 87.5829 233.707 87.5258C233.664 87.4685 233.608 87.4296 233.538 87.409C233.468 87.3873 233.385 87.3853 233.288 87.403L232.949 87.4648L233.366 89.748L232.863 89.8397ZM233.918 88.3492L234.739 89.4975L234.183 89.5988L233.376 88.4482L233.918 88.3492Z" fill="#B18000"/>
<path d="M234.506 86.6879L235.126 86.5748L236.119 88.3098L236.147 88.3047L236.464 86.3307L237.084 86.2176L237.587 88.9778L237.1 89.0668L236.772 87.2702L236.752 87.2738L236.462 89.1692L236.13 89.2298L235.188 87.5522L235.168 87.5558L235.497 89.3592L235.009 89.4482L234.506 86.6879Z" fill="#B18000"/>
<path d="M238.933 86.7004C238.904 86.5934 238.849 86.5162 238.767 86.4689C238.686 86.4215 238.585 86.4089 238.464 86.4309C238.382 86.4459 238.315 86.472 238.263 86.5093C238.212 86.5456 238.175 86.5899 238.153 86.6422C238.132 86.6943 238.127 86.7499 238.138 86.8093C238.146 86.859 238.162 86.9005 238.189 86.9338C238.215 86.9669 238.249 86.9938 238.288 87.0144C238.328 87.0341 238.372 87.0497 238.422 87.0611C238.471 87.0717 238.523 87.0789 238.577 87.0829L238.801 87.1033C238.91 87.1113 239.012 87.1299 239.107 87.159C239.202 87.1881 239.287 87.2296 239.362 87.2836C239.438 87.3376 239.501 87.406 239.552 87.4886C239.604 87.571 239.641 87.6697 239.663 87.7845C239.693 87.9536 239.682 88.1068 239.631 88.2443C239.581 88.3806 239.493 88.4955 239.368 88.589C239.243 88.6813 239.084 88.7452 238.89 88.7805C238.698 88.8155 238.525 88.8119 238.37 88.7696C238.216 88.7272 238.087 88.6463 237.982 88.527C237.879 88.4066 237.807 88.2475 237.767 88.0496L238.254 87.9608C238.276 88.0524 238.313 88.1255 238.364 88.1801C238.416 88.2338 238.48 88.2701 238.553 88.2891C238.628 88.3071 238.708 88.3081 238.795 88.2923C238.88 88.2768 238.952 88.2489 239.009 88.2087C239.067 88.1684 239.109 88.1194 239.135 88.0619C239.16 88.0043 239.167 87.9423 239.155 87.8758C239.143 87.8138 239.118 87.7646 239.079 87.7281C239.04 87.6915 238.988 87.6639 238.922 87.6453C238.857 87.6265 238.779 87.6129 238.688 87.6045L238.415 87.5762C238.204 87.5562 238.03 87.4966 237.892 87.3974C237.753 87.2982 237.666 87.1465 237.63 86.9424C237.598 86.7754 237.61 86.6224 237.665 86.4834C237.72 86.3442 237.81 86.2272 237.933 86.1322C238.057 86.0373 238.205 85.974 238.378 85.9424C238.555 85.9102 238.715 85.9171 238.86 85.9632C239.005 86.0091 239.126 86.0878 239.222 86.1993C239.318 86.3108 239.383 86.4485 239.415 86.6125L238.933 86.7004Z" fill="#B18000"/>
<rect x="6.15912" y="27.5653" width="24.2641" height="24.2641" transform="rotate(-60 6.15912 27.5653)" fill="#F3F3F3"/>
<rect x="9.07159" y="24.3502" width="12.1321" height="24.2641" transform="rotate(-45 9.07159 24.3502)" fill="#FFF59D"/>
<rect x="17.6503" y="15.7715" width="12.1321" height="24.2641" transform="rotate(-45 17.6503 15.7715)" fill="#FFDB94"/>
<path d="M22.0933 6.10271C22.063 5.62731 22.3723 5.19657 22.8324 5.07328L24.5983 4.60012C25.0584 4.47683 25.5416 4.69522 25.7531 5.12205L27.6381 8.92612C27.9184 9.49187 27.6107 10.1726 27.0009 10.336L23.6197 11.242C23.0098 11.4055 22.403 10.9697 22.3629 10.3396L22.0933 6.10271Z" fill="#2196F3"/>
<path d="M21.1909 4.9815C21.1175 4.70755 21.28 4.42597 21.554 4.35256L25.3451 3.33675C25.619 3.26334 25.9006 3.42592 25.974 3.69987V3.69987C26.0474 3.97381 25.8848 4.2554 25.6109 4.3288L21.8198 5.34462C21.5459 5.41802 21.2643 5.25545 21.1909 4.9815V4.9815Z" fill="#0063B3"/>
<path d="M22.095 12.1822C22.0216 11.9083 22.1841 11.6267 22.4581 11.5533L28.1624 10.0248C28.4364 9.9514 28.718 10.114 28.7914 10.3879V10.3879C28.8648 10.6619 28.7022 10.9435 28.4282 11.0169L22.7239 12.5453C22.45 12.6187 22.1684 12.4562 22.095 12.1822V12.1822Z" fill="#0063B3"/>
<path d="M26.0544 11.6529L27.2506 16.1172L26.5598 17.3656L25.0978 11.9093L26.0544 11.6529Z" fill="#A8A8A8"/>
<path d="M28.1341 77.7118L27.5724 79.8081L31.0661 80.7442L32.0457 79.8833L31.6278 78.6479L28.1341 77.7118Z" fill="#95341D"/>
<path d="M41.438 80.1418C40.6623 79.9339 39.8723 80.1743 39.342 80.7035L30.6759 78.3814L30.1142 80.4777L38.7803 82.7998C38.975 83.5233 39.5388 84.1264 40.3146 84.3343C41.4724 84.6445 42.6624 83.9575 42.9726 82.7997C43.2828 81.6419 42.5958 80.452 41.438 80.1418Z" fill="#AB5D4A"/>
<path d="M29.7128 88.968H27.5425L29.351 94.0319H31.5213V90.7766C31.5213 89.7778 30.7116 88.968 29.7128 88.968Z" fill="#AB5D4A"/>
<path d="M27.5426 88.9681H16.6915C15.6927 88.9681 14.883 89.7778 14.883 90.7766V94.0319H29.3511V90.7766C29.3511 89.7778 28.5414 88.9681 27.5426 88.9681Z" fill="#C08577"/>
<path d="M30.7322 73.2775L20.5915 72.0581L18.3447 80.4432L27.7365 84.4576L30.7322 73.2775Z" fill="#F5AC51"/>
<path d="M27.8165 70.2494L28.2778 74.1177L30.3741 74.6794L31.3102 71.1856L27.8165 70.2494Z" fill="#792A18"/>
<path d="M29.214 70.6239L21.5276 68.5643L20.5915 72.0581L28.2778 74.1177L29.214 70.6239Z" fill="#95341D"/>
<path d="M23.6974 85.6221L27.1912 86.5582L28.1273 83.0644L26.031 82.5028L23.6974 85.6221Z" fill="#AB5D4A"/>
<path d="M26.031 82.5027L18.3447 80.4432L17.4086 83.937L25.0949 85.9965L26.031 82.5027Z" fill="#C08577"/>
<path d="M27.5656 85.1607L25.4694 84.599L24.736 87.3358L26.8323 87.8975C27.7971 88.156 28.7434 87.7529 28.9459 86.9971C29.1483 86.2414 28.5304 85.4192 27.5656 85.1607Z" fill="#95341D"/>
<path d="M26.8496 86.4354C27.0521 85.6797 26.4341 84.8575 25.4694 84.599L17.783 82.5394C16.8183 82.2809 15.872 82.684 15.6695 83.4397C15.467 84.1955 16.0849 85.0177 17.0497 85.2762L24.736 87.3358C25.7008 87.5943 26.6471 87.1912 26.8496 86.4354Z" fill="#AB5D4A"/>
<path d="M31.8719 69.0893L29.7757 68.5276L29.0423 71.2644L31.1386 71.8261C32.1034 72.0846 33.0497 71.6815 33.2522 70.9258C33.4547 70.17 32.8367 69.3478 31.8719 69.0893Z" fill="#AB5D4A"/>
<path d="M31.1559 70.3641C31.3584 69.6083 30.7405 68.7861 29.7757 68.5276L22.0894 66.4681C21.1246 66.2096 20.1783 66.6126 19.9758 67.3684C19.7733 68.1241 20.3912 68.9464 21.356 69.2049L29.0423 71.2644C30.0071 71.5229 30.9534 71.1198 31.1559 70.3641Z" fill="#C08577"/>
<path d="M31.5213 91.8617H29.351L32.9681 99.4575H35.1383V95.4787C35.1383 93.4811 33.5189 91.8617 31.5213 91.8617Z" fill="#95341D"/>
<path d="M29.351 91.8617H14.883C12.8853 91.8617 11.266 93.4811 11.266 95.4787V99.4575H32.9681V95.4787C32.9681 93.4811 31.3487 91.8617 29.351 91.8617Z" fill="#AB5D4A"/>
</svg>
