<svg width="260" height="175" viewBox="0 0 260 175" fill="none" xmlns="http://www.w3.org/2000/svg">
<circle cx="37.5" cy="17.5" r="9.5" transform="rotate(-180 37.5 17.5)" fill="#24BBCB"/>
<circle cx="234.5" cy="94.5" r="9.5" transform="rotate(-180 234.5 94.5)" fill="#E4BFF5"/>
<circle cx="244.5" cy="152.5" r="9.5" transform="rotate(-180 244.5 152.5)" fill="#FFF59D"/>
<circle cx="15.5" cy="72.5" r="9.5" transform="rotate(-180 15.5 72.5)" fill="#F3B881"/>
<path d="M94 22.5C94 17.2533 98.2533 13 103.5 13C108.747 13 113 17.2533 113 22.5C113 27.7467 108.747 32 103.5 32C98.2533 32 94 27.7467 94 22.5Z" fill="#E0C06C"/>
<path d="M226 17.5C226 12.2533 230.253 8 235.5 8C240.747 8 245 12.2533 245 17.5C245 22.7467 240.747 27 235.5 27C230.253 27 226 22.7467 226 17.5Z" fill="#A7EDBA"/>
<circle cx="24.5" cy="162.5" r="9.5" transform="rotate(-180 24.5 162.5)" fill="#ECD5FF"/>
<circle cx="120.5" cy="156.5" r="9.5" transform="rotate(-180 120.5 156.5)" fill="#E57373"/>
<rect x="58.5" y="35.5" width="159" height="109" rx="3.5" fill="#64E1EE" stroke="#656565"/>
<path d="M103.21 96.36V95.86H102.71H97.58C96.8083 95.86 96.2115 95.7179 95.7617 95.4662C95.3212 95.2197 94.9922 94.852 94.7727 94.3403C94.5472 93.7643 94.42 92.9278 94.42 91.8V78V77.5H93.92H91.1H90.6V78V91.86C90.6 93.1671 90.7122 94.326 90.9426 95.3317L90.9432 95.3339C91.187 96.3758 91.721 97.2732 92.5317 98.0182L92.5316 98.0183L92.5407 98.0263C93.0802 98.4983 93.7339 98.8493 94.4901 99.087L94.49 99.0872L94.5026 99.0908C95.218 99.2951 95.8321 99.4242 96.3367 99.4681L96.3479 99.4691L96.3592 99.4696C96.8493 99.49 97.5072 99.5 98.33 99.5H102.71H103.21V99V96.36ZM115.277 99.1906L115.277 99.1907L115.286 99.1869C116.242 98.762 117.075 98.1859 117.781 97.4582C118.487 96.731 119.032 95.8863 119.416 94.9283C119.821 93.9458 120.023 92.9015 120.023 91.8C120.023 90.6983 119.821 89.6623 119.414 88.6974C119.01 87.7206 118.445 86.8663 117.719 86.1391C117.013 85.4123 116.179 84.8466 115.223 84.442C114.277 84.0127 113.258 83.8 112.173 83.8C109.943 83.8 108.062 84.5806 106.564 86.1414C105.067 87.6609 104.323 89.559 104.323 91.8C104.323 92.899 104.513 93.9411 104.897 94.9222L104.897 94.9223L104.902 94.9345C105.305 95.8898 105.859 96.7324 106.564 97.4582C107.268 98.184 108.09 98.7599 109.026 99.1852L109.026 99.1854L109.038 99.1906C110.005 99.5988 111.052 99.8 112.173 99.8C113.275 99.8 114.312 99.5983 115.277 99.1906ZM115.19 88.5632L115.19 88.5632L115.193 88.5671C115.935 89.3794 116.323 90.4419 116.323 91.8C116.323 93.1567 115.936 94.231 115.192 95.0648C114.46 95.8648 113.473 96.28 112.173 96.28C110.895 96.28 109.904 95.8663 109.15 95.0608C108.411 94.25 108.023 93.1789 108.023 91.8C108.023 90.4211 108.411 89.35 109.15 88.5393C109.904 87.7337 110.895 87.32 112.173 87.32C113.47 87.32 114.457 87.7434 115.19 88.5632ZM137.125 84.6V84.1H136.625H129.575C127.368 84.1 125.489 84.859 123.971 86.3764C122.473 87.8754 121.725 89.7449 121.725 91.95C121.725 94.1368 122.474 95.9621 123.982 97.3838C125.477 98.7931 127.28 99.5 129.365 99.5C130.69 99.5 131.933 99.1785 133.088 98.5371L133.345 98.3942V98.1V95.4V94.4239L132.553 94.9942C131.644 95.6485 130.588 95.98 129.365 95.98C128.268 95.98 127.34 95.6253 126.556 94.914C125.815 94.2056 125.425 93.2372 125.425 91.95C125.425 90.5912 125.813 89.5542 126.547 88.7852C127.276 88.0207 128.267 87.62 129.575 87.62H133.425V98.88C133.425 100.487 132.82 101.565 131.641 102.224L131.641 102.223L131.629 102.23C131.013 102.597 129.881 102.82 128.135 102.82H125.045H124.545V103.32V105.84V106.34H125.045H128.405C130.243 106.34 131.837 106.01 133.164 105.324L133.183 105.315L133.2 105.304C133.694 104.996 134.122 104.693 134.483 104.396C134.855 104.09 135.257 103.675 135.688 103.162C136.156 102.604 136.505 101.934 136.741 101.162C137 100.384 137.125 99.5216 137.125 98.58V84.6ZM150.375 99.1906L150.375 99.1907L150.383 99.1869C151.339 98.762 152.173 98.1859 152.879 97.4582C153.585 96.7311 154.13 95.8864 154.513 94.9284C154.919 93.9459 155.12 92.9016 155.12 91.8C155.12 90.6983 154.919 89.6623 154.512 88.6974C154.108 87.7207 153.543 86.8663 152.817 86.1391C152.111 85.4124 151.277 84.8466 150.321 84.442C149.374 84.0127 148.355 83.8 147.27 83.8C145.041 83.8 143.16 84.5806 141.662 86.1413C140.165 87.6608 139.42 89.559 139.42 91.8C139.42 92.899 139.611 93.9411 139.995 94.9222L139.995 94.9223L140 94.9345C140.403 95.8898 140.957 96.7324 141.662 97.4582C142.366 98.184 143.188 98.7599 144.123 99.1852L144.123 99.1854L144.136 99.1906C145.102 99.5988 146.149 99.8 147.27 99.8C148.373 99.8 149.409 99.5983 150.375 99.1906ZM150.287 88.5632L150.291 88.5671C151.033 89.3794 151.42 90.4419 151.42 91.8C151.42 93.1567 151.033 94.2311 150.289 95.0649C149.558 95.8648 148.57 96.28 147.27 96.28C145.993 96.28 145.002 95.8663 144.248 95.0607C143.508 94.2499 143.12 93.1789 143.12 91.8C143.12 90.4212 143.508 89.3501 144.248 88.5393C145.002 87.7337 145.993 87.32 147.27 87.32C148.568 87.32 149.555 87.7434 150.287 88.5632Z" fill="white" stroke="#21ACBB"/>
<rect x="101" y="129" width="76" height="13" rx="4" fill="#EBEBEB"/>
<rect x="110" y="130" width="11" height="11" rx="4" fill="#D9D9D9"/>
<rect x="142" y="130" width="11" height="11" rx="4" fill="#D9D9D9"/>
<rect x="158" y="130" width="11" height="11" rx="4" fill="#D9D9D9"/>
<rect x="126" y="130" width="11" height="11" rx="4" fill="#D9D9D9"/>
<path d="M146 138C144 138 143.833 136 144 135" stroke="#9AAEB9" stroke-width="0.4"/>
<path d="M160.8 133.625V133.825H161H162.63V138.818V139.018H162.83H163.534H163.734V138.818V133.825H165.364H165.564V133.625V133V132.8H165.364H161H160.8V133V133.625Z" fill="white" stroke="#9AAEB9" stroke-width="0.4"/>
<path d="M65 65C67.2091 65 69 66.7909 69 69L69 106C69 108.209 67.2091 110 65 110L59 110L59 65L65 65Z" fill="#B0BEC5"/>
<rect x="67" y="73" width="6" height="6" rx="2" transform="rotate(90 67 73)" fill="#84A4B4"/>
<rect x="67" y="84" width="6" height="6" rx="2" transform="rotate(90 67 84)" fill="#84A4B4"/>
<rect x="67" y="95" width="6" height="6" rx="2" transform="rotate(90 67 95)" fill="#84A4B4"/>
<rect x="115" y="36" width="11" height="10" fill="#E57373"/>
<rect x="126" y="36" width="11" height="10" fill="#90CAF9"/>
<rect x="137" y="36" width="11" height="10" fill="#D89150"/>
<rect x="148" y="36" width="11" height="10" fill="#2196F3"/>
<path d="M105 36H115V46H108C106.343 46 105 44.6569 105 43V36Z" fill="#B0BEC5"/>
<path d="M159 36H168V43C168 44.6569 166.657 46 165 46H159V36Z" fill="#B0BEC5"/>
<circle cx="110" cy="41" r="3" fill="#FFF59D"/>
<path fill-rule="evenodd" clip-rule="evenodd" d="M117.941 135.056L113 133L115.056 137.941L115.446 136.162L117.284 138L117.991 137.293L116.148 135.449L117.941 135.056Z" fill="white"/>
<path d="M113 133L113.077 132.815L112.629 132.629L112.815 133.077L113 133ZM117.941 135.056L117.984 135.251L118.605 135.115L118.018 134.871L117.941 135.056ZM115.056 137.941L114.871 138.018L115.115 138.605L115.251 137.984L115.056 137.941ZM115.446 136.162L115.588 136.021L115.329 135.762L115.251 136.119L115.446 136.162ZM117.284 138L117.143 138.141L117.284 138.283L117.426 138.141L117.284 138ZM117.991 137.293L118.133 137.434L118.274 137.293L118.133 137.151L117.991 137.293ZM116.148 135.449L116.105 135.254L115.748 135.332L116.006 135.591L116.148 135.449ZM112.923 133.185L117.865 135.24L118.018 134.871L113.077 132.815L112.923 133.185ZM115.24 137.865L113.185 132.923L112.815 133.077L114.871 138.018L115.24 137.865ZM115.251 136.119L114.86 137.899L115.251 137.984L115.642 136.205L115.251 136.119ZM117.426 137.859L115.588 136.021L115.305 136.303L117.143 138.141L117.426 137.859ZM117.85 137.151L117.143 137.859L117.426 138.141L118.133 137.434L117.85 137.151ZM116.006 135.591L117.85 137.434L118.133 137.151L116.289 135.308L116.006 135.591ZM117.899 134.86L116.105 135.254L116.191 135.645L117.984 135.251L117.899 134.86Z" fill="#9AAEB9"/>
<rect x="129.205" y="132.205" width="2.59" height="2.59" fill="white" stroke="#9AAEB9" stroke-width="0.41"/>
<circle cx="129.5" cy="137.5" r="1.3" fill="white" stroke="#9AAEB9" stroke-width="0.4"/>
<path d="M132.346 137.8L133.732 135.4L135.118 137.8H132.346Z" fill="white" stroke="#9AAEB9" stroke-width="0.4"/>
<rect x="149.602" y="133.316" width="1.48686" height="0.593123" transform="rotate(43.2308 149.602 133.316)" fill="white" stroke="#9AAEB9" stroke-width="0.24"/>
<mask id="path-35-inside-1_1_8" fill="white">
<path fill-rule="evenodd" clip-rule="evenodd" d="M147.121 135L145.919 138.04L148.958 136.837L150 135L149.5 134.5L149 134L147.121 135ZM148.5 136C148.776 136 149 135.776 149 135.5C149 135.224 148.776 135 148.5 135C148.224 135 148 135.224 148 135.5C148 135.776 148.224 136 148.5 136Z"/>
</mask>
<path fill-rule="evenodd" clip-rule="evenodd" d="M147.121 135L145.919 138.04L148.958 136.837L150 135L149.5 134.5L149 134L147.121 135ZM148.5 136C148.776 136 149 135.776 149 135.5C149 135.224 148.776 135 148.5 135C148.224 135 148 135.224 148 135.5C148 135.776 148.224 136 148.5 136Z" fill="white"/>
<path d="M145.919 138.04L145.695 137.952L145.491 138.467L146.007 138.263L145.919 138.04ZM147.121 135L147.009 134.788L146.931 134.83L146.898 134.912L147.121 135ZM148.958 136.837L149.047 137.06L149.125 137.029L149.167 136.955L148.958 136.837ZM150 135L150.209 135.118L150.299 134.959L150.17 134.83L150 135ZM149 134L149.17 133.83L149.044 133.705L148.887 133.788L149 134ZM146.142 138.128L147.344 135.088L146.898 134.912L145.695 137.952L146.142 138.128ZM148.87 136.614L145.83 137.817L146.007 138.263L149.047 137.06L148.87 136.614ZM149.791 134.882L148.75 136.719L149.167 136.955L150.209 135.118L149.791 134.882ZM149.33 134.67L149.83 135.17L150.17 134.83L149.67 134.33L149.33 134.67ZM148.83 134.17L149.33 134.67L149.67 134.33L149.17 133.83L148.83 134.17ZM147.234 135.212L149.113 134.212L148.887 133.788L147.009 134.788L147.234 135.212ZM148.76 135.5C148.76 135.644 148.644 135.76 148.5 135.76V136.24C148.909 136.24 149.24 135.909 149.24 135.5H148.76ZM148.5 135.24C148.644 135.24 148.76 135.356 148.76 135.5H149.24C149.24 135.091 148.909 134.76 148.5 134.76V135.24ZM148.24 135.5C148.24 135.356 148.356 135.24 148.5 135.24V134.76C148.091 134.76 147.76 135.091 147.76 135.5H148.24ZM148.5 135.76C148.356 135.76 148.24 135.644 148.24 135.5H147.76C147.76 135.909 148.091 136.24 148.5 136.24V135.76Z" fill="#9AAEB9" mask="url(#path-35-inside-1_1_8)"/>
<path d="M65.7123 74.1L64.7007 74.9H62.3062L63.4004 74.1H65.7123Z" fill="white" stroke="#84A3B4" stroke-width="0.2"/>
<path d="M65.7123 75.1L64.7007 75.9H62.3062L63.4004 75.1H65.7123Z" fill="white" stroke="#84A3B4" stroke-width="0.2"/>
<path d="M65.7123 77.1L64.7007 77.9H62.3062L63.4004 77.1H65.7123Z" fill="white" stroke="#84A3B4" stroke-width="0.2"/>
<path d="M63.5028 89.0227V85H64.5199V89.0227H63.5028ZM62 87.5199V86.5028H66.0227V87.5199H62Z" fill="white"/>
<path d="M65.8 99.9H62.2C62.1448 99.9 62.1 99.8552 62.1 99.8V96.2C62.1 96.1448 62.1448 96.1 62.2 96.1H64.9172C64.9437 96.1 64.9691 96.1105 64.9879 96.1293L65.8707 97.0121C65.8895 97.0309 65.9 97.0563 65.9 97.0828V99.8C65.9 99.8552 65.8552 99.9 65.8 99.9Z" fill="white" stroke="#84A3B4" stroke-width="0.2"/>
<rect x="63.1" y="99.1" width="1.8" height="0.8" fill="white" stroke="#84A3B4" stroke-width="0.2"/>
<rect x="63.1" y="96.1" width="0.8" height="0.8" fill="white" stroke="#84A3B4" stroke-width="0.2"/>
<rect x="64.1" y="96.1" width="0.8" height="0.8" fill="white" stroke="#84A3B4" stroke-width="0.2"/>
<rect x="160.8" y="38.8" width="4.4" height="4.4" rx="0.7" fill="white" stroke="white" stroke-width="0.4"/>
<rect x="161" y="39" width="2" height="2" rx="1" fill="#E57373"/>
<rect x="163" y="39" width="2" height="2" rx="1" fill="#FFF59D"/>
<rect x="161" y="41" width="2" height="2" rx="1" fill="#64B5F6"/>
<rect x="163" y="41" width="2" height="2" rx="1" fill="#484848"/>
<path d="M176.05 88.6499L178 104.9L191 97.4248V82.4749L176.05 88.6499Z" fill="#FB992D"/>
<path d="M178 87.9999V104.9L165 97.4248V82.4749L178 87.9999Z" fill="#FFB739"/>
<path d="M165 82.4749L169.544 85.0878L178.154 82.5581L182.544 77.6125L178 75L165 82.4749Z" fill="#FB992D"/>
<path d="M173.456 87.3371L178 89.9499L191 82.4749L186.456 79.8618L177.783 82.4281L173.456 87.3371Z" fill="#F67A21"/>
<path d="M173.456 93.837L169.544 91.5878V85.0878L173.315 85.3823L173.456 87.3371V93.837Z" fill="#FF9473"/>
<path d="M169.544 85.0878L182.544 77.6125L186.456 79.8618L173.456 87.3371L169.544 85.0878Z" fill="#AF4320"/>
</svg>
