<svg width="291" height="213" viewBox="0 0 291 213" fill="none" xmlns="http://www.w3.org/2000/svg">
<path d="M246.287 12.9526L267.234 34.5937L262.203 47.9787L246.287 12.9526Z" fill="#FFB648"/>
<path d="M246.249 12.9892L280.738 30.037L267.197 34.6303L246.249 12.9892Z" fill="#FFD66C"/>
<g clip-path="url(#clip0_1_84)">
<path d="M127.895 31.3354L128.169 31.1168H128.519H130C133.863 31.1168 137 27.9731 137 24.0876V8.0292C137 4.14365 133.863 1 130 1H98C94.1375 1 91 4.14365 91 8.0292V24.0876C91 27.9731 94.1375 31.1168 98 31.1168H118.677H120.172L119.602 32.4982L116.241 40.6422L127.895 31.3354Z" fill="#FFFBD3" stroke="#AECFFF" stroke-width="2"/>
<path d="M126.16 18.3066C124.216 18.3066 122.64 16.7249 122.64 14.7737C122.64 12.8226 124.216 11.2409 126.16 11.2409C128.104 11.2409 129.68 12.8226 129.68 14.7737C129.68 16.7249 128.104 18.3066 126.16 18.3066Z" fill="#8C8C8C"/>
<path d="M101.84 18.3066C99.896 18.3066 98.32 16.7249 98.32 14.7737C98.32 12.8226 99.896 11.2409 101.84 11.2409C103.784 11.2409 105.36 12.8226 105.36 14.7737C105.36 16.7249 103.784 18.3066 101.84 18.3066Z" fill="#8C8C8C"/>
<path d="M114 18.3066C112.056 18.3066 110.48 16.7249 110.48 14.7737C110.48 12.8226 112.056 11.2409 114 11.2409C115.944 11.2409 117.52 12.8226 117.52 14.7737C117.52 16.7249 115.944 18.3066 114 18.3066Z" fill="#8C8C8C"/>
</g>
<path d="M190.5 138.945H112.5C108.91 138.945 106 141.858 106 145.452V184.493C106 188.087 108.91 191 112.5 191H190.5C194.09 191 197 188.087 197 184.493V145.452C197 141.858 194.09 138.945 190.5 138.945Z" fill="#FFD66C"/>
<path d="M149.813 114.919C150.85 114.289 152.15 114.289 153.187 114.919L192.037 138.532C194.209 139.851 194.096 143.043 191.837 144.206L152.986 164.207C152.054 164.688 150.946 164.688 150.014 164.207L111.163 144.206C108.904 143.043 108.791 139.851 110.963 138.532L149.813 114.919Z" fill="#FFEBA5"/>
<path fill-rule="evenodd" clip-rule="evenodd" d="M186.319 147.047L152.986 164.207C152.054 164.688 150.946 164.688 150.014 164.207L114.121 145.729L113.958 144.405C113.871 143.692 114.378 143.042 115.09 142.955L183.477 134.549C184.189 134.461 184.838 134.969 184.926 135.682L186.319 147.047Z" fill="#E39595"/>
<path d="M151.945 181.89C148.988 181.89 146.355 181.481 144.047 180.663C141.739 179.854 139.788 178.664 138.194 177.094C136.6 175.533 135.386 173.623 134.551 171.366C133.717 169.109 133.3 166.541 133.3 163.663C133.3 160.823 133.717 158.246 134.551 155.932C135.395 153.619 136.623 151.634 138.236 149.979C139.849 148.314 141.818 147.035 144.145 146.142C146.481 145.248 149.141 144.801 152.125 144.801C154.888 144.801 157.353 145.211 159.522 146.029C161.7 146.847 163.545 148.013 165.056 149.527C166.576 151.032 167.73 152.824 168.518 154.902C169.315 156.972 169.709 159.262 169.7 161.773C169.709 163.503 169.561 165.093 169.255 166.541C168.949 167.99 168.467 169.255 167.809 170.336C167.16 171.409 166.307 172.26 165.25 172.889C164.194 173.51 162.915 173.863 161.413 173.947C160.338 174.033 159.467 173.953 158.799 173.708C158.132 173.463 157.622 173.102 157.27 172.621C156.927 172.133 156.704 171.563 156.602 170.915H156.436C156.213 171.479 155.777 171.992 155.129 172.452C154.48 172.904 153.687 173.256 152.751 173.51C151.824 173.755 150.837 173.844 149.79 173.778C148.696 173.713 147.658 173.454 146.675 173.003C145.702 172.551 144.835 171.897 144.075 171.042C143.324 170.186 142.731 169.128 142.296 167.867C141.869 166.607 141.651 165.15 141.642 163.494C141.651 161.858 141.879 160.433 142.323 159.219C142.778 158.006 143.375 156.986 144.117 156.158C144.868 155.33 145.702 154.681 146.62 154.211C147.537 153.741 148.46 153.44 149.386 153.308C150.434 153.148 151.426 153.148 152.362 153.308C153.298 153.468 154.086 153.727 154.725 154.084C155.374 154.442 155.777 154.827 155.935 155.241H156.13V153.661H160.482V167.43C160.491 168.079 160.634 168.582 160.913 168.94C161.191 169.297 161.566 169.476 162.039 169.476C162.678 169.476 163.211 169.189 163.638 168.615C164.073 168.041 164.398 167.162 164.611 165.977C164.833 164.792 164.945 163.282 164.945 161.448C164.945 159.68 164.713 158.128 164.249 156.793C163.795 155.448 163.156 154.305 162.331 153.365C161.515 152.415 160.565 151.644 159.48 151.051C158.396 150.459 157.219 150.026 155.949 149.753C154.688 149.48 153.391 149.344 152.056 149.344C149.748 149.344 147.732 149.701 146.008 150.416C144.284 151.122 142.847 152.114 141.698 153.393C140.548 154.672 139.686 156.172 139.112 157.893C138.546 159.605 138.259 161.472 138.25 163.494C138.259 165.723 138.565 167.698 139.167 169.419C139.779 171.131 140.678 172.57 141.865 173.736C143.051 174.903 144.516 175.786 146.258 176.388C148.001 176.99 150.003 177.291 152.264 177.291C153.33 177.291 154.373 177.211 155.393 177.051C156.412 176.901 157.335 176.713 158.16 176.487C158.985 176.271 159.647 176.059 160.148 175.852L161.524 179.944C160.94 180.282 160.148 180.597 159.147 180.889C158.155 181.19 157.033 181.43 155.782 181.608C154.54 181.796 153.261 181.89 151.945 181.89ZM151.305 169.137C152.436 169.137 153.335 168.916 154.002 168.474C154.679 168.032 155.161 167.378 155.448 166.513C155.745 165.638 155.884 164.561 155.866 163.282C155.856 162.154 155.713 161.199 155.435 160.419C155.166 159.629 154.698 159.031 154.03 158.627C153.372 158.213 152.455 158.006 151.277 158.006C150.248 158.006 149.373 158.227 148.65 158.669C147.936 159.111 147.389 159.732 147.009 160.531C146.638 161.322 146.448 162.253 146.439 163.324C146.448 164.322 146.606 165.267 146.912 166.16C147.217 167.044 147.723 167.764 148.427 168.319C149.132 168.864 150.091 169.137 151.305 169.137Z" fill="white"/>
<path d="M21.4295 64.605C13.1735 50.3052 22.467 44.3542 28.1458 43.1662" stroke="#90CAF9" stroke-width="5" stroke-linecap="round"/>
<path d="M12.2488 67.0768C-0.452757 45.0771 14.0082 35.8275 22.8263 33.9526" stroke="#90CAF9" stroke-width="5" stroke-linecap="round"/>
<rect x="36" y="52.6128" width="52.4924" height="94.3222" rx="5" transform="rotate(-21.9398 36 52.6128)" fill="#D9D9D9"/>
<rect x="40.0298" y="54.1237" width="46.8366" height="78.7385" rx="3" transform="rotate(-21.9398 40.0298 54.1237)" fill="#00C2FF"/>
<circle cx="93.6691" cy="124.438" r="4.51106" transform="rotate(-21.9398 93.6691 124.438)" fill="#6F6F6F"/>
<g clip-path="url(#clip1_1_84)">
<path d="M99.9468 101.809L100.123 101.507L100.449 101.38L101.083 101.134C102.454 100.601 103.138 99.0495 102.6 97.6644L99.9318 90.7962C99.3937 89.4112 97.8419 88.7285 96.4702 89.2615L82.7838 94.5789C81.4121 95.1118 80.7282 96.6631 81.2663 98.0481L83.9347 104.916C84.4728 106.301 86.0246 106.984 87.3963 106.451L96.2399 103.015L97.6329 102.474L97.6018 103.968L97.5614 105.915L99.9468 101.809Z" fill="#FFFBD3" stroke="#AECFFF" stroke-width="2"/>
<path d="M97.5077 96.7972C96.6762 97.1202 95.7393 96.7056 95.4151 95.8711C95.0909 95.0366 95.5021 94.0982 96.3336 93.7752C97.165 93.4521 98.1019 93.8668 98.4261 94.7013C98.7503 95.5358 98.3391 96.4741 97.5077 96.7972Z" fill="#8C8C8C"/>
<path d="M87.106 100.838C86.2745 101.161 85.3376 100.747 85.0134 99.9123C84.6892 99.0778 85.1004 98.1394 85.9319 97.8164C86.7633 97.4934 87.7002 97.908 88.0244 98.7425C88.3486 99.577 87.9374 100.515 87.106 100.838Z" fill="#8C8C8C"/>
<path d="M92.3068 98.8178C91.4753 99.1408 90.5385 98.7262 90.2143 97.8917C89.89 97.0572 90.3012 96.1188 91.1327 95.7958C91.9642 95.4728 92.9011 95.8874 93.2253 96.7219C93.5495 97.5564 93.1383 98.4948 92.3068 98.8178Z" fill="#8C8C8C"/>
</g>
<g clip-path="url(#clip2_1_84)">
<path d="M81.9468 59.8095L82.1227 59.5066L82.4493 59.3797L83.0827 59.1336C84.4544 58.6007 85.1383 57.0495 84.6002 55.6644L81.9318 48.7962C81.3937 47.4112 79.8419 46.7285 78.4702 47.2615L64.7838 52.5789C63.4121 53.1118 62.7282 54.6631 63.2663 56.0481L65.9347 62.9163C66.4728 64.3013 68.0246 64.984 69.3963 64.451L78.2399 61.0151L79.6329 60.4739L79.6018 61.968L79.5614 63.9151L81.9468 59.8095Z" fill="#FFFBD3" stroke="#AECFFF" stroke-width="2"/>
<path d="M79.5077 54.7972C78.6762 55.1202 77.7393 54.7056 77.4151 53.8711C77.0909 53.0366 77.5021 52.0982 78.3336 51.7752C79.165 51.4521 80.1019 51.8668 80.4261 52.7013C80.7503 53.5358 80.3391 54.4741 79.5077 54.7972Z" fill="#8C8C8C"/>
<path d="M69.106 58.8384C68.2745 59.1615 67.3376 58.7468 67.0134 57.9123C66.6892 57.0778 67.1004 56.1394 67.9319 55.8164C68.7633 55.4934 69.7002 55.908 70.0244 56.7425C70.3486 57.577 69.9374 58.5154 69.106 58.8384Z" fill="#8C8C8C"/>
<path d="M74.3068 56.8178C73.4753 57.1408 72.5385 56.7262 72.2143 55.8917C71.89 55.0572 72.3012 54.1188 73.1327 53.7958C73.9642 53.4728 74.9011 53.8874 75.2253 54.7219C75.5495 55.5564 75.1383 56.4948 74.3068 56.8178Z" fill="#8C8C8C"/>
</g>
<g clip-path="url(#clip3_1_84)">
<path d="M64.0117 91.4892L63.6745 91.3943L63.3518 91.5306L62.7258 91.795C61.3701 92.3675 59.7992 91.7301 59.2211 90.3613L56.3545 83.5734C55.7765 82.2046 56.415 80.6342 57.7706 80.0617L71.297 74.3493C72.6526 73.7768 74.2236 74.4142 74.8016 75.783L77.6682 82.5708C78.2463 83.9396 77.6078 85.5101 76.2521 86.0826L67.5119 89.7737L66.1352 90.3551L67.1978 91.4059L68.5825 92.7753L64.0117 91.4892Z" fill="#FFFBD3" stroke="#AECFFF" stroke-width="2"/>
<path d="M62.2727 86.1931C63.0944 85.8461 63.4782 84.8962 63.1299 84.0714C62.7816 83.2467 61.8331 82.8594 61.0114 83.2065C60.1896 83.5535 59.8058 84.5034 60.1541 85.3282C60.5024 86.1529 61.4509 86.5402 62.2727 86.1931Z" fill="#8C8C8C"/>
<path d="M72.5527 81.8517C73.3745 81.5047 73.7583 80.5548 73.41 79.73C73.0617 78.9053 72.1132 78.518 71.2914 78.8651C70.4697 79.2121 70.0859 80.162 70.4342 80.9868C70.7825 81.8115 71.731 82.1988 72.5527 81.8517Z" fill="#8C8C8C"/>
<path d="M67.4127 84.0224C68.2345 83.6754 68.6183 82.7255 68.27 81.9007C67.9217 81.076 66.9731 80.6887 66.1514 81.0358C65.3297 81.3828 64.9459 82.3327 65.2942 83.1575C65.6425 83.9822 66.591 84.3695 67.4127 84.0224Z" fill="#8C8C8C"/>
</g>
<rect x="9.04245" y="171.143" width="14.4472" height="27.0884" rx="7.22359" transform="rotate(-10.2664 9.04245 171.143)" fill="#00AD98"/>
<path fill-rule="evenodd" clip-rule="evenodd" d="M20.9782 196.51C24.9038 195.799 27.5098 192.04 26.7987 188.115L24.5457 175.676C23.8347 171.75 20.076 169.144 16.1504 169.855L20.9782 196.51Z" fill="#474747"/>
<rect x="54.3555" y="162.936" width="14.4472" height="27.0884" rx="7.22359" transform="rotate(-10.2664 54.3555 162.936)" fill="#00AD98"/>
<path fill-rule="evenodd" clip-rule="evenodd" d="M61.4635 161.648C57.5379 162.359 54.9319 166.118 55.643 170.044L57.8959 182.482C58.607 186.408 62.3657 189.014 66.2913 188.303L61.4635 161.648Z" fill="#474747"/>
<path d="M14.9385 168.231C10.0572 140.388 56.7999 132.974 61.5025 159.797" stroke="black" stroke-width="4" stroke-linecap="round"/>
<path d="M67.36 190.403C65.0306 201.608 52.1754 202.407 49.7267 200.709" stroke="black" stroke-width="5" stroke-linecap="round"/>
<circle cx="49.9489" cy="200.669" r="5.64343" transform="rotate(-10.2664 49.9489 200.669)" fill="black"/>
<path d="M238.322 101.855C235.508 96.537 225.129 90.4538 225.129 90.4538C222.78 89.115 219.945 88.9652 218.607 91.3523C218.607 91.3523 215.234 95.3967 214.377 95.978C210.457 98.6333 206.829 98.5296 203.164 94.8661L194.649 86.35L186.134 77.8353C182.469 74.1718 182.367 70.5423 185.023 66.6238C185.602 65.7653 189.648 62.3924 189.648 62.3924C192.034 61.0521 191.886 58.2189 190.545 55.8705C190.545 55.8705 184.464 45.4921 179.144 42.6767C176.881 41.4803 174.103 41.8984 172.293 43.7087L168.531 47.4685C156.604 59.3976 162.476 72.8642 174.405 84.7933L185.305 95.6933L196.207 106.595C208.135 118.524 221.603 124.397 233.53 112.468L237.292 108.706C239.101 106.896 239.52 104.118 238.322 101.855Z" fill="#68A46E"/>
<path d="M193 30.4667C212.357 30.4667 212.951 43.5333 210.828 50.0667" stroke="#248038" stroke-width="3" stroke-linecap="round"/>
<path d="M195.8 23C221.931 23 222.734 41.0444 219.868 50.0667" stroke="#248038" stroke-width="3" stroke-linecap="round"/>
<path d="M234 197.5C321 135.5 264 116.5 254 126C228 155.5 308.6 168.676 286.5 130C256.5 77.5 304 69 281 49" stroke="black" stroke-linecap="round" stroke-dasharray="2 4 6 8"/>
<defs>
<clipPath id="clip0_1_84">
<rect width="48" height="44" fill="white" transform="matrix(-1 0 0 1 138 0)"/>
</clipPath>
<clipPath id="clip1_1_84">
<rect width="22.0247" height="20.1893" fill="white" transform="matrix(-0.932122 0.362144 0.362144 0.932122 99.5297 87)"/>
</clipPath>
<clipPath id="clip2_1_84">
<rect width="22.0247" height="20.1893" fill="white" transform="matrix(-0.932122 0.362144 0.362144 0.932122 81.5297 45)"/>
</clipPath>
<clipPath id="clip3_1_84">
<rect width="22.0247" height="20.1893" fill="white" transform="translate(54 80.5686) rotate(-22.895)"/>
</clipPath>
</defs>
</svg>
