<svg width="260" height="175" viewBox="0 0 260 175" fill="none" xmlns="http://www.w3.org/2000/svg">
<path d="M50.2186 20.6491C49.94 20.2572 49.6477 19.8757 49.3431 19.505C45.5803 14.9258 39.8756 12 33.5001 12C27.1245 12 21.4198 14.9258 17.6568 19.505C17.3521 19.8757 17.06 20.2572 16.7813 20.6491C14.4011 23.9974 13 28.0882 13 32.4999C13 36.937 14.4175 41.0494 16.8228 44.4081C17.1029 44.799 17.3958 45.1801 17.7019 45.5497C21.465 50.0976 27.1498 53 33.5001 53C39.8503 53 45.5352 50.0976 49.2982 45.5497C49.6042 45.1801 49.8973 44.799 50.1772 44.4081C52.5824 41.0494 54 36.937 54 32.4999C54 28.0882 52.599 23.9974 50.2186 20.6491ZM48.1682 20.3434C47.8419 20.5532 47.4994 20.7578 47.1394 20.9558C46.0705 21.5438 44.8957 22.0531 43.6393 22.4804C43.149 20.9226 42.541 19.4721 41.8229 18.1665C40.9178 16.5205 39.8804 15.1817 38.7505 14.1766C42.483 15.2479 45.7501 17.4309 48.1682 20.3434ZM44.059 26.5993C44.2658 26.5993 44.4617 26.6458 44.6385 26.727C45.1187 26.9476 45.4538 27.432 45.4538 27.9943C45.4538 28.4299 45.2529 28.8192 44.9391 29.0752C44.6988 29.271 44.3925 29.389 44.059 29.389C43.8647 29.389 43.6798 29.3491 43.5116 29.277C43.0138 29.0637 42.6639 28.5692 42.6639 27.9942C42.6639 27.5458 42.8776 27.1472 43.2073 26.8918C43.4432 26.7092 43.7382 26.5993 44.059 26.5993ZM34.2203 13.489C36.5859 13.8069 38.8147 15.6858 40.5607 18.8606C41.233 20.0829 41.803 21.443 42.2641 22.906C39.7949 23.5974 37.0632 23.9883 34.2203 24.0448V13.489ZM34.2203 25.4854C37.1952 25.4283 40.0614 25.0178 42.6602 24.2899C42.7539 24.6537 42.8411 25.0233 42.922 25.3977C41.9232 25.8366 41.2236 26.8351 41.2236 27.9943C41.2236 29.4072 42.2625 30.5816 43.6165 30.7947C43.6328 31.1362 43.6442 31.4799 43.6506 31.825H36.2535C36.0068 30.818 35.2208 30.0207 34.2203 29.7577V25.4854ZM42.6382 40.7944C40.0453 40.0701 37.1868 39.6619 34.2203 39.605V35.2423C35.1907 34.9873 35.959 34.2295 36.2295 33.2654H43.6488C43.5927 35.9131 43.2469 38.4636 42.6382 40.7944ZM42.9333 46.0219C42.9332 46.7911 42.3075 47.4168 41.5384 47.4168C41.5217 47.4168 41.5057 47.4148 41.4892 47.4142C40.9575 47.3955 40.5014 47.0787 40.2826 46.6252C40.1943 46.4424 40.1434 46.2383 40.1434 46.0219C40.1434 45.3341 40.644 44.7627 41.2995 44.6488C41.3773 44.6352 41.4568 44.6269 41.5383 44.6269C41.9877 44.6269 42.387 44.8413 42.6423 45.1724C42.824 45.4082 42.9333 45.7021 42.9333 46.0219ZM32.7799 13.489V24.0448C29.9368 23.9883 27.2052 23.5973 24.7358 22.9062C24.8451 22.5595 24.9606 22.2186 25.0819 21.8842C25.1402 21.8877 25.1987 21.8901 25.2578 21.8901C26.8211 21.8901 28.0932 20.6181 28.0932 19.0547C28.0932 18.3702 27.8493 17.7417 27.4441 17.2513C29.0055 15.0516 30.8469 13.7488 32.7799 13.489ZM24.34 24.2899C26.9386 25.018 29.805 25.4283 32.7799 25.4854V29.7577C31.7792 30.0207 30.9934 30.818 30.7466 31.825H23.3494C23.3988 29.1768 23.7379 26.6244 24.34 24.2899ZM23.8628 19.0547C23.8628 18.2855 24.4886 17.6598 25.2578 17.6598C25.3258 17.6598 25.392 17.6663 25.4574 17.6757C25.9832 17.7516 26.4142 18.1204 26.5795 18.6118C26.6263 18.7511 26.6528 18.8998 26.6528 19.0547C26.6528 19.674 26.2468 20.1999 25.6871 20.3813C25.5517 20.4254 25.4076 20.4497 25.2578 20.4497C24.8702 20.4497 24.5194 20.2906 24.2664 20.0347C24.0172 19.7825 23.8628 19.4364 23.8628 19.0547ZM28.2497 14.1766C27.5532 14.796 26.8919 15.5419 26.2755 16.409C25.9592 16.287 25.6163 16.2194 25.2578 16.2194C23.6945 16.2194 22.4224 17.4913 22.4224 19.0548C22.4224 20.0495 22.9378 20.9256 23.715 21.4318C23.5911 21.7755 23.4727 22.1251 23.3608 22.4805C22.1044 22.0532 20.9296 21.5439 19.8606 20.9559C19.5006 20.7578 19.1581 20.5533 18.8318 20.3434C21.2498 17.4309 24.517 15.2479 28.2497 14.1766ZM17.9514 21.4887C18.336 21.7401 18.7403 21.9836 19.1664 22.218C20.3264 22.856 21.601 23.4066 22.9632 23.8654C22.3201 26.3363 21.9592 29.0331 21.9088 31.825H14.4529C14.5873 27.9844 15.8631 24.4288 17.9514 21.4887ZM23.5069 35.9202C23.8832 36.1702 24.132 36.5975 24.132 37.0825C24.132 37.4382 23.9971 37.7624 23.7769 38.009C23.5213 38.2956 23.1505 38.4773 22.7375 38.4773C22.6165 38.4773 22.4995 38.4601 22.3873 38.431C21.7872 38.2751 21.3423 37.7304 21.3423 37.0825C21.3423 36.5607 21.6305 36.1056 22.0558 35.8664C22.2574 35.753 22.4896 35.6874 22.7373 35.6874C23.0217 35.6874 23.2861 35.7735 23.5069 35.9202ZM14.4557 33.2654H21.9107C21.918 33.6317 21.9309 33.9965 21.9489 34.3594C20.768 34.7017 19.9019 35.7923 19.9019 37.0825C19.9019 38.6241 21.1393 39.8817 22.6732 39.9159C22.7687 40.356 22.8727 40.7902 22.9851 41.2176C21.6147 41.6779 20.3328 42.2311 19.1667 42.8724C18.7567 43.0978 18.367 43.3318 17.9956 43.5729C15.8976 40.6436 14.6078 37.0985 14.4557 33.2654ZM18.8813 44.7148C19.1927 44.5162 19.5189 44.3225 19.8606 44.1346C20.9371 43.5425 22.1208 43.0301 23.3869 42.6011C23.8727 44.1279 24.4716 45.5509 25.1772 46.8334C26.0826 48.4795 27.1198 49.8185 28.2499 50.8237C24.5425 49.7597 21.2943 47.5981 18.8813 44.7148ZM32.7799 51.511C30.4141 51.193 28.1853 49.3142 26.4393 46.1395C25.7798 44.9404 25.2189 43.6083 24.7625 42.1769C27.2247 41.4899 29.9471 41.102 32.7799 41.0454V51.511ZM32.7799 39.605C29.8133 39.6619 26.9546 40.0701 24.3617 40.7944C24.2579 40.3966 24.1619 39.9922 24.0735 39.5823C24.9649 39.1038 25.5724 38.1626 25.5724 37.0825C25.5724 35.7433 24.6392 34.6187 23.3891 34.3234C23.3711 33.9728 23.3589 33.6198 23.3511 33.2654H30.7705C31.0412 34.2296 31.8095 34.9873 32.7799 35.2423V39.605ZM34.2203 51.511V41.0454C37.0531 41.102 39.7754 41.4899 42.2376 42.1769C42.126 42.5266 42.0088 42.8711 41.8849 43.2086C41.7712 43.1944 41.6557 43.1865 41.5381 43.1865C39.9749 43.1865 38.703 44.4585 38.703 46.0219C38.703 46.751 38.9798 47.4166 39.4337 47.9196C37.8987 50.0162 36.1029 51.258 34.2203 51.511ZM38.7501 50.8238C39.4144 50.2328 40.0462 49.5261 40.6384 48.71C40.9213 48.8049 41.2238 48.8572 41.5384 48.8572C43.1016 48.8572 44.3736 47.5852 44.3737 46.0219C44.3736 45.0886 43.9202 44.2595 43.2222 43.7424C43.3599 43.3693 43.4899 42.9883 43.613 42.6011C44.8793 43.0302 46.063 43.5425 47.1394 44.1346C47.4812 44.3226 47.8074 44.5162 48.1189 44.7151C45.7057 47.5983 42.4576 49.7597 38.7501 50.8238ZM49.0044 43.5729C48.633 43.3318 48.2433 43.0977 47.8335 42.8724C46.6675 42.2311 45.3854 41.6779 44.0149 41.2176C44.6645 38.7508 45.0323 36.0563 45.0894 33.2654H52.5445C52.3922 37.0985 51.1024 40.6436 49.0044 43.5729ZM52.5471 31.825H45.0913C45.0841 31.4313 45.0709 31.0393 45.0515 30.6498C46.1267 30.2464 46.8943 29.2086 46.8943 27.9943C46.8943 26.528 45.7753 25.318 44.3465 25.1733C44.2519 24.731 44.1487 24.2948 44.0369 23.8653C45.3991 23.4066 46.6736 22.856 47.8335 22.218C48.2597 21.9836 48.6641 21.7399 49.0488 21.4887C51.137 24.4288 52.4129 27.9842 52.5471 31.825Z" fill="#64B5F6"/>
<rect x="196.5" y="12.5" width="49" height="11.9167" rx="1.5" fill="#D9D9D9" stroke="#C0C0C0"/>
<rect x="196.5" y="40.9167" width="49" height="11.9167" rx="1.5" fill="#D9D9D9" stroke="#C0C0C0"/>
<rect x="196.5" y="26.7083" width="49" height="11.9167" rx="1.5" fill="#D9D9D9" stroke="#C0C0C0"/>
<line x1="220.859" y1="53.3333" x2="220.859" y2="64.9583" stroke="#434343"/>
<line x1="204.974" y1="69.625" x2="216.513" y2="69.625" stroke="#434343"/>
<line x1="111.001" y1="69.5" x2="196.001" y2="69.6272" stroke="#434343"/>
<line x1="153" y1="113.5" x2="200" y2="113.5" stroke="#434343"/>
<line x1="200.5" y1="74" x2="200.5" y2="114" stroke="#434343"/>
<line x1="225.487" y1="69.625" x2="237.026" y2="69.625" stroke="#434343"/>
<line x1="220.359" y1="47.6667" x2="240.872" y2="47.6667" stroke="#8A8A8A"/>
<line x1="220.359" y1="19.25" x2="240.872" y2="19.25" stroke="#8A8A8A"/>
<line x1="220.359" y1="33.4583" x2="240.872" y2="33.4583" stroke="#8A8A8A"/>
<path d="M224.987 69.4792C224.987 71.7033 223.199 73.5 221 73.5C218.801 73.5 217.013 71.7033 217.013 69.4792C217.013 67.255 218.801 65.4583 221 65.4583C223.199 65.4583 224.987 67.255 224.987 69.4792Z" fill="#D9D9D9" stroke="#C0C0C0"/>
<path d="M245.5 69.4792C245.5 71.7033 243.711 73.5 241.513 73.5C239.314 73.5 237.526 71.7033 237.526 69.4792C237.526 67.255 239.314 65.4583 241.513 65.4583C243.711 65.4583 245.5 67.255 245.5 69.4792Z" fill="#D9D9D9" stroke="#C0C0C0"/>
<path d="M204.474 69.4792C204.474 71.7033 202.686 73.5 200.487 73.5C198.289 73.5 196.5 71.7033 196.5 69.4792C196.5 67.255 198.289 65.4583 200.487 65.4583C202.686 65.4583 204.474 67.255 204.474 69.4792Z" fill="#D9D9D9" stroke="#C0C0C0"/>
<ellipse cx="210.103" cy="18.4583" rx="2.5641" ry="2.58333" fill="#FFA726"/>
<ellipse cx="202.41" cy="18.4583" rx="2.5641" ry="2.58333" fill="#2FC822"/>
<ellipse cx="210.103" cy="46.875" rx="2.5641" ry="2.58333" fill="#FFA726"/>
<ellipse cx="202.41" cy="46.875" rx="2.5641" ry="2.58333" fill="#2FC822"/>
<ellipse cx="210.103" cy="32.6667" rx="2.5641" ry="2.58333" fill="#FF5858"/>
<ellipse cx="202.41" cy="32.6667" rx="2.5641" ry="2.58333" fill="#FF5858"/>
<path d="M35 64.5H103.26C105.193 64.5 106.76 66.067 106.76 68V109.256H31.5V68C31.5 66.067 33.067 64.5 35 64.5Z" fill="#C0F0FF" stroke="#727272"/>
<path d="M107.26 114.472C107.26 116.681 105.469 118.472 103.26 118.472L35 118.472C32.7909 118.472 31 116.681 31 114.472L31 109.756L107.26 109.756L107.26 114.472Z" fill="#C6C6C6"/>
<path d="M62.1266 118.472H76.1336L78.935 129.366H59.3252L62.1266 118.472Z" fill="#C6C6C6"/>
<path d="M62.1266 118.472H76.1336L77.5732 123.919L61.2317 122.012L62.1266 118.472Z" fill="#626262"/>
<rect x="53.3333" y="129.366" width="31.5935" height="1.63415" fill="#626262"/>
<rect x="162" y="95.4062" width="19" height="34.1406" rx="3" fill="#D9D9D9"/>
<rect x="163" y="97" width="17" height="28" rx="2" fill="#C0F0FF"/>
<circle cx="171.648" cy="127.32" r="1.63281" fill="#6F6F6F"/>
<rect x="119" y="84" width="35.1137" height="46" rx="5" fill="#D9D9D9"/>
<rect x="120.951" y="85.4631" width="31.6998" height="41.9413" rx="3" fill="#C0F0FF"/>
<rect x="134.606" y="127.892" width="3.90152" height="1.46307" rx="0.731535" fill="#6F6F6F"/>
<path d="M74.4501 94.433L74.2938 94.5883L74.3029 94.8085C74.3691 96.3974 74.37 97.1506 74.3234 97.522C74.3157 97.5833 74.3075 97.6253 74.301 97.6529L72.244 98.4842C72.2186 98.4688 72.1798 98.443 72.1252 98.4007C71.8244 98.1678 71.283 97.6326 70.1889 96.4648L70.0433 96.3094L69.8303 96.3067L68.8838 96.2947L68.6605 96.2919L68.5093 96.4564C67.4504 97.6087 66.9277 98.1323 66.6367 98.3573C66.5882 98.3948 66.5531 98.4183 66.5295 98.4327L64.4875 97.5403C64.3657 96.59 64.3371 95.63 64.4023 94.674L64.4174 94.4529L64.2637 94.2932L63.5887 93.5919L63.4358 93.4331L63.2154 93.4389C61.6527 93.4797 60.9122 93.4686 60.5469 93.4167C60.4839 93.4078 60.4414 93.3987 60.4142 93.3916L59.5623 91.2827C59.5767 91.2576 59.6014 91.2189 59.6428 91.1636C59.8663 90.8645 60.3834 90.3249 61.5174 89.2325L61.6705 89.085V88.8724V87.8974V87.6832L61.5153 87.5354C60.5411 86.6075 60.0374 86.0861 59.7755 85.7907C59.6444 85.6428 59.5813 85.5598 59.5519 85.5168C59.5449 85.5066 59.5403 85.4994 59.5375 85.4948L59.5346 85.4899L59.5346 85.4899C59.5344 85.4893 59.534 85.4885 59.5336 85.4875C59.5336 85.4873 59.5335 85.4871 59.5334 85.4869L59.533 85.486L59.5361 85.4768L60.3861 83.4105C60.414 83.4035 60.4583 83.3944 60.5249 83.3856C60.8951 83.3371 61.6425 83.332 63.2159 83.3834L63.432 83.3905L63.5852 83.2378L64.255 82.5703L64.4104 82.4154L64.4016 82.1962C64.3381 80.6083 64.3386 79.855 64.3857 79.4832C64.3937 79.4202 64.4022 79.3773 64.4089 79.3496L66.4719 78.5154C66.497 78.5307 66.5351 78.5563 66.5888 78.598C66.8884 78.8311 67.427 79.3661 68.5201 80.533L68.6652 80.6879L68.8775 80.6911L69.824 80.7054L70.0481 80.7088L70.1998 80.5436C71.2621 79.3868 71.7857 78.8638 72.0765 78.6418C72.1209 78.6079 72.1537 78.586 72.1765 78.572L72.1812 78.5741L74.2181 79.4644C74.3414 80.4156 74.3708 81.3767 74.3059 82.3339L74.2909 82.5556L74.4454 82.7154L75.1204 83.4129L75.2735 83.571L75.4934 83.565C77.0558 83.5223 77.7968 83.5348 78.1618 83.5874C78.2256 83.5966 78.2684 83.6059 78.2957 83.6131L79.147 85.7162C79.1325 85.7413 79.1077 85.7802 79.0662 85.8356C78.8423 86.1348 78.3248 86.6745 77.1909 87.7668L77.0378 87.9143V88.1269V89.1049V89.3191L77.1927 89.4668C78.1647 90.3936 78.6685 90.9152 78.9311 91.2114C79.0625 91.3596 79.126 91.4431 79.1559 91.4867C79.1661 91.5017 79.1713 91.5103 79.1733 91.5138C79.1734 91.5141 79.1736 91.5146 79.1738 91.515L79.1739 91.5153L79.1739 91.5154L79.1761 91.5209L79.1738 91.5281L78.3265 93.5907C78.2986 93.5978 78.254 93.607 78.1866 93.6158C77.8159 93.6641 77.0682 93.6689 75.4938 93.6174L75.2782 93.6104L75.1251 93.7624L74.4501 94.433ZM65.442 90.0734L65.442 90.0734L65.4441 90.0787C65.8589 91.1265 66.6719 91.9672 67.7051 92.4169C68.7383 92.8667 69.9076 92.8887 70.9571 92.4783L70.9571 92.4784L70.9624 92.4762C71.7327 92.1648 72.3937 91.6328 72.8627 90.947C73.3317 90.2612 73.5877 89.4522 73.5986 88.6214C73.6095 87.7907 73.3749 86.9752 72.924 86.2774C72.4732 85.5795 71.8263 85.0304 71.0645 84.6988C70.3028 84.3672 69.46 84.268 68.6421 84.4136C67.8241 84.5592 67.0674 84.9431 66.4668 85.5172C65.8663 86.0913 65.4486 86.83 65.2663 87.6405C65.084 88.4511 65.1451 89.2974 65.442 90.0734ZM79.1742 91.5155C79.1742 91.5155 79.1743 91.5156 79.1742 91.5155Z" fill="#99B8C4" stroke="#6C95A5"/>
<path d="M140.623 111.233L140.464 111.389L140.474 111.611C140.528 112.9 140.528 113.501 140.491 113.791C140.489 113.809 140.486 113.825 140.484 113.839L138.882 114.477C138.867 114.467 138.849 114.454 138.827 114.438C138.587 114.254 138.148 113.827 137.249 112.88L137.103 112.727L136.892 112.725L136.115 112.715L135.894 112.712L135.743 112.874C134.872 113.809 134.449 114.226 134.217 114.403C134.2 114.416 134.186 114.426 134.173 114.435L132.587 113.751C132.493 113.006 132.473 112.254 132.524 111.505L132.54 111.282L132.383 111.121L131.829 110.554L131.677 110.397L131.459 110.403C130.173 110.436 129.573 110.427 129.282 110.386C129.259 110.383 129.24 110.38 129.225 110.377L128.563 108.763C128.572 108.75 128.584 108.734 128.597 108.716C128.775 108.481 129.194 108.05 130.126 107.164L130.282 107.016V106.802V106.012V105.796L130.124 105.648C129.325 104.897 128.914 104.477 128.701 104.241C128.615 104.145 128.566 104.084 128.54 104.049L129.201 102.464C129.217 102.461 129.238 102.458 129.263 102.454C129.558 102.416 130.165 102.412 131.458 102.453L131.672 102.46L131.825 102.31L132.375 101.77L132.533 101.614L132.524 101.393C132.472 100.105 132.473 99.5044 132.51 99.2136C132.513 99.1941 132.515 99.1775 132.518 99.1634L134.125 98.5226C134.139 98.5326 134.157 98.5453 134.178 98.5614C134.417 98.7448 134.854 99.1719 135.753 100.118L135.898 100.271L136.108 100.274L136.885 100.285L137.107 100.289L137.258 100.126C138.132 99.1878 138.556 98.7712 138.787 98.5972C138.802 98.5862 138.814 98.577 138.826 98.5693L140.412 99.253C140.506 99.9987 140.528 100.752 140.476 101.501L140.461 101.726L140.618 101.886L141.172 102.451L141.325 102.606L141.543 102.6C142.827 102.566 143.428 102.576 143.719 102.618C143.742 102.621 143.762 102.624 143.777 102.627L144.438 104.236C144.429 104.25 144.418 104.265 144.404 104.283C144.226 104.518 143.807 104.95 142.874 105.836L142.719 105.983V106.198V106.99V107.206L142.876 107.354C143.674 108.104 144.085 108.524 144.298 108.761C144.387 108.86 144.436 108.921 144.462 108.956L143.803 110.537C143.786 110.54 143.766 110.544 143.741 110.547C143.444 110.585 142.838 110.589 141.543 110.548L141.33 110.541L141.177 110.69L140.623 111.233ZM133.206 107.81L133.206 107.81L133.208 107.815C133.558 108.688 134.244 109.386 135.113 109.759C135.982 110.132 136.964 110.15 137.847 109.81L137.847 109.81L137.852 109.808C138.5 109.55 139.057 109.108 139.453 108.537C139.849 107.967 140.065 107.293 140.074 106.6C140.084 105.907 139.885 105.227 139.504 104.646C139.124 104.066 138.579 103.61 137.938 103.335C137.297 103.06 136.589 102.977 135.901 103.098C135.214 103.219 134.577 103.537 134.071 104.014C133.564 104.491 133.212 105.106 133.057 105.782C132.903 106.458 132.955 107.163 133.206 107.81Z" fill="#99B8C4" stroke="#6C95A5"/>
<path d="M199.27 156.15L205.417 150.084C205.417 150.084 207.254 150.084 209.091 151.918C210.928 153.751 210.928 155.585 210.928 155.585L204.782 161.722C208.244 162.569 212.412 161.44 214.956 158.901C218.771 155.092 215.38 150.225 216.369 149.237C221.739 143.665 226.318 138.809 226.318 138.809L218.946 137.511C218.734 137.722 217.005 139.503 211.706 144.793C210.716 145.781 206.053 142.183 202.097 146.063C199.624 148.602 198.423 152.693 199.27 156.15Z" fill="#6E8E9D"/>
<path d="M205.417 150.084V149.584H205.212L205.066 149.728L199.586 155.136C199.166 152.062 200.306 148.621 202.451 146.416C204.271 144.634 206.237 144.56 207.933 144.837C208.506 144.93 209.013 145.056 209.488 145.174C209.746 145.237 209.994 145.299 210.238 145.351C210.563 145.422 210.889 145.477 211.179 145.472C211.468 145.468 211.803 145.402 212.059 145.147C214.709 142.501 216.467 140.733 217.589 139.599C218.342 138.839 218.805 138.367 219.061 138.106C219.081 138.086 219.1 138.066 219.118 138.048L225.317 139.141C225.266 139.194 225.212 139.251 225.155 139.311C224.642 139.853 223.902 140.634 222.995 141.589C221.18 143.498 218.694 146.103 216.012 148.887C215.762 149.139 215.693 149.472 215.681 149.76C215.669 150.052 215.715 150.383 215.775 150.718C215.822 150.975 215.878 151.236 215.936 151.508C216.039 151.989 216.148 152.502 216.227 153.078C216.464 154.818 216.353 156.799 214.603 158.547C212.402 160.744 208.9 161.837 205.804 161.408L211.282 155.939L211.428 155.793V155.585H210.928C211.428 155.585 211.428 155.585 211.428 155.585L211.428 155.584L211.428 155.583L211.428 155.58L211.428 155.572L211.428 155.548C211.427 155.529 211.426 155.502 211.424 155.47C211.419 155.404 211.411 155.313 211.395 155.199C211.362 154.972 211.298 154.656 211.173 154.281C210.922 153.528 210.424 152.542 209.445 151.564C208.465 150.586 207.477 150.089 206.723 149.838C206.347 149.713 206.031 149.65 205.804 149.617C205.69 149.601 205.599 149.593 205.533 149.588C205.5 149.586 205.474 149.585 205.455 149.584L205.431 149.584L205.423 149.584L205.42 149.584L205.418 149.584L205.418 149.584C205.418 149.584 205.417 149.584 205.417 150.084Z" stroke="black" stroke-opacity="0.15"/>
<path d="M245.73 120.85L239.583 126.916C239.583 126.916 237.746 126.916 235.909 125.082C234.072 123.249 234.072 121.415 234.072 121.415L240.218 115.278C236.756 114.431 232.588 115.56 230.044 118.099C226.229 121.908 229.62 126.775 228.631 127.763C223.261 133.335 219.088 137.299 218.946 137.511L226.318 138.809C226.318 138.809 227.995 137.497 233.294 132.207C234.284 131.219 238.947 134.817 242.903 130.937C245.376 128.398 246.577 124.307 245.73 120.85Z" fill="#8AA1AC"/>
<path d="M226.178 138.277L219.968 137.183C220.015 137.137 220.064 137.088 220.115 137.038C220.282 136.874 220.472 136.686 220.685 136.477C221.103 136.066 221.606 135.57 222.18 135.002C223.913 133.288 226.301 130.902 228.988 128.113C229.238 127.861 229.307 127.528 229.319 127.24C229.331 126.948 229.285 126.617 229.225 126.282C229.178 126.025 229.122 125.764 229.064 125.492C228.961 125.011 228.852 124.498 228.773 123.922C228.536 122.182 228.647 120.201 230.397 118.453C232.598 116.256 236.1 115.163 239.196 115.592L233.718 121.061L233.572 121.207V121.415L234.072 121.415C233.572 121.415 233.572 121.415 233.572 121.415L233.572 121.416L233.572 121.417L233.572 121.42L233.572 121.428L233.572 121.452C233.573 121.471 233.574 121.498 233.576 121.53C233.581 121.596 233.589 121.687 233.605 121.801C233.638 122.028 233.702 122.344 233.827 122.719C234.078 123.472 234.576 124.458 235.555 125.436C236.535 126.414 237.523 126.911 238.277 127.162C238.653 127.287 238.969 127.35 239.196 127.383C239.31 127.399 239.401 127.407 239.467 127.412C239.5 127.414 239.526 127.415 239.545 127.416L239.569 127.416L239.577 127.416L239.58 127.416L239.582 127.416L239.582 127.416C239.582 127.416 239.583 127.416 239.583 126.916V127.416H239.788L239.934 127.272L245.414 121.864C245.834 124.938 244.694 128.379 242.549 130.584C240.729 132.366 238.763 132.44 237.067 132.163C236.494 132.07 235.987 131.944 235.512 131.826C235.254 131.763 235.006 131.701 234.762 131.649C234.437 131.578 234.111 131.523 233.821 131.528C233.532 131.532 233.197 131.598 232.941 131.853C230.295 134.494 228.557 136.14 227.482 137.123C226.944 137.614 226.573 137.94 226.337 138.142C226.275 138.195 226.222 138.24 226.178 138.277Z" stroke="white" stroke-opacity="0.2"/>
<path d="M164.417 122.155L166.023 118.708C166.023 118.708 166.781 118.427 167.82 118.904C168.859 119.381 169.14 120.139 169.14 120.139L167.544 123.615C169.102 123.435 170.65 122.331 171.31 120.893C172.301 118.735 170.156 117.242 170.412 116.683C171.774 113.558 172.92 110.851 172.92 110.851L169.679 111.442C169.624 111.562 169.183 112.562 167.807 115.559C167.551 116.119 165.075 115.345 164.037 117.554C163.406 118.982 163.537 120.856 164.417 122.155Z" fill="#6E8E9D"/>
<path d="M166.023 118.708L165.85 118.239L165.657 118.31L165.57 118.496L164.399 121.01C164.033 119.973 164.059 118.745 164.492 117.761C164.918 116.86 165.618 116.564 166.311 116.429C166.553 116.382 166.759 116.359 166.965 116.336C167.083 116.322 167.202 116.309 167.327 116.291C167.476 116.27 167.645 116.24 167.796 116.181C167.945 116.123 168.152 116.007 168.262 115.768C168.95 114.269 169.405 113.268 169.694 112.627C169.851 112.281 169.958 112.043 170.028 111.886L172.097 111.509C171.99 111.76 171.862 112.06 171.717 112.398C171.261 113.464 170.635 114.92 169.955 116.48C169.85 116.713 169.894 116.942 169.942 117.091C169.992 117.244 170.075 117.396 170.153 117.528C170.221 117.641 170.287 117.746 170.354 117.852C170.466 118.027 170.578 118.204 170.695 118.424C171.039 119.069 171.259 119.806 170.856 120.684L171.31 120.893L170.856 120.684C170.403 121.669 169.47 122.488 168.43 122.884L169.595 120.347L169.681 120.159L169.609 119.965L169.14 120.139C169.609 119.965 169.609 119.964 169.609 119.964L169.609 119.964L169.608 119.963L169.608 119.96L169.605 119.955L169.6 119.941C169.595 119.93 169.59 119.917 169.582 119.9C169.568 119.868 169.547 119.825 169.52 119.774C169.464 119.672 169.381 119.537 169.26 119.387C169.017 119.084 168.627 118.724 168.029 118.449C167.431 118.175 166.903 118.114 166.516 118.127C166.323 118.133 166.166 118.158 166.052 118.182C165.996 118.195 165.95 118.207 165.916 118.217C165.899 118.222 165.885 118.227 165.874 118.23L165.859 118.235L165.854 118.237L165.852 118.238L165.851 118.238L165.85 118.239C165.85 118.239 165.85 118.239 166.023 118.708Z" stroke="black" stroke-opacity="0.15"/>
<path d="M178.177 100.459L176.57 103.907C176.57 103.907 175.813 104.188 174.774 103.711C173.735 103.234 173.454 102.476 173.454 102.476L175.05 98.9992C173.491 99.179 171.944 100.283 171.284 101.722C170.293 103.879 172.438 105.372 172.182 105.932C170.82 109.056 169.705 111.333 169.679 111.442L172.92 110.851C172.92 110.851 173.411 110.052 174.786 107.055C175.043 106.496 177.519 107.269 178.557 105.06C179.188 103.633 179.057 101.758 178.177 100.459Z" fill="#8AA1AC"/>
<path d="M172.6 110.401L170.533 110.778C170.634 110.562 170.752 110.311 170.883 110.028C171.336 109.053 171.956 107.7 172.638 106.135C172.744 105.901 172.7 105.673 172.651 105.524C172.601 105.37 172.519 105.219 172.44 105.086C172.373 104.973 172.307 104.868 172.24 104.763C172.128 104.587 172.016 104.41 171.899 104.191C171.555 103.546 171.335 102.808 171.738 101.93C172.191 100.945 173.124 100.127 174.164 99.7304L172.999 102.267L172.913 102.455L172.985 102.65L173.454 102.476C172.985 102.65 172.985 102.65 172.985 102.65L172.985 102.651L172.986 102.652L172.986 102.654L172.988 102.659L172.994 102.673C172.998 102.684 173.004 102.698 173.011 102.714C173.026 102.746 173.047 102.789 173.074 102.84C173.129 102.942 173.213 103.077 173.334 103.228C173.577 103.53 173.967 103.891 174.565 104.165C175.163 104.44 175.691 104.5 176.078 104.487C176.271 104.481 176.428 104.456 176.542 104.432C176.598 104.42 176.644 104.407 176.678 104.397C176.695 104.392 176.709 104.388 176.72 104.384L176.735 104.379L176.74 104.377L176.742 104.376L176.743 104.376L176.744 104.376C176.744 104.376 176.744 104.375 176.57 103.907L176.744 104.375L176.937 104.304L177.024 104.118L178.195 101.605C178.561 102.641 178.535 103.869 178.102 104.853C177.676 105.754 176.976 106.05 176.283 106.185C176.041 106.233 175.835 106.256 175.629 106.279C175.511 106.292 175.392 106.305 175.267 106.323C175.118 106.344 174.949 106.375 174.798 106.433C174.649 106.492 174.442 106.607 174.332 106.846C173.646 108.34 173.183 109.282 172.892 109.849C172.761 110.104 172.665 110.283 172.6 110.401Z" stroke="white" stroke-opacity="0.2"/>
</svg>
