<svg width="260" height="176" viewBox="0 0 260 176" fill="none" xmlns="http://www.w3.org/2000/svg">
<path d="M62.5686 120.243L43.8733 115.234L44.7033 112.136C44.9978 111.037 45.4417 106.015 44.4134 105.74C43.3852 105.464 41.2587 110.035 40.9642 111.134L40.1342 114.232L21.4389 109.222C19.8498 108.796 18.2865 109.77 17.8581 111.369C17.4297 112.967 18.2969 114.592 19.886 115.018C21.4751 115.444 23.0383 114.47 23.4667 112.871C23.5203 112.672 30.3948 118.798 38.1933 121.101L29.5184 153.477C25.0714 152.499 24.2139 154.84 23.8658 156.139L17.444 154.418C16.6961 154.218 15.9746 154.667 15.7872 155.366L14.9304 158.564C14.743 159.263 15.1432 160.013 15.891 160.214L19.7236 161.24C20.4714 161.441 21.1929 160.992 21.3803 160.292L21.5677 159.593L36.8979 163.7L36.7105 164.4C36.5231 165.099 36.9233 165.849 37.6711 166.049L41.5036 167.076C42.2515 167.277 42.973 166.828 43.1604 166.128L44.0172 162.931C44.2046 162.231 43.8044 161.481 43.0566 161.281L36.616 159.555C36.9641 158.256 37.4104 155.805 33.0705 154.428L41.7454 122.053C49.7177 124.082 58.6407 122.189 58.6139 122.289C58.1856 123.888 59.0527 125.513 60.6418 125.938C62.2309 126.364 63.7942 125.391 64.2225 123.792C65.0248 122.293 64.1577 120.669 62.5686 120.243Z" fill="#E7D082"/>
<path d="M4.64512 138.994L19.9527 115.143L21.1365 144.376" fill="#E7D082"/>
<path d="M45.4136 150.988L60.9889 126.138L61.9985 156.396" fill="#E7D082"/>
<path d="M21.2704 143.877C20.7616 145.775 16.5674 146.472 11.8936 145.22C7.21974 143.967 3.93584 141.267 4.44455 139.368C12.8164 132.465 12.1058 143.231 21.2704 143.877Z" fill="#E7D082"/>
<path d="M61.9907 156.163C61.482 158.062 57.3359 158.467 52.6621 157.215C47.9883 155.962 44.7044 153.262 45.2131 151.363C57.5645 147.444 53.3781 154.954 61.9907 156.163Z" fill="#E7D082"/>
<path d="M4.64512 138.994L19.9527 115.143L21.1365 144.376M45.4136 150.988L60.9889 126.138L61.9985 156.396M62.5686 120.243L43.8733 115.234L44.7033 112.136C44.9978 111.037 45.4417 106.015 44.4134 105.74C43.3852 105.464 41.2587 110.035 40.9642 111.134L40.1342 114.232L21.4389 109.222C19.8498 108.796 18.2865 109.77 17.8581 111.369C17.4297 112.967 18.2969 114.592 19.886 115.018C21.4751 115.444 23.0383 114.47 23.4667 112.871C23.5203 112.672 30.3948 118.798 38.1933 121.101L29.5184 153.477C25.0714 152.499 24.2139 154.84 23.8658 156.139L17.444 154.418C16.6961 154.218 15.9746 154.667 15.7872 155.366L14.9304 158.564C14.743 159.263 15.1432 160.013 15.891 160.214L19.7236 161.24C20.4714 161.441 21.1929 160.992 21.3803 160.292L21.5677 159.593L36.8979 163.7L36.7105 164.4C36.5231 165.099 36.9233 165.849 37.6711 166.049L41.5036 167.076C42.2515 167.277 42.973 166.828 43.1604 166.128L44.0172 162.931C44.2046 162.231 43.8044 161.481 43.0566 161.281L36.616 159.555C36.9641 158.256 37.4104 155.805 33.0705 154.428L41.7454 122.053C49.7177 124.082 58.6407 122.189 58.6139 122.289C58.1856 123.888 59.0527 125.513 60.6418 125.938C62.2309 126.364 63.7942 125.391 64.2225 123.792C65.0248 122.293 64.1577 120.669 62.5686 120.243ZM21.2704 143.877C20.7616 145.775 16.5674 146.472 11.8936 145.22C7.21974 143.967 3.93584 141.267 4.44455 139.368C12.8164 132.465 12.1058 143.231 21.2704 143.877ZM61.9907 156.163C61.482 158.062 57.3359 158.467 52.6621 157.215C47.9883 155.962 44.7044 153.262 45.2131 151.363C57.5645 147.444 53.3781 154.954 61.9907 156.163Z" stroke="#B18000" stroke-linejoin="round"/>
<g clip-path="url(#clip0_1_89)">
<path d="M166.26 125.21L166.26 129.04H172.643L173.92 127.125L172.643 125.21L166.26 125.21Z" fill="#95341D"/>
<path d="M190.048 123.276C188.63 123.276 187.394 124.046 186.731 125.191H170.899V129.021H186.731C187.394 130.165 188.63 130.935 190.048 130.935C192.163 130.935 193.877 129.221 193.877 127.106C193.877 124.99 192.163 123.276 190.048 123.276Z" fill="#AB5D4A"/>
<path d="M174.092 143.676L170.393 144.668L175.789 152.473L179.488 151.482L178.001 145.933C177.545 144.231 175.795 143.22 174.092 143.676Z" fill="#AB5D4A"/>
<path d="M170.393 144.668L151.897 149.624C150.194 150.08 149.184 151.83 149.64 153.532L151.127 159.081L175.789 152.473L174.302 146.924C173.846 145.222 172.096 144.211 170.393 144.668Z" fill="#C08577"/>
<path d="M168.663 116.465L150.821 119.018V134.337L168.663 136.891V116.465Z" fill="#F5AC51"/>
<path d="M162.31 112.635L164.864 119.018H168.693V112.635H162.31Z" fill="#792A18"/>
<path d="M164.864 112.635H150.821V119.018H164.864V112.635Z" fill="#95341D"/>
<path d="M162.31 140.72H168.693V134.337H164.864L162.31 140.72Z" fill="#AB5D4A"/>
<path d="M164.864 134.337H150.821V140.72H164.864V134.337Z" fill="#C08577"/>
<path d="M168.693 138.167H164.864V143.167H168.693C170.456 143.167 171.885 142.048 171.885 140.667C171.885 139.286 170.456 138.167 168.693 138.167Z" fill="#95341D"/>
<path d="M168.055 140.667C168.055 139.286 166.626 138.167 164.864 138.167H150.821C149.058 138.167 147.629 139.286 147.629 140.667C147.629 142.048 149.058 143.167 150.821 143.167H164.864C166.626 143.167 168.055 142.048 168.055 140.667Z" fill="#AB5D4A"/>
<path d="M168.693 108.805H164.864V113.805H168.693C170.456 113.805 171.885 112.686 171.885 111.305C171.885 109.925 170.456 108.805 168.693 108.805Z" fill="#AB5D4A"/>
<path d="M168.055 111.305C168.055 109.925 166.626 108.805 164.864 108.805H150.821C149.058 108.805 147.629 109.925 147.629 111.305C147.629 112.686 149.058 113.805 150.821 113.805H164.864C166.626 113.805 168.055 112.686 168.055 111.305Z" fill="#C08577"/>
<path d="M178.497 147.783L174.797 148.774L184.432 160.069L188.131 159.078L186.314 152.296C185.402 148.891 181.902 146.87 178.497 147.783Z" fill="#95341D"/>
<path d="M174.797 148.774L150.135 155.382C146.73 156.295 144.71 159.795 145.622 163.2L147.439 169.982L184.432 160.069L182.615 153.287C181.702 149.882 178.202 147.862 174.797 148.774Z" fill="#AB5D4A"/>
</g>
<g clip-path="url(#clip1_1_89)">
<path d="M222.088 25.616C221.547 25.5715 213.97 24.6862 202.225 23.3006C198.991 22.9248 196.107 22.605 195.804 22.6118C194.447 22.6007 192.868 23.2849 191.824 24.3135C191.243 24.8875 190.456 26.275 190.226 27.1316C189.836 28.5874 190.087 30.3281 190.868 31.5937C192.541 34.3192 196.164 34.8372 198.138 32.6362C198.745 31.9683 199.038 30.8262 198.865 29.8744C198.638 28.5176 197.66 27.3749 196.486 27.0603C195.524 26.8024 193.94 27.3595 193.764 28.0167C193.679 28.3337 194.014 28.9143 194.331 28.9992C194.46 29.0338 194.818 28.9664 195.13 28.8355C195.949 28.5016 196.491 28.6848 196.912 29.4138C197.368 30.203 197.359 30.8926 196.883 31.495C196.245 32.2799 195.052 32.5517 194.027 32.1515C191.313 31.0589 190.93 27.3208 193.335 25.247C194.502 24.226 195.817 24.0627 197.793 24.6675C198.911 25.0049 199.101 25.0931 199.711 25.6341C201.771 27.4316 202.324 31.0023 201.426 36.7007C200.983 39.5766 200.371 42.2812 198.592 49.2033C195.709 60.4341 195.014 64.0606 195.003 67.996C194.988 72.937 196.591 75.7823 200.036 76.919C201.054 77.2544 201.856 77.3564 211.001 78.2593C229.578 80.1163 228.715 80.0491 229.777 79.843C230.801 79.639 231.905 79.0415 232.678 78.2672C233.26 77.6933 234.046 76.3064 234.276 75.4492C234.981 72.8198 233.713 70.0388 231.331 68.9727C230.694 68.6758 230.243 68.6185 226.861 68.2782C224.801 68.0784 223.05 67.8986 222.991 67.8829C222.85 67.8451 222.983 66.5975 223.341 64.4161C223.64 62.5961 223.592 62.2566 222.982 62.0931C222.806 62.0459 222.504 62.0911 222.341 62.1853C222.044 62.3572 222.007 62.4479 221.778 63.5824C221.652 64.2406 221.47 65.4372 221.379 66.2435C221.26 67.2054 221.169 67.6841 221.066 67.6943C221.001 67.7018 217.166 67.316 212.548 66.8463C207.93 66.3767 203.907 65.9906 203.598 65.9705C201.297 65.8697 199.474 67.6466 199.618 69.8361C199.661 70.5653 200.257 71.7692 200.82 72.2977C201.456 72.883 202.569 73.1439 203.395 72.9249C204.527 72.5989 205.02 72.0266 204.659 71.4012C204.418 70.9846 203.998 70.9098 203.312 71.1665C202.651 71.4296 202.253 71.361 201.822 70.9057C201.057 70.097 201.114 68.8035 201.947 68.1838C202.682 67.6507 203.456 67.5308 204.359 67.8231C206.755 68.6035 207.53 71.3904 206.031 73.7945C205.61 74.4742 205.424 74.6511 204.635 75.1063C203.4 75.8195 202.771 75.8653 200.951 75.3776C199.671 75.0348 199.561 74.9796 198.903 74.4264C197.183 72.9585 196.483 70.4056 196.738 66.4475C196.955 63.0079 197.624 59.8527 200.537 48.277C202.821 39.1884 203.175 37.4458 203.439 33.8299C203.575 32.0543 203.502 29.9333 203.273 28.8153C202.983 27.4544 202.332 25.9843 201.649 25.1086C201.545 24.98 201.52 24.8852 201.59 24.9041C201.861 24.9765 221.112 27.2285 221.801 27.2869C222.187 27.3021 223.053 27.4965 223.701 27.7079C225.221 28.1902 226.003 28.7906 226.722 30.0522C228.011 32.2846 228.043 36.6726 226.814 42.4827C226.651 43.2317 226.514 43.9753 226.512 44.1256C226.462 44.8296 227.336 45.2775 227.848 44.8233C228.099 44.5888 228.164 44.392 228.551 42.4326C230.188 34.1142 229.578 29.5844 226.501 27.2122C225.515 26.4459 223.575 25.7497 222.088 25.616ZM231.467 71.0092C232.875 72.1412 233.171 74.4606 232.128 76.1944C231.418 77.3881 230.476 78.0417 229.201 78.2414C228.808 78.2994 224.961 77.961 217.733 77.2318C211.752 76.6362 206.728 76.133 206.566 76.1269C206.292 76.1162 206.292 76.1162 206.833 75.5064C208.594 73.537 208.988 70.7995 207.829 68.6896L207.466 68.0257L208.287 68.1072C208.741 68.153 213.691 68.6489 219.277 69.2145C224.875 69.7833 229.51 70.2329 229.579 70.2132C229.868 70.1658 231.033 70.6545 231.467 71.0092Z" fill="#B18000"/>
<path d="M241.684 37.007C241.232 37.0993 237.381 39.9182 224.699 49.4926L220.552 52.6214L219.069 56.1373C217.644 59.5304 217.597 59.6564 217.738 59.9331C217.821 60.0938 218.003 60.2558 218.132 60.2905C218.461 60.3785 225.434 59.6176 225.779 59.4584C225.925 59.3844 227.883 57.9462 230.108 56.2645C232.347 54.5743 236.879 51.184 240.185 48.7098C243.49 46.2356 246.328 44.0522 246.481 43.8542C246.843 43.3976 247.017 42.463 246.814 41.9555C246.667 41.564 244.503 38.5555 243.772 37.7178C243.263 37.128 242.43 36.8545 241.684 37.007ZM243.966 40.3738C245.396 42.2672 245.607 42.7006 245.257 43.0224C245.155 43.1211 242.079 45.4425 238.41 48.1963C234.743 50.9384 230.381 54.2108 228.706 55.4857C226.735 56.9708 225.623 57.7424 225.544 57.6586C225.425 57.5385 222.437 53.5675 222.285 53.3379C222.196 53.2009 222.605 52.895 234.038 44.3196C240.997 39.1007 242.009 38.3779 242.279 38.4503C242.502 38.5095 243.003 39.0839 243.966 40.3738ZM223.384 57.268C223.756 57.7577 224.008 58.1776 223.949 58.212C223.752 58.3358 219.745 58.7341 219.693 58.6446C219.639 58.5673 221.068 55.0623 221.28 54.7415C221.344 54.6455 221.593 54.8881 222.038 55.4854C222.409 55.975 223.023 56.7813 223.384 57.268Z" fill="#B18000"/>
<path d="M217.296 43.2681C214.673 43.0058 211.074 42.6327 209.297 42.4583C206.336 42.1433 206.047 42.1411 205.816 42.3439C205.502 42.6243 205.482 43.1226 205.764 43.3864C206.063 43.6802 222.42 45.3709 222.795 45.144C223.402 44.8035 223.208 44.0219 222.474 43.85C222.252 43.791 219.93 43.5334 217.296 43.2681Z" fill="#B18000"/>
<path d="M210.747 50.3338C207.245 49.9738 204.248 49.6994 204.088 49.7324C203.748 49.7798 203.431 50.2607 203.537 50.5662C203.688 51.0848 203.796 51.1015 209.892 51.7402C213.173 52.0785 216.249 52.3864 216.717 52.4243C217.591 52.4951 217.942 52.3623 218.055 51.9398C218.14 51.6228 217.815 51.1457 217.448 51.0603C217.256 51.0208 214.249 50.6933 210.747 50.3338Z" fill="#B18000"/>
<path d="M208.329 57.9021C204.974 57.5566 202.46 57.3612 202.317 57.4236C201.785 57.6711 201.917 58.5873 202.515 58.7477C202.962 58.8673 214.41 60.0476 214.723 60.0055C215.116 59.9475 215.351 59.4941 215.213 59.0673C215.115 58.777 215.01 58.6985 214.596 58.6C214.324 58.5394 211.501 58.2235 208.329 57.9021Z" fill="#B18000"/>
<path d="M204.966 34.2213L205.038 33.335L208.636 33.6284L208.564 34.5147L207.223 34.4054L206.88 38.6036L205.965 38.529L206.307 34.3307L204.966 34.2213Z" fill="#B18000"/>
<path d="M208.814 38.7613L209.229 33.6767L212.181 33.9174L212.109 34.8037L210.083 34.6386L209.984 35.8501L211.858 36.0029L211.786 36.8892L209.912 36.7365L209.813 37.9505L211.847 38.1164L211.775 39.0027L208.814 38.7613Z" fill="#B18000"/>
<path d="M212.503 39.062L212.918 33.9774L214.646 34.1184C214.977 34.1454 215.254 34.2371 215.476 34.3935C215.701 34.5484 215.864 34.7558 215.966 35.0158C216.07 35.2741 216.108 35.5713 216.081 35.9073C216.053 36.245 215.967 36.5303 215.822 36.7634C215.676 36.9948 215.479 37.1654 215.231 37.2751C214.983 37.3849 214.692 37.426 214.355 37.3986L213.198 37.3042L213.268 36.4403L214.276 36.5224C214.453 36.5368 214.602 36.5207 214.723 36.4739C214.845 36.4272 214.939 36.3499 215.005 36.242C215.073 36.1342 215.113 35.9967 215.127 35.8295C215.141 35.6607 215.123 35.516 215.074 35.3954C215.026 35.2749 214.946 35.18 214.832 35.1107C214.72 35.04 214.575 34.9973 214.397 34.9828L213.772 34.9318L213.429 39.1376L212.503 39.062ZM215.058 36.9411L215.958 39.3437L214.935 39.2604L214.059 36.8596L215.058 36.9411Z" fill="#B18000"/>
<path d="M216.871 34.2998L218.013 34.3929L218.941 37.9075L218.993 37.9117L220.478 34.5938L221.62 34.687L221.206 39.7716L220.307 39.6983L220.577 36.3889L220.541 36.3859L219.139 39.5781L218.527 39.5282L217.662 36.1387L217.626 36.1358L217.355 39.4576L216.456 39.3844L216.871 34.2998Z" fill="#B18000"/>
<path d="M224.641 36.4053C224.64 36.2036 224.579 36.0421 224.459 35.9206C224.338 35.7991 224.166 35.7293 223.944 35.7112C223.793 35.6988 223.663 35.7133 223.555 35.7544C223.447 35.7939 223.361 35.8545 223.299 35.936C223.238 36.0176 223.203 36.1131 223.194 36.2223C223.183 36.3131 223.193 36.3939 223.223 36.4647C223.255 36.5356 223.301 36.5984 223.361 36.6533C223.421 36.7066 223.492 36.7548 223.573 36.7981C223.654 36.8397 223.742 36.8768 223.835 36.9094L224.22 37.0508C224.407 37.116 224.577 37.1965 224.73 37.2923C224.883 37.3881 225.013 37.5011 225.12 37.6315C225.227 37.7619 225.306 37.9116 225.357 38.0807C225.409 38.2499 225.428 38.4405 225.412 38.6525C225.385 38.9635 225.294 39.2277 225.14 39.4451C224.988 39.6609 224.779 39.8214 224.515 39.9265C224.253 40.03 223.943 40.0673 223.587 40.0382C223.233 40.0094 222.93 39.9213 222.678 39.7742C222.427 39.6271 222.238 39.4243 222.112 39.1657C221.986 38.9055 221.935 38.5923 221.958 38.2259L222.854 38.299C222.85 38.4703 222.881 38.6161 222.946 38.7363C223.012 38.855 223.106 38.9485 223.226 39.0166C223.349 39.0832 223.49 39.1231 223.649 39.1361C223.806 39.1489 223.945 39.1335 224.065 39.09C224.186 39.0465 224.282 38.9803 224.354 38.8911C224.426 38.802 224.467 38.6962 224.477 38.5738C224.486 38.4596 224.465 38.3612 224.413 38.2786C224.362 38.1962 224.283 38.1231 224.177 38.0594C224.071 37.9958 223.94 37.9352 223.784 37.8775L223.319 37.6996C222.958 37.5652 222.679 37.3784 222.484 37.1391C222.288 36.8999 222.206 36.5925 222.238 36.2169C222.262 35.9089 222.354 35.6457 222.515 35.4273C222.678 35.2089 222.89 35.0455 223.152 34.9368C223.414 34.8282 223.704 34.7869 224.023 34.8129C224.349 34.8395 224.627 34.9271 224.859 35.076C225.092 35.225 225.268 35.42 225.384 35.6612C225.501 35.9023 225.549 36.1744 225.529 36.4777L224.641 36.4053Z" fill="#B18000"/>
</g>
<g clip-path="url(#clip2_1_89)">
<path d="M74.7397 32.6213L63.523 42.4672L63.7883 43.5117L64.0594 44.5597L89.9583 37.6201L115.857 30.6805L115.568 29.6374L115.276 28.6002L100.624 25.6806C92.57 24.0761 85.9732 22.7658 85.9655 22.7729C85.9609 22.7742 80.9077 27.2061 74.7397 32.6213Z" fill="#797C8B"/>
<path d="M69.3326 44.2268C69.3267 44.2588 69.53 45.036 69.7779 45.9431L70.2352 47.5953L91.1309 41.9964L112.027 36.3974L111.57 34.6942L111.114 32.991L90.2234 38.5734C73.4862 43.0479 69.3323 44.1711 69.3326 44.2268Z" fill="#0097A7"/>
<path d="M72.4419 48.2058C72.4511 48.2946 72.7236 49.4386 73.0451 50.7469C73.3665 52.0552 73.8215 53.916 74.0574 54.8872C74.2921 55.8537 74.6963 57.5252 74.9557 58.6017C75.2137 59.6735 75.6331 61.4018 75.8856 62.4345C76.138 63.4672 76.5562 65.1907 76.8155 66.2672C77.0736 67.339 77.4778 69.0105 77.7138 69.9817C77.9485 70.9482 78.3052 72.4245 78.5122 73.2514L78.8836 74.7644L81.9308 73.9479L84.9735 73.1326L84.7334 72.345C84.5389 71.7278 77.2069 47.0812 77.1448 46.8493C77.1321 46.802 76.6755 46.9092 74.7738 47.4187L72.4239 48.0484L72.4419 48.2058Z" fill="#CCB975"/>
<path d="M83.5784 45.5768C83.637 45.8501 83.9235 47.0461 84.2133 48.2361C84.5031 49.4262 84.9389 51.216 85.1813 52.2108C85.4236 53.2057 85.8316 54.8914 86.0884 55.9584C86.351 57.029 86.7671 58.7632 87.0246 59.8149C89.2943 69.191 89.7726 71.157 89.8525 71.4551L89.945 71.8005L92.9786 70.9876L96.0122 70.1748L95.9704 70.0186C95.9362 69.8909 94.0578 63.569 92.0371 56.7883C91.7627 55.873 91.3252 54.4031 91.0655 53.5245C90.8013 52.647 90.1428 50.425 89.5986 48.5932C89.0577 46.7555 88.5115 44.9344 88.3869 44.5419L88.167 43.83L85.8216 44.4585L83.4762 45.0869L83.5784 45.5768Z" fill="#D89150"/>
<path d="M94.7022 42.9004C94.8538 43.5747 100.863 68.3577 100.957 68.7078L100.993 68.8402L104.026 68.0274L107.06 67.2145L107.012 67.0347C106.907 66.6267 99.489 41.6938 99.3586 41.2978L99.2148 40.8698L96.8694 41.4982L94.524 42.1267L94.7022 42.9004Z" fill="#90CAF9"/>
<path d="M105.813 40.1767C105.944 40.7351 106.259 42.0399 106.512 43.0726C106.76 44.1065 107.178 45.8147 107.431 46.8675C107.69 47.9239 108.107 49.6427 108.359 50.6908C108.615 51.7377 109.031 53.4518 109.282 54.4999C109.539 55.5468 109.954 57.2609 110.206 58.3091C110.462 59.356 110.879 61.0748 111.132 62.1276C111.391 63.184 111.699 64.4604 111.814 64.962L112.032 65.8824L115.07 65.0683L118.108 64.2543L118.041 64.0035C117.912 63.5056 110.394 38.199 110.33 38.0537L110.267 37.9083L107.922 38.5368L105.576 39.1652L105.813 40.1767Z" fill="#E57373"/>
<path d="M75.7648 78.465L76.2288 80.1966L74.8375 80.5643L73.4417 80.9332L73.8845 82.6401L74.3331 84.3504L72.9747 84.7144L71.6164 85.0783L72.0728 86.7815L72.5291 88.4847L101.507 80.7201L130.485 72.9556L130.028 71.2524L129.572 69.5492L128.214 69.9132L126.855 70.2771L126.399 68.5739L125.943 66.8707L124.539 67.2468L123.135 67.6229L122.673 65.8961L122.21 64.1693L98.756 70.4537L75.3021 76.7382L75.7648 78.465Z" fill="#797C8B"/>
</g>
<circle cx="229.5" cy="149.5" r="9.5" fill="#24BBCB"/>
<circle cx="140.5" cy="88.5" r="9.5" fill="#E4BFF5"/>
<circle cx="15.5" cy="15.5" r="9.5" fill="#FFF59D"/>
<circle cx="245.5" cy="103.5" r="9.5" fill="#F3B881"/>
<circle cx="159.5" cy="33.5" r="9.5" fill="#2196F3"/>
<circle cx="39.5" cy="69.5" r="9.5" fill="#90CAF9"/>
<circle cx="103.5" cy="142.5" r="9.5" fill="#E57373"/>
<defs>
<clipPath id="clip0_1_89">
<rect width="60" height="60" fill="white" transform="translate(130 113.529) rotate(-15)"/>
</clipPath>
<clipPath id="clip1_1_89">
<rect width="60" height="60" fill="white" transform="translate(192.787 15.2577) rotate(15)"/>
</clipPath>
<clipPath id="clip2_1_89">
<rect width="60" height="60" fill="white" transform="translate(57 30.5291) rotate(-15)"/>
</clipPath>
</defs>
</svg>
