<svg width="192" height="192" viewBox="0 0 192 192" fill="none" xmlns="http://www.w3.org/2000/svg">
<rect width="192" height="192" fill="white"/>
<mask id="path-2-inside-1_2_27" fill="white">
<rect x="93" y="16" width="82" height="47" rx="2"/>
</mask>
<rect x="93" y="16" width="82" height="47" rx="2" fill="#69AB80" stroke="#D5AC70" stroke-width="6" mask="url(#path-2-inside-1_2_27)"/>
<path d="M58.5 31C58.5 29.067 60.067 27.5 62 27.5H130.26C132.193 27.5 133.76 29.067 133.76 31V72.2561H58.5V31Z" fill="#DDF7FF" stroke="#727272"/>
<path d="M134.26 77.4716C134.26 79.6807 132.469 81.4715 130.26 81.4715L62 81.4715C59.7909 81.4715 58 79.6807 58 77.4715L58 72.7561L134.26 72.7561L134.26 77.4716Z" fill="#C6C6C6"/>
<path d="M89.1266 81.4715H103.134L105.935 92.3659H86.3252L89.1266 81.4715Z" fill="#C6C6C6"/>
<path d="M89.1266 81.4715H103.134L104.573 86.9187L88.2317 85.0122L89.1266 81.4715Z" fill="#626262"/>
<rect x="80.3333" y="92.3659" width="31.5935" height="1.63415" fill="#626262"/>
<rect x="73" y="36.3529" width="46" height="11.4706" rx="2" fill="#90CAF9"/>
<rect x="73" y="31" width="46" height="3.82353" rx="1" fill="#E57373"/>
<rect x="73" y="50.1176" width="13.8" height="7.64706" rx="2" fill="#D89150"/>
<rect x="89.1" y="50.1176" width="13.8" height="7.64706" rx="2" fill="#0097A7"/>
<rect x="105.2" y="50.1176" width="13.8" height="7.64706" rx="2" fill="#2196F3"/>
<rect x="73" y="60.0588" width="13.8" height="0.764706" fill="#8F8F8F"/>
<rect x="73" y="64.6471" width="13.8" height="0.764706" fill="#8F8F8F"/>
<rect x="73" y="69.2353" width="6.9" height="0.764706" fill="#8F8F8F"/>
<rect x="73" y="66.9412" width="13.8" height="0.764706" fill="#8F8F8F"/>
<rect x="73" y="62.3529" width="13.8" height="0.764706" fill="#8F8F8F"/>
<rect x="105.2" y="60.0588" width="13.8" height="0.764706" fill="#8F8F8F"/>
<rect x="105.2" y="64.6471" width="13.8" height="0.764706" fill="#8F8F8F"/>
<rect x="105.2" y="69.2353" width="6.9" height="0.764706" fill="#8F8F8F"/>
<rect x="105.2" y="66.9412" width="13.8" height="0.764706" fill="#8F8F8F"/>
<rect x="105.2" y="62.3529" width="13.8" height="0.764706" fill="#8F8F8F"/>
<rect x="89.1" y="60.0588" width="13.8" height="0.764706" fill="#8F8F8F"/>
<rect x="89.1" y="64.6471" width="13.8" height="0.764706" fill="#8F8F8F"/>
<rect x="89.1" y="69.2353" width="6.9" height="0.764706" fill="#8F8F8F"/>
<rect x="89.1" y="66.9412" width="13.8" height="0.764706" fill="#8F8F8F"/>
<rect x="89.1" y="62.3529" width="13.8" height="0.764706" fill="#8F8F8F"/>
<rect x="16" y="94" width="160" height="6" fill="#5B87CA"/>
<rect x="36" y="100" width="77" height="6" transform="rotate(90 36 100)" fill="#4D4D4D"/>
<rect x="162" y="100" width="77" height="6" transform="rotate(90 162 100)" fill="#4D4D4D"/>
<path d="M28.5484 67.5055L33.2858 78.035L28.1889 79.046L28.5484 67.5055Z" fill="#4F9A2B"/>
<path d="M43.8898 69.0414L41.7604 80.3895L37 78.3066L43.8898 69.0414Z" fill="#326918"/>
<path d="M34.5 67L38 79H31L34.5 67Z" fill="#70BC4C"/>
<path d="M26 78H36V94H29L26 78Z" fill="#FFF27E"/>
<path d="M26 78H36V94H29L26 78Z" fill="#FFF27E"/>
<path d="M36 78H44L40 94H36V78Z" fill="#FFCE84"/>
<path d="M144 94.2192H173V125C173 125.552 172.552 126 172 126H145C144.448 126 144 125.552 144 125V94.2192Z" fill="#FFF59D"/>
<rect x="148.377" y="96.411" width="20.2453" height="0.758693" fill="#8F8F8F"/>
<rect x="148.377" y="100.963" width="20.2453" height="0.758694" fill="#8F8F8F"/>
<rect x="148.377" y="105.515" width="10.1226" height="0.758694" fill="#8F8F8F"/>
<rect x="148.377" y="103.239" width="20.2453" height="0.758693" fill="#8F8F8F"/>
<rect x="148.377" y="98.687" width="20.2453" height="0.758693" fill="#8F8F8F"/>
<rect x="168.623" y="121.616" width="20.2453" height="0.758693" transform="rotate(-180 168.623 121.616)" fill="#8F8F8F"/>
<rect x="168.623" y="117.064" width="20.2453" height="0.758693" transform="rotate(-180 168.623 117.064)" fill="#8F8F8F"/>
<rect x="168.623" y="112.512" width="10.1226" height="0.758693" transform="rotate(-180 168.623 112.512)" fill="#8F8F8F"/>
<rect x="168.623" y="114.788" width="20.2453" height="0.758693" transform="rotate(-180 168.623 114.788)" fill="#8F8F8F"/>
<rect x="168.623" y="119.34" width="20.2453" height="0.758693" transform="rotate(-180 168.623 119.34)" fill="#8F8F8F"/>
<rect x="145" y="88.6438" width="27" height="4.57534" fill="#F3B881" stroke="#666666" stroke-width="2"/>
<rect x="148.377" y="90.9315" width="4.93151" height="1.09434" transform="rotate(-90 148.377 90.9315)" fill="#8F8F8F"/>
<rect x="168.075" y="90.9315" width="4.93151" height="1.09434" transform="rotate(-90 168.075 90.9315)" fill="#8F8F8F"/>
<rect x="154.943" y="90.9315" width="4.93151" height="1.09434" transform="rotate(-90 154.943 90.9315)" fill="#8F8F8F"/>
<rect x="161.509" y="90.9315" width="4.93151" height="1.09434" transform="rotate(-90 161.509 90.9315)" fill="#8F8F8F"/>
<rect width="14.6772" height="14.4201" transform="matrix(0.967223 -0.25393 0.263788 0.964581 149 25.727)" fill="#F3F3F3"/>
<rect x="151.624" y="25.6" width="7.34847" height="14.4" fill="#FFF59D"/>
<rect x="158.973" y="25.6" width="7.34847" height="14.4" fill="#FFDB94"/>
<path d="M164.473 23.6569C164.788 23.2994 165.311 23.2135 165.724 23.4517L166.087 23.6612C166.499 23.8994 166.687 24.3955 166.534 24.8468L165.994 26.4484C165.792 27.0467 165.093 27.3105 164.546 26.9948L163.607 26.4524C163.06 26.1367 162.939 25.3995 163.356 24.9256L164.473 23.6569Z" fill="#2196F3"/>
<path d="M164.785 22.5578C164.869 22.4121 165.056 22.3621 165.202 22.4463L167.219 23.6109C167.364 23.695 167.414 23.8814 167.33 24.0272C167.246 24.173 167.06 24.2229 166.914 24.1388L164.897 22.9741C164.751 22.89 164.701 22.7036 164.785 22.5578Z" fill="#0063B3"/>
<path d="M162.143 25.959C162.227 25.8132 162.413 25.7633 162.559 25.8474L165.594 27.5998C165.74 27.684 165.79 27.8703 165.706 28.0161C165.622 28.1619 165.435 28.2118 165.29 28.1277L162.254 26.3753C162.109 26.2911 162.059 26.1047 162.143 25.959Z" fill="#0063B3"/>
<path d="M164.027 27.3984L162.655 29.7738L161.841 30.0078L163.518 27.1045L164.027 27.3984Z" fill="#A8A8A8"/>
</svg>
