<svg width="260" height="184" viewBox="0 0 260 184" fill="none" xmlns="http://www.w3.org/2000/svg">
<circle cx="30.4999" cy="33.63" r="9.5" transform="rotate(-180 30.4999 33.63)" fill="#24BBCB"/>
<circle cx="119.5" cy="94.63" r="9.5" transform="rotate(-180 119.5 94.63)" fill="#E4BFF5"/>
<circle cx="244.5" cy="167.63" r="9.5" transform="rotate(-180 244.5 167.63)" fill="#FFF59D"/>
<circle cx="14.4999" cy="79.63" r="9.5" transform="rotate(-180 14.4999 79.63)" fill="#F3B881"/>
<circle cx="100.5" cy="149.63" r="9.5" transform="rotate(-180 100.5 149.63)" fill="#B18000"/>
<circle cx="220.5" cy="113.63" r="9.5" transform="rotate(-180 220.5 113.63)" fill="#90CAF9"/>
<circle cx="156.5" cy="40.63" r="9.5" transform="rotate(-180 156.5 40.63)" fill="#E57373"/>
<path d="M149.739 143.699L169.422 138.425L178.212 171.23L163.359 175.21C160.691 175.924 157.95 174.341 157.235 171.674L149.739 143.699Z" fill="#FABE45"/>
<path d="M169.422 138.425L189.105 133.151L196.601 161.126C197.316 163.793 195.733 166.535 193.066 167.25L178.212 171.23L169.422 138.425Z" fill="#FECE62"/>
<path fill-rule="evenodd" clip-rule="evenodd" d="M175.117 154.055C176.086 153.238 176.553 151.917 176.207 150.626C175.728 148.837 173.871 147.781 172.059 148.266C170.247 148.752 169.167 150.595 169.646 152.384C169.992 153.675 171.058 154.585 172.305 154.808L173.876 160.671L176.688 159.918L175.117 154.055Z" fill="#646464"/>
<path fill-rule="evenodd" clip-rule="evenodd" d="M163.015 113.185C159.828 114.057 157.197 115.603 155.123 117.823C153.026 120.067 151.643 122.829 150.974 126.109C150.306 129.389 150.504 133.016 151.568 136.988C151.758 137.698 151.925 138.424 152.09 139.146C152.382 140.419 152.671 141.678 153.079 142.804L158.279 141.41C157.345 139.826 156.589 137.955 156.011 135.797C155.137 132.536 154.942 129.638 155.427 127.104C155.924 124.566 156.944 122.473 158.486 120.824C160.018 119.197 161.908 118.073 164.158 117.452L163.015 113.185Z" fill="#DDDDDD"/>
<path fill-rule="evenodd" clip-rule="evenodd" d="M164.158 117.452C164.192 117.443 164.227 117.433 164.261 117.424C166.557 116.809 168.784 116.83 170.944 117.486C173.117 118.139 175.046 119.442 176.733 121.395C178.433 123.344 179.72 125.949 180.593 129.211C181.172 131.368 181.45 133.367 181.428 135.208L186.911 133.738C186.688 132.772 186.322 131.774 185.949 130.758L185.949 130.758L185.949 130.758C185.619 129.857 185.283 128.941 185.036 128.02C183.972 124.048 182.33 120.808 180.111 118.302C177.892 115.795 175.313 114.095 172.375 113.2C169.437 112.305 166.351 112.291 163.118 113.157C163.084 113.167 163.049 113.176 163.015 113.185L164.158 117.452Z" fill="#C0C0C0"/>
<g clip-path="url(#clip0_1_2)">
<path d="M77.4375 21.8125C80.55 18.7562 86.775 16.75 93.3187 16.75C99.8625 16.75 106.125 18.7375 109.125 21.8125C109.486 22.0833 109.933 22.2148 110.383 22.1828C110.833 22.1508 111.257 21.9575 111.576 21.6383C111.895 21.3192 112.088 20.8956 112.12 20.4454C112.152 19.9952 112.021 19.5486 111.75 19.1875C107.25 14.6125 99.2625 13 93.3 13C87.3375 13 79.35 14.6312 74.8125 19.1875C74.5417 19.5486 74.4102 19.9952 74.4422 20.4454C74.4742 20.8956 74.6675 21.3192 74.9867 21.6383C75.3058 21.9575 75.7294 22.1508 76.1796 22.1828C76.6298 22.2148 77.0764 22.0833 77.4375 21.8125ZM117.75 36.5313C112.462 25.9 104.25 20.5 93.3187 20.5C82.3875 20.5 74.1563 25.9 68.9438 36.5313C68.7214 36.9741 68.6833 37.4869 68.8379 37.9577C68.9925 38.4285 69.3271 38.819 69.7688 39.0438C69.99 39.1561 70.2315 39.2235 70.479 39.2418C70.7265 39.2602 70.9752 39.2292 71.2107 39.1508C71.4461 39.0723 71.6637 38.9478 71.8507 38.7846C72.0377 38.6214 72.1904 38.4227 72.3 38.2C76.875 28.8437 83.775 24.25 93.2812 24.25C102.787 24.25 109.725 28.825 114.412 38.2187C114.57 38.5308 114.811 38.7927 115.109 38.9749C115.407 39.1572 115.751 39.2524 116.1 39.25C116.387 39.2611 116.671 39.1965 116.925 39.0625C117.148 38.9529 117.346 38.8002 117.51 38.6132C117.673 38.4262 117.797 38.2086 117.876 37.9732C117.954 37.7377 117.985 37.489 117.967 37.2415C117.948 36.994 117.881 36.7525 117.769 36.5313H117.75ZM99.375 65.65C91.6312 62.3312 88.5 57.2125 88.125 53.4625C87.9737 52.4915 88.0911 51.4976 88.4647 50.5886C88.8382 49.6797 89.4534 48.8903 90.2437 48.3062C91.8375 47.2375 94.1812 48.7563 97.5 51.1563C100.819 53.5563 105.244 56.7812 109.069 53.875C112.444 51.3437 113.456 46.825 111.787 41.8C110.465 37.8985 107.99 34.4902 104.689 32.026C101.388 29.5619 97.4164 28.158 93.3 28C76.5 28 70.5 42.5312 70.5 56.125C70.5 56.6223 70.6975 57.0992 71.0492 57.4508C71.4008 57.8025 71.8777 58 72.375 58C72.8723 58 73.3492 57.8025 73.7008 57.4508C74.0525 57.0992 74.25 56.6223 74.25 56.125C74.25 50.5 75.6187 31.75 93.3 31.75C100.612 31.75 106.425 37.5625 108.3 43C108.862 44.6313 109.8 48.625 106.894 50.875C105.394 52 103.144 50.5 99.7687 48.1187C96.3937 45.7375 92.1375 42.6063 88.2562 45.1938C86.9075 46.1559 85.846 47.467 85.1854 48.9863C84.5248 50.5057 84.2901 52.1762 84.5062 53.8188C84.9562 58.6188 88.7062 65.0687 97.9687 69.1C98.1767 69.1892 98.399 69.24 98.625 69.25C99.0585 69.2535 99.4798 69.1068 99.8173 68.8346C100.155 68.5625 100.387 68.1819 100.476 67.7575C100.564 67.3331 100.503 66.8912 100.302 66.5069C100.101 66.1227 99.7738 65.8199 99.375 65.65ZM81.75 49.075C82.4809 46.9018 83.7638 44.9557 85.4729 43.4273C87.1821 41.8989 89.2589 40.8407 91.5 40.3563C95.7 39.55 99.6 41.4813 102.75 45.9813C102.889 46.192 103.07 46.3724 103.281 46.5115C103.492 46.6507 103.729 46.7458 103.977 46.7912C104.226 46.8365 104.481 46.8311 104.728 46.7753C104.974 46.7196 105.207 46.6146 105.411 46.4666C105.616 46.3187 105.789 46.1308 105.92 45.9144C106.05 45.698 106.135 45.4574 106.17 45.2072C106.206 44.957 106.19 44.7022 106.124 44.4582C106.058 44.2143 105.944 43.9861 105.787 43.7875C100.35 36.1562 94.0312 36.0625 90.7875 36.6625C87.825 37.2781 85.0795 38.6704 82.8325 40.6968C80.5854 42.7231 78.9176 45.3105 78 48.1938C76.125 55.5813 78.8062 63.7 85.875 72.325C86.0554 72.5475 86.2844 72.7258 86.5444 72.8461C86.8045 72.9663 87.0886 73.0254 87.375 73.0187C87.8084 73.0251 88.2289 72.8716 88.5562 72.5875C88.937 72.2728 89.1781 71.8205 89.2272 71.329C89.2764 70.8375 89.1296 70.3464 88.8187 69.9625C82.5562 62.275 80.1562 55.2812 81.75 49.0938V49.075ZM110.437 58.5625C109.682 59.2674 108.747 59.7506 107.735 59.9589C106.723 60.1673 105.673 60.0929 104.7 59.7438C100.2 58.675 95.7375 54.6813 94.7625 51.775C94.6837 51.5411 94.5596 51.325 94.3973 51.139C94.235 50.9531 94.0376 50.8009 93.8165 50.6912C93.5954 50.5815 93.3548 50.5164 93.1086 50.4997C92.8623 50.483 92.6152 50.515 92.3812 50.5937C92.1473 50.6725 91.9312 50.7966 91.7453 50.959C91.5593 51.1213 91.4071 51.3186 91.2975 51.5397C91.1878 51.7609 91.1227 52.0014 91.106 52.2477C91.0893 52.4939 91.1212 52.7411 91.2 52.975C92.7 57.3437 98.4562 62.125 103.837 63.4C104.772 63.6188 105.728 63.732 106.687 63.7375C107.865 63.7631 109.036 63.5523 110.131 63.1176C111.226 62.6828 112.223 62.0329 113.062 61.2062C113.333 60.8452 113.465 60.3985 113.433 59.9483C113.401 59.4981 113.207 59.0746 112.888 58.7554C112.569 58.4363 112.146 58.243 111.695 58.211C111.245 58.179 110.799 58.3104 110.437 58.5812V58.5625Z" fill="#2196F3"/>
</g>
<path d="M43.4976 138.045C45.1198 139.489 46.9934 141.546 48.1434 143.371L78.4045 125.828L69.9051 123.23L43.4976 138.045Z" fill="#E6D082"/>
<path d="M49.8297 150.819L51.9892 149.616L53.3389 144.579C53.4881 144.022 54.0732 143.696 54.6476 143.85L59.8418 145.241L61.1915 140.204C61.3407 139.647 61.9258 139.321 62.5002 139.475L67.6944 140.867L69.0441 135.83C69.1934 135.273 69.7784 134.947 70.3528 135.101L75.547 136.493L78.4045 125.828L47.3059 143.151C48.5885 145.532 49.4499 148.127 49.8297 150.819Z" fill="#C29F22"/>
<path d="M10.4654 147.558C7.4518 158.805 14.0264 170.374 25.1235 173.348C36.2185 176.321 47.6987 169.589 50.7124 158.342C53.726 147.095 47.1494 135.526 36.0543 132.553C24.9573 129.58 13.4791 136.311 10.4654 147.558Z" fill="#E6D082"/>
<path d="M32.8738 145.496C36.7971 146.548 39.1456 150.638 38.0672 154.663C36.9888 158.687 32.9097 161.055 28.9864 160.004C25.0631 158.953 22.7145 154.863 23.793 150.838C24.8714 146.813 28.9505 144.445 32.8738 145.496Z" fill="white" stroke="#C29F22" stroke-width="3"/>
<g clip-path="url(#clip1_1_2)">
<path d="M207.885 50.3543L206.885 54.5725C206.606 55.748 206.895 56.9861 207.666 57.9161L211.072 62.0242C212.583 63.846 212.81 66.4117 211.644 68.4711L205.833 78.7337L185.711 73.9616L185.128 62.1825C185.011 59.8188 186.366 57.6287 188.534 56.6791L193.422 54.538C194.528 54.0533 195.343 53.077 195.622 51.9016L196.622 47.6832L207.885 50.3543Z" fill="#D89150"/>
<path d="M186.204 58.5577C185.46 59.5859 185.062 60.8568 185.128 62.1825L185.711 73.9616L205.833 78.7337L211.644 68.4712C212.298 67.3162 212.514 66.0021 212.311 64.7492L186.204 58.5577Z" fill="#5293A9"/>
<path d="M199.257 61.6534C199.013 62.6832 195.772 76.3477 195.772 76.3477L205.833 78.7337L211.644 68.4712C212.298 67.3162 212.514 66.0021 212.31 64.7491L199.257 61.6534Z" fill="#3A7484"/>
<path d="M210.734 44.9528L196.502 41.5776L194.773 48.8686L209.004 52.2439L210.734 44.9528Z" fill="#595959"/>
<path d="M210.734 44.953L203.618 43.2653L201.889 50.5563L209.005 52.244L210.734 44.953Z" fill="#444242"/>
</g>
<g clip-path="url(#clip2_1_2)">
<path d="M209.624 37.4316C208.89 36.6204 209.002 32.6331 209.741 32.4303C210.642 32.1849 210.269 33.509 211.574 35.5621C212.878 37.6164 218.335 38.2081 219.567 38.972C220.924 39.8134 212.015 40.0734 209.624 37.4316Z" fill="#CCB975"/>
<path d="M211.573 35.5632C211.532 29.1552 213.03 25.9922 214.399 23.9667C216.805 20.4025 229.577 14.2148 237.903 13.2981C240.105 13.0553 246.777 13.5334 250.431 14.4C250.47 17.0722 247.44 21.3609 246.752 22.1125C245.197 23.8106 241.804 25.8183 234.974 30.1469C234.635 30.3612 229.557 28.337 229.211 28.562C228.829 28.8094 233.178 31.306 232.786 31.567C231.786 32.2319 230.753 32.9394 229.691 33.6959C229.455 33.8637 220.943 30.567 220.704 30.74C220.384 30.9724 228.336 34.6763 228.011 34.9166C227.117 35.5783 226.205 36.2744 225.278 37.0058C222.855 38.9182 211.573 35.5632 211.573 35.5632Z" fill="#E57373"/>
<path d="M230.273 23.0792C231.743 24.5308 235.539 26.5467 238.643 27.8299C241.192 26.2225 243.076 25.0238 244.455 24.0366C242.139 22.9276 238.581 21.1589 236.896 19.8606L236.117 19.2157L229.781 22.4748L230.273 23.0792Z" fill="#CCB975"/>
<path d="M250.395 14.9782C250.42 14.7865 250.432 14.5933 250.431 14.4C250.023 14.3031 249.572 14.2121 249.098 14.1248C245.335 13.4358 239.859 13.0825 237.903 13.2981C237.499 13.3426 237.075 13.41 236.651 13.4785C236.083 13.57 235.502 13.6811 234.906 13.8115C234.911 15.5039 235.317 17.4992 235.831 18.6133C233.69 19.5903 231.594 20.6609 229.547 21.8222C222.088 26.046 215.926 31.0068 211.579 34.9662C211.578 35.1646 211.573 35.3576 211.575 35.5635C211.575 35.5635 211.808 35.6326 212.205 35.7426C214.394 33.649 220.483 28.2975 230.274 23.0806C232.442 21.9277 234.651 20.8537 236.896 19.8606C238.581 21.1589 242.139 22.9276 244.455 24.0366C244.898 23.7202 245.293 23.4222 245.637 23.1429C246.084 22.7785 246.453 22.4401 246.752 22.1125C247.392 21.4124 250.059 17.6507 250.395 14.9782Z" fill="#90CAF9"/>
<path d="M250.431 14.4C250.032 14.3054 249.62 14.2042 249.203 14.0996C244.49 15.1218 240.01 16.7085 235.832 18.6136C235.32 17.4986 234.912 15.5041 234.907 13.8117C233.044 14.232 231.207 14.7647 229.408 15.407C229.252 17.5522 229.207 20.3575 229.548 21.8224C214.475 30.3568 204.666 41.9207 204.53 42.0838C204.435 42.1969 204.389 42.3429 204.402 42.4898C204.415 42.6367 204.486 42.7724 204.599 42.8671C204.712 42.9617 204.858 43.0076 205.005 42.9946C205.152 42.9815 205.288 42.9107 205.383 42.7976C205.572 42.5708 224.635 20.0909 250.418 14.9723C250.429 14.7817 250.433 14.5909 250.431 14.4Z" fill="#0097A7"/>
</g>
<defs>
<clipPath id="clip0_1_2">
<rect width="60" height="60" fill="white" transform="translate(63 13)"/>
</clipPath>
<clipPath id="clip1_1_2">
<rect width="34" height="34" fill="white" transform="translate(187.077 39.3424) rotate(13.3418)"/>
</clipPath>
<clipPath id="clip2_1_2">
<rect width="40" height="40" fill="white" transform="translate(212.848 4.34486) rotate(13.3418)"/>
</clipPath>
</defs>
</svg>
