<svg width="260" height="176" viewBox="0 0 260 176" fill="none" xmlns="http://www.w3.org/2000/svg">
<path d="M23 106C23 1.46185 217.522 -28.5286 240 106" stroke="black" stroke-dasharray="2 4 6 8"/>
<path d="M140.07 25.2244L139.911 25.3802L139.921 25.6027C140.023 28.0172 140.026 29.1885 139.95 29.7801C139.932 29.9224 139.911 30.0147 139.892 30.0742C139.88 30.1124 139.87 30.1323 139.865 30.1408C139.854 30.1465 139.825 30.1602 139.759 30.1858L139.756 30.1869L136.559 31.4612L136.559 31.4613C136.491 31.4882 136.47 31.4957 136.454 31.4994C136.434 31.4948 136.34 31.4654 136.113 31.2922C135.628 30.9215 134.775 30.0885 133.089 28.3138L132.944 28.1609L132.733 28.1583L131.27 28.14L131.049 28.1372L130.898 28.2991C129.267 30.0499 128.442 30.8666 127.971 31.2263C127.752 31.393 127.663 31.4179 127.646 31.4213C127.646 31.4211 127.645 31.4209 127.643 31.4205C127.625 31.4158 127.601 31.407 127.534 31.3792L124.248 29.9634L124.222 29.9044C124.021 28.4085 123.972 26.8965 124.076 25.391L124.092 25.1675L123.935 25.0072L122.892 23.9386L122.74 23.7824L122.522 23.7881C120.114 23.8501 118.944 23.8347 118.351 23.7517C118.082 23.714 117.997 23.6695 117.98 23.6586C117.971 23.644 117.961 23.6224 117.933 23.5544L117.933 23.5543L116.615 20.3349L116.614 20.3342C116.587 20.269 116.579 20.247 116.575 20.2316C116.58 20.2101 116.611 20.1187 116.773 19.905C117.134 19.4285 117.951 18.5903 119.699 16.9303L119.854 16.7824V16.5678V15.082V14.8657L119.696 14.7176C118.189 13.3021 117.404 12.5015 116.992 12.0429C116.786 11.8134 116.68 11.6778 116.626 11.5996C116.584 11.5387 116.576 11.5176 116.572 11.5082C116.572 11.5077 116.572 11.5072 116.571 11.5068L116.571 11.5068L116.571 11.5055L116.534 11.4155L116.572 11.3039L117.893 8.13772C117.921 8.07268 117.931 8.05211 117.939 8.03835C117.957 8.02747 118.043 7.98307 118.32 7.94722C118.92 7.86975 120.1 7.86354 122.524 7.94166L122.738 7.94855L122.891 7.79853L123.926 6.78137L124.084 6.62599L124.075 6.40449C123.977 3.99136 123.976 2.82015 124.052 2.22809C124.07 2.08561 124.092 1.99289 124.111 1.93301C124.124 1.8927 124.134 1.87232 124.139 1.86412C124.15 1.85845 124.179 1.84466 124.245 1.8183L124.245 1.81827L127.449 0.540565C127.449 0.540555 127.449 0.540545 127.45 0.540536C127.519 0.512731 127.542 0.504696 127.559 0.500663C127.559 0.500608 127.559 0.500557 127.56 0.500508C127.579 0.504849 127.672 0.533479 127.897 0.706671C128.381 1.07749 129.229 1.91042 130.913 3.68338L131.058 3.83582L131.268 3.83894L132.731 3.86066L132.953 3.86395L133.104 3.70146C134.741 1.94403 135.567 1.12751 136.039 0.771802C136.153 0.68639 136.233 0.637911 136.288 0.610868C136.327 0.591676 136.348 0.58578 136.356 0.58409C136.367 0.587484 136.399 0.598764 136.474 0.63258L136.474 0.632639L136.481 0.635826L139.749 2.04443L139.775 2.1019C139.978 3.59955 140.028 5.11364 139.925 6.62131L139.909 6.84547L140.067 7.00584L141.11 8.06871L141.262 8.22418L141.48 8.21831C143.888 8.15342 145.059 8.17093 145.651 8.2551C145.922 8.29353 146.007 8.33851 146.024 8.34966C146.032 8.36344 146.042 8.38424 146.069 8.45026L147.389 11.6659C147.415 11.7305 147.424 11.7524 147.428 11.7675C147.422 11.7893 147.391 11.8808 147.229 12.0944C146.868 12.571 146.05 13.4092 144.303 15.0692L144.147 15.2171V15.4318V16.9221V17.1383L144.305 17.2863C145.808 18.7001 146.593 19.501 147.007 19.9608C147.213 20.1908 147.319 20.3272 147.374 20.4061C147.422 20.4746 147.427 20.4935 147.429 20.4993L147.429 20.4997L147.468 20.5939L147.432 20.7024L146.115 23.8637C146.087 23.9289 146.077 23.9496 146.068 23.9636C146.068 23.9637 146.068 23.9638 146.068 23.9639C146.051 23.9745 145.966 24.0194 145.686 24.0554C145.086 24.1326 143.905 24.1383 141.479 24.0602L141.266 24.0533L141.113 24.2027L140.07 25.2244ZM124.133 1.86732C124.133 1.86733 124.133 1.86713 124.134 1.8667L124.133 1.86732ZM136.359 0.583478C136.359 0.58348 136.359 0.583482 136.359 0.583485C136.36 0.583464 136.36 0.583457 136.36 0.583458L136.359 0.583478ZM136.353 0.583255C136.352 0.583062 136.351 0.582845 136.351 0.582784L136.353 0.583255ZM126.211 18.3064L126.211 18.3064L126.213 18.3118C126.828 19.8451 128.034 21.0734 129.563 21.7298C131.093 22.3862 132.823 22.4184 134.376 21.8195L134.376 21.8195L134.382 21.8174C135.521 21.363 136.5 20.5863 137.196 19.5839C137.891 18.5813 138.271 17.3978 138.287 16.1819C138.303 14.9661 137.955 13.7731 137.286 12.7528C136.618 11.7326 135.66 10.9308 134.533 10.447C133.405 9.96319 132.159 9.81857 130.949 10.0309C129.739 10.2433 128.619 10.8033 127.73 11.6419C126.84 12.4805 126.22 13.5604 125.95 14.7465C125.679 15.9327 125.77 17.1712 126.211 18.3064Z" fill="#99B8C4" stroke="#6C95A5"/>
<path d="M256.864 117.172C256.633 116.847 256.391 116.531 256.138 116.224C253.018 112.426 248.287 110 243 110C237.713 110 232.982 112.426 229.862 116.224C229.609 116.531 229.367 116.847 229.136 117.172C227.162 119.949 226 123.341 226 127C226 130.679 227.175 134.09 229.17 136.875C229.402 137.199 229.645 137.515 229.899 137.822C233.02 141.593 237.734 144 243 144C248.266 144 252.98 141.593 256.101 137.822C256.355 137.515 256.598 137.199 256.83 136.875C258.824 134.09 260 130.679 260 127C260 123.341 258.838 119.949 256.864 117.172ZM255.164 116.919C254.893 117.093 254.609 117.263 254.311 117.427C253.424 117.914 252.45 118.337 251.408 118.691C251.002 117.399 250.497 116.196 249.902 115.114C249.151 113.749 248.291 112.639 247.354 111.805C250.449 112.693 253.159 114.504 255.164 116.919ZM251.756 122.107C251.928 122.107 252.09 122.145 252.237 122.213C252.635 122.396 252.913 122.797 252.913 123.264C252.913 123.625 252.746 123.948 252.486 124.16C252.287 124.322 252.033 124.42 251.756 124.42C251.595 124.42 251.442 124.387 251.302 124.327C250.89 124.15 250.599 123.74 250.599 123.264C250.599 122.892 250.777 122.561 251.05 122.349C251.246 122.198 251.49 122.107 251.756 122.107ZM243.597 111.235C245.559 111.498 247.407 113.057 248.855 115.689C249.413 116.703 249.885 117.831 250.268 119.044C248.22 119.617 245.955 119.941 243.597 119.988V111.235ZM243.597 121.183C246.064 121.136 248.441 120.795 250.596 120.192C250.674 120.493 250.746 120.8 250.813 121.11C249.985 121.474 249.405 122.302 249.405 123.264C249.405 124.435 250.266 125.409 251.389 125.586C251.403 125.869 251.412 126.154 251.418 126.44H245.283C245.079 125.605 244.427 124.944 243.597 124.726V121.183ZM250.578 133.878C248.428 133.278 246.057 132.939 243.597 132.892V129.274C244.402 129.063 245.039 128.434 245.264 127.635H251.416C251.37 129.83 251.083 131.945 250.578 133.878ZM250.823 138.213C250.823 138.851 250.304 139.37 249.666 139.37C249.652 139.37 249.639 139.368 249.625 139.368C249.184 139.352 248.806 139.09 248.625 138.714C248.551 138.562 248.509 138.393 248.509 138.213C248.509 137.643 248.924 137.169 249.468 137.075C249.532 137.063 249.598 137.056 249.666 137.056C250.039 137.056 250.37 137.234 250.581 137.509C250.732 137.704 250.823 137.948 250.823 138.213ZM242.403 111.235V119.988C240.045 119.941 237.78 119.617 235.732 119.044C235.823 118.757 235.919 118.474 236.019 118.197C236.067 118.2 236.116 118.202 236.165 118.202C237.461 118.202 238.516 117.147 238.516 115.85C238.516 115.283 238.314 114.761 237.978 114.355C239.273 112.531 240.8 111.45 242.403 111.235ZM235.404 120.192C237.559 120.795 239.936 121.136 242.403 121.183V124.726C241.573 124.944 240.921 125.605 240.717 126.44H234.582C234.623 124.244 234.905 122.128 235.404 120.192ZM235.008 115.85C235.008 115.212 235.527 114.693 236.165 114.693C236.221 114.693 236.276 114.699 236.331 114.707C236.767 114.77 237.124 115.075 237.261 115.483C237.3 115.599 237.322 115.722 237.322 115.85C237.322 116.364 236.985 116.8 236.521 116.95C236.409 116.987 236.289 117.007 236.165 117.007C235.844 117.007 235.553 116.875 235.343 116.663C235.136 116.454 235.008 116.167 235.008 115.85ZM238.646 111.805C238.069 112.319 237.52 112.937 237.009 113.656C236.747 113.555 236.462 113.499 236.165 113.499C234.869 113.499 233.814 114.554 233.814 115.85C233.814 116.675 234.241 117.402 234.886 117.821C234.783 118.107 234.685 118.396 234.592 118.691C233.55 118.337 232.576 117.914 231.689 117.427C231.391 117.263 231.107 117.093 230.836 116.919C232.841 114.504 235.551 112.693 238.646 111.805ZM230.106 117.869C230.425 118.077 230.76 118.279 231.114 118.473C232.076 119.003 233.133 119.459 234.262 119.84C233.729 121.889 233.43 124.125 233.388 126.44H227.205C227.316 123.255 228.374 120.307 230.106 117.869ZM234.713 129.836C235.025 130.044 235.231 130.398 235.231 130.8C235.231 131.095 235.12 131.364 234.937 131.568C234.725 131.806 234.418 131.957 234.075 131.957C233.975 131.957 233.878 131.942 233.785 131.918C233.287 131.789 232.918 131.337 232.918 130.8C232.918 130.367 233.157 129.99 233.51 129.792C233.677 129.698 233.869 129.643 234.075 129.643C234.311 129.643 234.53 129.715 234.713 129.836ZM227.207 127.635H233.389C233.395 127.938 233.406 128.241 233.421 128.542C232.442 128.826 231.724 129.73 231.724 130.8C231.724 132.079 232.75 133.121 234.022 133.15C234.101 133.515 234.187 133.875 234.28 134.229C233.144 134.611 232.081 135.07 231.114 135.602C230.774 135.788 230.451 135.982 230.143 136.182C228.403 133.753 227.333 130.813 227.207 127.635ZM230.877 137.129C231.135 136.965 231.406 136.804 231.689 136.648C232.582 136.157 233.564 135.732 234.614 135.376C235.016 136.643 235.513 137.823 236.098 138.886C236.849 140.251 237.709 141.362 238.646 142.195C235.572 141.313 232.878 139.52 230.877 137.129ZM242.403 142.765C240.441 142.501 238.593 140.943 237.145 138.311C236.598 137.316 236.133 136.212 235.754 135.025C237.796 134.455 240.054 134.133 242.403 134.086V142.765ZM242.403 132.892C239.943 132.939 237.572 133.278 235.422 133.878C235.336 133.548 235.256 133.213 235.183 132.873C235.922 132.476 236.426 131.696 236.426 130.8C236.426 129.69 235.652 128.757 234.615 128.512C234.6 128.221 234.59 127.929 234.584 127.635H240.736C240.961 128.434 241.598 129.063 242.403 129.274V132.892ZM243.597 142.765V134.086C245.946 134.133 248.204 134.455 250.246 135.025C250.153 135.315 250.056 135.6 249.953 135.88C249.859 135.869 249.763 135.862 249.666 135.862C248.369 135.862 247.315 136.917 247.315 138.213C247.315 138.818 247.544 139.37 247.921 139.787C246.648 141.526 245.158 142.555 243.597 142.765ZM247.354 142.195C247.905 141.705 248.429 141.119 248.92 140.442C249.154 140.521 249.405 140.565 249.666 140.565C250.962 140.565 252.017 139.51 252.017 138.213C252.017 137.439 251.641 136.752 251.062 136.323C251.177 136.014 251.284 135.698 251.386 135.377C252.436 135.732 253.418 136.157 254.311 136.648C254.594 136.804 254.865 136.965 255.123 137.13C253.122 139.521 250.428 141.313 247.354 142.195ZM255.857 136.182C255.549 135.982 255.226 135.788 254.886 135.602C253.919 135.07 252.856 134.611 251.72 134.229C252.258 132.184 252.563 129.949 252.611 127.635H258.793C258.667 130.813 257.597 133.753 255.857 136.182ZM258.795 126.44H252.612C252.606 126.114 252.595 125.789 252.579 125.466C253.471 125.131 254.107 124.271 254.107 123.264C254.107 122.048 253.18 121.044 251.995 120.924C251.916 120.557 251.831 120.196 251.738 119.84C252.868 119.459 253.924 119.003 254.886 118.473C255.24 118.279 255.575 118.077 255.894 117.869C257.626 120.307 258.684 123.255 258.795 126.44Z" fill="#64B5F6"/>
<path d="M79.5 86C79.5 84.067 81.067 82.5 83 82.5H181C182.933 82.5 184.5 84.067 184.5 86V145.1H79.5V86Z" fill="#E7F9FF" stroke="#727272"/>
<path d="M185 153.714C185 155.923 183.209 157.714 181 157.714L83 157.714C80.7909 157.714 79 155.923 79 153.714L79 145.6L185 145.6L185 153.714Z" fill="#C6C6C6"/>
<path d="M122.265 157.714H141.735L145.629 172.857H118.371L122.265 157.714Z" fill="#C6C6C6"/>
<path d="M122.265 157.714H141.735L143.736 165.286L121.021 162.636L122.265 157.714Z" fill="#626262"/>
<rect x="110.043" y="172.857" width="43.9143" height="2.27143" fill="#626262"/>
<path d="M90.3358 127.368L95.2441 122.524C95.2441 122.524 96.711 122.524 98.1778 123.988C99.6447 125.453 99.6447 126.917 99.6447 126.917L94.7364 131.817C97.5008 132.493 100.829 131.592 102.86 129.564C105.907 126.523 103.199 122.637 103.989 121.848C108.277 117.399 111.933 113.521 111.933 113.521L106.047 112.484C105.878 112.653 104.497 114.075 100.265 118.3C99.4754 119.088 95.7519 116.216 92.5925 119.314C90.6179 121.341 89.6588 124.608 90.3358 127.368Z" fill="#6E8E9D"/>
<path d="M95.2441 122.524V122.024H95.0389L94.8929 122.168L90.6631 126.342C90.4073 123.973 91.3023 121.358 92.9466 119.667C94.3684 118.275 95.8997 118.216 97.237 118.434C97.6907 118.508 98.0877 118.606 98.4641 118.7C98.6709 118.751 98.8716 118.801 99.072 118.844C99.3333 118.9 99.6026 118.946 99.8465 118.943C100.089 118.939 100.388 118.884 100.619 118.654C102.735 116.541 104.139 115.129 105.035 114.223C105.637 113.615 106.007 113.238 106.211 113.031C106.214 113.028 106.216 113.025 106.219 113.022L110.932 113.853C110.932 113.853 110.932 113.853 110.932 113.853C110.522 114.286 109.931 114.909 109.207 115.672C107.758 117.196 105.773 119.276 103.632 121.498C103.407 121.725 103.349 122.021 103.339 122.261C103.329 122.507 103.367 122.78 103.416 123.048C103.454 123.259 103.499 123.471 103.546 123.689C103.627 124.069 103.713 124.471 103.776 124.929C103.963 126.303 103.874 127.846 102.507 129.211C100.821 130.894 98.16 131.757 95.7697 131.492L99.9979 127.271L100.145 127.125V126.917H99.6447C100.145 126.917 100.145 126.917 100.145 126.917L100.145 126.916L100.145 126.915L100.145 126.912L100.145 126.905L100.144 126.884C100.144 126.868 100.143 126.845 100.141 126.818C100.137 126.763 100.13 126.688 100.117 126.595C100.09 126.408 100.038 126.15 99.9356 125.844C99.7306 125.229 99.3257 124.428 98.5311 123.635C97.7365 122.841 96.9336 122.437 96.3188 122.233C96.0122 122.131 95.7535 122.078 95.5668 122.052C95.4734 122.039 95.3979 122.032 95.3432 122.028C95.3159 122.026 95.2937 122.025 95.277 122.025L95.2563 122.024L95.2491 122.024L95.2463 122.024L95.2452 122.024L95.2446 122.024C95.2444 122.024 95.2441 122.024 95.2441 122.524Z" stroke="black" stroke-opacity="0.15"/>
<path d="M127.433 99.1813L122.525 104.025C122.525 104.025 121.058 104.025 119.591 102.561C118.124 101.096 118.124 99.6318 118.124 99.6318L123.033 94.7317C120.268 94.0558 116.94 94.957 114.909 96.9846C111.862 100.026 114.57 103.912 113.78 104.701C109.493 109.151 106.16 112.315 106.047 112.484L111.933 113.521C111.933 113.521 113.272 112.474 117.504 108.249C118.294 107.461 122.017 110.333 125.177 107.236C127.151 105.208 128.11 101.941 127.433 99.1813Z" fill="#8AA1AC"/>
<path d="M111.793 112.989L107.073 112.157C107.2 112.031 107.345 111.889 107.506 111.731C107.84 111.402 108.241 111.007 108.7 110.553C110.084 109.184 111.991 107.278 114.138 105.051C114.362 104.824 114.421 104.528 114.43 104.288C114.44 104.042 114.402 103.769 114.353 103.501C114.315 103.29 114.27 103.079 114.223 102.86C114.142 102.48 114.056 102.078 113.994 101.62C113.807 100.246 113.895 98.7027 115.262 97.3385C116.948 95.6547 119.609 94.7924 121.999 95.0568L117.771 99.278L117.624 99.4245V99.6318L118.124 99.6318C117.624 99.6318 117.624 99.6321 117.624 99.6324L117.624 99.6329L117.624 99.6341L117.624 99.6369L117.625 99.644L117.625 99.6648C117.626 99.6814 117.627 99.7036 117.628 99.7309C117.632 99.7856 117.639 99.8611 117.652 99.9544C117.679 100.141 117.731 100.399 117.833 100.705C118.039 101.32 118.443 102.121 119.238 102.915C120.033 103.708 120.835 104.112 121.45 104.316C121.757 104.418 122.016 104.471 122.202 104.497C122.296 104.511 122.371 104.517 122.426 104.521C122.453 104.523 122.475 104.524 122.492 104.524L122.513 104.525L122.52 104.525L122.523 104.525L122.524 104.525L122.524 104.525C122.525 104.525 122.525 104.525 122.525 104.025V104.525H122.73L122.876 104.381L127.106 100.207C127.362 102.576 126.467 105.191 124.822 106.883C123.401 108.274 121.869 108.333 120.532 108.115C120.078 108.041 119.681 107.943 119.305 107.849C119.098 107.798 118.898 107.748 118.697 107.705C118.436 107.649 118.166 107.603 117.923 107.607C117.68 107.61 117.381 107.665 117.151 107.895C115.039 110.004 113.651 111.317 112.794 112.101C112.366 112.492 112.07 112.752 111.883 112.912C111.85 112.941 111.819 112.966 111.793 112.989Z" stroke="white" stroke-opacity="0.2"/>
<rect x="145.087" y="118.834" width="3.03268" height="12.5098" fill="#E57373"/>
<rect x="156.46" y="109.357" width="3.03268" height="21.9869" fill="#24BBCB"/>
<rect x="162.146" y="121.109" width="3.03268" height="10.2353" fill="#2196F3"/>
<rect x="167.832" y="115.423" width="3.03268" height="15.9216" fill="#F3B881"/>
<rect x="150.773" y="115.423" width="3.03268" height="15.9216" fill="#90CAF9"/>
<path d="M140.159 118.076L150.015 112.39L156.081 104.24L162.715 109.547L172.571 104.24" stroke="#A6FF87" stroke-width="2"/>
<path d="M22.3617 135.982C22.6578 133.82 24.4942 131.687 25.0865 131.095C28.6111 127.689 28.6999 122.091 25.2939 118.567C21.8878 115.042 16.2603 114.953 12.7358 118.359C9.21124 121.765 9.12238 127.393 12.5285 130.917L12.7358 131.125C13.3282 131.687 15.1645 133.82 15.4607 136.012C15.5199 136.663 15.5791 137.315 15.5495 137.937H22.2432C22.2728 137.285 22.3024 136.634 22.3617 135.982Z" fill="#FFECBA"/>
<path d="M22.2728 138.529H15.5495C15.4014 138.529 15.2533 138.47 15.1348 138.352C15.0164 138.233 14.9571 138.085 14.9571 137.937C14.9571 137.315 14.9275 136.693 14.8683 136.071C14.6017 134.146 12.9431 132.161 12.3211 131.539L12.1138 131.332C10.3367 129.525 9.38894 127.126 9.44817 124.579C9.50741 122.032 10.5144 119.692 12.3211 117.915C14.1278 116.138 16.5269 115.19 19.0741 115.249C21.5916 115.279 23.961 116.316 25.7381 118.122C27.5152 119.929 28.463 122.328 28.4037 124.875C28.3741 127.393 27.3375 129.762 25.5308 131.539C24.9384 132.102 23.2502 134.116 22.9836 136.071C22.9244 136.693 22.8652 137.315 22.8948 137.937C22.8948 138.085 22.8355 138.233 22.7171 138.352C22.569 138.47 22.4209 138.529 22.2728 138.529ZM16.1419 137.345H21.6804C21.6804 136.871 21.7397 136.397 21.7693 135.923C22.1543 133.168 24.6423 130.74 24.6719 130.71C26.2712 129.17 27.1598 127.097 27.1894 124.875C27.219 122.654 26.3897 120.551 24.8496 118.981C23.3094 117.382 21.2362 116.493 19.0148 116.464C16.8231 116.405 14.7202 117.234 13.1504 118.774C11.5511 120.314 10.6625 122.387 10.6329 124.609C10.6033 126.83 11.4326 128.933 12.9727 130.503L13.1504 130.68C13.1801 130.71 15.668 133.168 16.053 135.893C16.1122 136.397 16.1419 136.871 16.1419 137.345Z" fill="#3E5D6D"/>
<path d="M15.5199 142.498C15.431 144.482 16.986 144.893 19 145.1C20.9844 144.922 22.4209 144.512 22.332 142.498C22.332 141.017 22.2728 139.329 22.2728 137.907H15.5495C15.5791 139.329 15.5199 141.017 15.5199 142.498Z" fill="#B2DAF6"/>
<path d="M18.8667 145.733C16.5565 145.526 14.8387 144.808 14.9275 142.498C14.9275 141.817 14.9275 141.106 14.9571 140.425C14.9571 139.595 14.9868 138.707 14.9868 137.937C14.9868 137.789 15.046 137.641 15.1645 137.522C15.2829 137.404 15.431 137.345 15.5791 137.345H22.3024C22.4505 137.345 22.5986 137.404 22.7171 137.522C22.8355 137.641 22.8948 137.789 22.8948 137.937C22.8948 138.677 22.8948 139.536 22.9244 140.366C22.9244 141.076 22.954 141.817 22.954 142.498C23.0429 144.808 20.9 145.618 18.8667 145.733ZM16.1419 138.529C16.1419 139.151 16.1419 139.803 16.1122 140.425C16.1122 141.136 16.0826 141.846 16.0826 142.498V142.528C16.0234 144.186 17.2081 144.445 18.8667 144.652C20.5253 144.475 21.7989 144.216 21.7101 142.528C21.7101 141.817 21.7101 141.106 21.6804 140.395C21.6804 139.773 21.6508 139.122 21.6508 138.529H16.1419Z" fill="#3E5D6D"/>
<path d="M23.0453 138.529H14.8118C14.486 138.529 14.4539 138.263 14.4539 137.937C14.4539 137.611 14.486 137.345 14.8118 137.345H23.0453C23.3711 137.345 23.319 137.937 23.319 137.937C23.319 137.937 23.3711 138.529 23.0453 138.529ZM22.332 140.958H15.5199C15.1941 140.958 14.9275 140.691 14.9275 140.366C14.9275 140.04 15.1941 139.773 15.5199 139.773H22.332C22.6578 139.773 22.9244 140.04 22.9244 140.366C22.9244 140.691 22.6578 140.958 22.332 140.958ZM22.332 143.12H15.5199C15.1941 143.12 14.9275 142.853 14.9275 142.528C14.9275 142.202 15.1941 141.935 15.5199 141.935H22.332C22.6578 141.935 22.9244 142.202 22.9244 142.528C22.9244 142.853 22.6578 143.12 22.332 143.12Z" fill="#3E5D6D"/>
<path d="M8.70773 116.612C8.55963 116.612 8.41154 116.553 8.29307 116.434L6.8714 115.012C6.63446 114.776 6.63446 114.42 6.8714 114.183C7.10835 113.946 7.46377 113.946 7.70071 114.183L9.12238 115.605C9.35932 115.842 9.35932 116.197 9.12238 116.434C9.00391 116.553 8.85582 116.612 8.70773 116.612Z" fill="black"/>
<path d="M28.9961 116.612C28.848 116.612 28.6999 116.553 28.5815 116.434C28.3445 116.197 28.3445 115.842 28.5815 115.605L30.0031 114.183C30.2401 113.946 30.5955 113.946 30.8324 114.183C31.0694 114.42 31.0694 114.776 30.8324 115.012L29.4108 116.434C29.2923 116.553 29.1442 116.612 28.9961 116.612Z" fill="black"/>
<path d="M19.3619 112.267C19.2571 112.372 19.1105 112.435 18.943 112.435C18.6079 112.435 18.3566 112.183 18.3566 111.848L18.3566 109.838C18.3566 109.503 18.6079 109.251 18.943 109.251C19.2781 109.251 19.5294 109.503 19.5294 109.838L19.5294 111.848C19.5294 112.016 19.4666 112.162 19.3619 112.267Z" fill="black"/>
<path d="M12.9833 126.417C12.4556 124.833 12.0333 121.413 14.5667 120.4" stroke="#F3B881"/>
</svg>
