<svg width="260" height="175" viewBox="0 0 260 175" fill="none" xmlns="http://www.w3.org/2000/svg">
<circle cx="222.5" cy="162.5" r="9.5" fill="#24BBCB"/>
<path d="M139 80.5C139 85.7467 134.747 90 129.5 90C124.253 90 120 85.7467 120 80.5C120 75.2533 124.253 71 129.5 71C134.747 71 139 75.2533 139 80.5Z" fill="#E4BFF5"/>
<circle cx="15.5" cy="27.5" r="9.5" fill="#FFF59D"/>
<circle cx="244.5" cy="107.5" r="9.5" fill="#F3B881"/>
<path d="M133 148.5C133 153.747 128.747 158 123.5 158C118.253 158 114 153.747 114 148.5C114 143.253 118.253 139 123.5 139C128.747 139 133 143.253 133 148.5Z" fill="#E0C06C"/>
<path d="M34 162.5C34 167.747 29.7467 172 24.5 172C19.2533 172 15 167.747 15 162.5C15 157.253 19.2533 153 24.5 153C29.7467 153 34 157.253 34 162.5Z" fill="#A7EDBA"/>
<circle cx="235.5" cy="17.5" r="9.5" fill="#ECD5FF"/>
<circle cx="139.5" cy="23.5" r="9.5" fill="#E57373"/>
<g clip-path="url(#clip0_0_3)">
<path d="M244.982 43.0701L237.331 127.431L202.939 136.815L168.643 127.444L161 43.0701H244.982Z" fill="#264DE4"/>
<path d="M230.781 122.059L237.319 49.9689H202.991V129.642L230.781 122.059Z" fill="#2965F1"/>
<path d="M178.521 81.2618L179.463 91.6098H202.991V81.2618H178.521Z" fill="#EBEBEB"/>
<path d="M202.991 60.3171H202.955H176.628L177.583 70.6653H202.991V60.3171Z" fill="#EBEBEB"/>
<path d="M202.991 118.903V108.137L202.945 108.149L191.236 105.037L190.487 96.784H184.797H179.933L181.406 113.032L202.942 118.917L202.991 118.903Z" fill="#EBEBEB"/>
<path d="M215.901 91.6098L214.681 105.031L202.955 108.146V118.912L224.508 113.032L224.666 111.284L227.137 84.0406L227.393 81.2618L229.291 60.3171H202.955V70.6653H217.769L216.813 81.2618H202.955V91.6098H215.901Z" fill="white"/>
</g>
<g clip-path="url(#clip1_0_3)">
<path d="M22.4546 130.206L15 43H96.9548L89.5003 130.159L55.9097 139.859" fill="#E44D26"/>
<path d="M55.9774 132.442V50.1573H89.4777L83.0849 124.555" fill="#F16529"/>
<path d="M30.2254 60.8226H55.9774V71.5114H41.4749L42.4237 82.4592H55.9774V93.1245H33.0265M33.4782 98.4925H43.7791L44.5019 107.039L55.9774 110.241V121.4L34.924 115.279" fill="#EBEBEB"/>
<path d="M81.6391 60.8226H55.9323V71.5114H80.6904M79.7642 82.4592H55.9323V93.1481H68.5824L67.3851 107.039L55.9323 110.241V121.353L76.9405 115.279" fill="white"/>
</g>
<defs>
<clipPath id="clip0_0_3">
<rect width="84" height="94" fill="white" transform="translate(161 43)"/>
</clipPath>
<clipPath id="clip1_0_3">
<rect width="82" height="97" fill="white" transform="translate(15 43)"/>
</clipPath>
</defs>
</svg>
