<svg width="260" height="175" viewBox="0 0 260 175" fill="none" xmlns="http://www.w3.org/2000/svg">
<path d="M74.5 20C74.5 18.067 76.067 16.5 78 16.5H183C184.933 16.5 186.5 18.067 186.5 20V83.1098H74.5V20Z" fill="#C0F0FF" stroke="#727272"/>
<path d="M187 92.4878C187 94.697 185.209 96.4878 183 96.4878L78 96.4878C75.7909 96.4878 74 94.6969 74 92.4878L74 83.6098L187 83.6098L187 92.4878Z" fill="#C6C6C6"/>
<path d="M120.122 96.4878H140.878L145.029 112.585H115.971L120.122 96.4878Z" fill="#C6C6C6"/>
<path d="M120.122 96.4878H140.878L143.011 104.537L118.796 101.72L120.122 96.4878Z" fill="#626262"/>
<rect x="107.093" y="112.585" width="46.8143" height="2.41463" fill="#626262"/>
<path d="M143.643 36.0591H177.724V72.6269C177.724 73.1791 177.276 73.6269 176.724 73.6269H144.643C144.091 73.6269 143.643 73.1791 143.643 72.6269V36.0591Z" fill="#FFF59D"/>
<rect x="148.787" y="38.65" width="23.7922" height="0.896844" fill="#8F8F8F"/>
<rect x="148.787" y="44.031" width="23.7922" height="0.896843" fill="#8F8F8F"/>
<rect x="148.787" y="49.4121" width="11.8961" height="0.896843" fill="#8F8F8F"/>
<rect x="148.787" y="46.7216" width="23.7922" height="0.896844" fill="#8F8F8F"/>
<rect x="148.787" y="41.3405" width="23.7922" height="0.896843" fill="#8F8F8F"/>
<rect x="172.58" y="68.4451" width="23.7922" height="0.896843" transform="rotate(-180 172.58 68.4451)" fill="#8F8F8F"/>
<rect x="172.58" y="63.064" width="23.7922" height="0.896843" transform="rotate(-180 172.58 63.064)" fill="#8F8F8F"/>
<rect x="172.58" y="57.683" width="11.8961" height="0.896843" transform="rotate(-180 172.58 57.683)" fill="#8F8F8F"/>
<rect x="172.58" y="60.3735" width="23.7922" height="0.896843" transform="rotate(-180 172.58 60.3735)" fill="#8F8F8F"/>
<rect x="172.58" y="65.7546" width="23.7922" height="0.896843" transform="rotate(-180 172.58 65.7546)" fill="#8F8F8F"/>
<rect x="144.643" y="29.2864" width="32.0807" height="5.77264" fill="#F3B881" stroke="#666666" stroke-width="2"/>
<rect x="148.787" y="32.1728" width="5.82948" height="1.28606" transform="rotate(-90 148.787 32.1728)" fill="#8F8F8F"/>
<rect x="171.937" y="32.1728" width="5.82948" height="1.28606" transform="rotate(-90 171.937 32.1728)" fill="#8F8F8F"/>
<rect x="156.504" y="32.1728" width="5.82948" height="1.28606" transform="rotate(-90 156.504 32.1728)" fill="#8F8F8F"/>
<rect x="164.22" y="32.1728" width="5.82948" height="1.28606" transform="rotate(-90 164.22 32.1728)" fill="#8F8F8F"/>
<ellipse cx="95.4166" cy="34.4701" rx="11.0443" ry="11.0821" fill="#90CAF9"/>
<path fill-rule="evenodd" clip-rule="evenodd" d="M103.412 26.8052L95.5739 34.3316L91.8273 23.9931C92.9581 23.601 94.1722 23.3881 95.4358 23.3881C98.5715 23.3881 101.402 24.6993 103.412 26.8052Z" fill="#E57373"/>
<path fill-rule="evenodd" clip-rule="evenodd" d="M103.477 26.7065C105.011 28.2913 106.078 30.3349 106.452 32.6127L95.5547 34.3316L103.477 26.7065Z" fill="#D89150"/>
<path fill-rule="evenodd" clip-rule="evenodd" d="M106.493 35.9437C106.563 35.4408 106.599 34.9271 106.599 34.4049C106.599 33.7662 106.545 33.14 106.442 32.5308L95.6928 34.2664L106.493 35.9437Z" fill="#2196F3"/>
<rect x="88.345" y="66.6923" width="2.05848" height="8.30769" fill="#E57373"/>
<rect x="96.0643" y="60.3986" width="2.05848" height="14.6014" fill="#24BBCB"/>
<rect x="99.924" y="68.2028" width="2.05848" height="6.7972" fill="#2196F3"/>
<rect x="103.784" y="64.4266" width="2.05848" height="10.5734" fill="#F3B881"/>
<rect x="92.2047" y="64.4266" width="2.05848" height="10.5734" fill="#90CAF9"/>
<path d="M85 66.1888L91.6901 62.4126L95.807 57L100.31 60.5245L107 57" stroke="#BFBFBF"/>
<g clip-path="url(#clip0_1_2)">
<path d="M209.791 157.874C208.415 157.874 207.001 158.976 207.001 160.905C207.001 162.669 208.244 163.914 209.791 163.914C211.067 163.914 211.636 163.058 211.636 163.058V163.431C211.636 163.608 211.803 163.804 212.009 163.804H212.932V158.005H211.636V158.741C211.636 158.741 211.062 157.874 209.791 157.874ZM210.021 159.059C211.154 159.059 211.748 160.055 211.748 160.905C211.748 161.851 211.042 162.749 210.024 162.749C209.172 162.749 208.319 162.059 208.319 160.892C208.319 159.838 209.053 159.059 210.021 159.059Z" fill="black"/>
<path d="M214.733 163.804C214.534 163.804 214.36 163.662 214.36 163.431V158.005H215.656V158.723C215.949 158.282 216.523 157.872 217.404 157.872C218.843 157.872 219.609 159.019 219.609 160.092V163.804H218.709C218.473 163.804 218.313 163.607 218.313 163.409V160.378C218.313 159.783 217.949 159.061 217.106 159.061C216.197 159.061 215.656 159.92 215.656 160.729V163.804L214.733 163.804Z" fill="black"/>
<path d="M223.387 157.874C222.012 157.874 220.598 158.976 220.598 160.905C220.598 162.669 221.841 163.914 223.387 163.914C224.664 163.914 225.233 163.058 225.233 163.058V163.431C225.233 163.608 225.399 163.804 225.606 163.804H226.529V155.106H225.233V158.741C225.233 158.741 224.659 157.874 223.387 157.874ZM223.618 159.059C224.751 159.059 225.345 160.055 225.345 160.905C225.345 161.851 224.639 162.749 223.621 162.749C222.769 162.749 221.916 162.059 221.916 160.892C221.916 159.838 222.65 159.059 223.618 159.059Z" fill="black"/>
<path d="M228.33 163.804C228.131 163.804 227.956 163.662 227.956 163.431V158.005H229.252V158.972C229.475 158.43 229.957 157.939 230.812 157.939C231.05 157.939 231.273 157.983 231.273 157.983V159.323C231.273 159.323 230.995 159.213 230.658 159.213C229.749 159.213 229.252 160.073 229.252 160.882V163.804H228.33Z" fill="black"/>
<path d="M239.137 163.804C238.938 163.804 238.764 163.662 238.764 163.431V158.005H240.06V163.804L239.137 163.804Z" fill="black"/>
<path d="M243.86 157.874C242.484 157.874 241.07 158.976 241.07 160.905C241.07 162.669 242.313 163.914 243.86 163.914C245.136 163.914 245.705 163.058 245.705 163.058V163.431C245.705 163.608 245.872 163.804 246.078 163.804H247.001V155.106H245.705V158.741C245.705 158.741 245.131 157.874 243.86 157.874ZM244.091 159.059C245.223 159.059 245.817 160.055 245.817 160.905C245.817 161.851 245.112 162.749 244.093 162.749C243.241 162.749 242.389 162.059 242.389 160.892C242.389 159.838 243.123 159.059 244.091 159.059Z" fill="black"/>
<path d="M239.402 156.755C239.876 156.755 240.259 156.371 240.259 155.898C240.259 155.425 239.876 155.041 239.402 155.041C238.929 155.041 238.546 155.425 238.546 155.898C238.546 156.371 238.929 156.755 239.402 156.755Z" fill="black"/>
<path d="M234.691 157.872C233.251 157.872 231.668 158.947 231.668 160.895C231.668 162.669 233.016 163.914 234.688 163.914C236.749 163.914 237.755 162.258 237.755 160.906C237.755 159.246 236.459 157.872 234.691 157.872ZM234.696 159.082C235.692 159.082 236.435 159.885 236.435 160.898C236.435 161.929 235.646 162.725 234.699 162.725C233.819 162.725 232.965 162.009 232.965 160.916C232.965 159.804 233.778 159.082 234.696 159.082Z" fill="black"/>
<path d="M236.763 135.753L240.078 130.009C240.266 129.687 240.152 129.278 239.835 129.091C239.517 128.904 239.104 129.013 238.921 129.335L235.562 135.153C232.999 133.982 230.113 133.33 227.011 133.33C223.908 133.33 221.023 133.982 218.46 135.153L215.101 129.335C214.913 129.013 214.504 128.904 214.182 129.091C213.86 129.278 213.752 129.687 213.939 130.009L217.255 135.753C211.537 138.852 207.664 144.639 207.024 151.415H246.997C246.358 144.639 242.485 138.852 236.763 135.753ZM217.833 145.801C216.906 145.801 216.158 145.048 216.158 144.126C216.158 143.199 216.911 142.45 217.833 142.45C218.76 142.45 219.509 143.203 219.509 144.126C219.513 145.048 218.76 145.801 217.833 145.801ZM236.184 145.801C235.257 145.801 234.509 145.048 234.509 144.126C234.509 143.199 235.261 142.45 236.184 142.45C237.111 142.45 237.859 143.203 237.859 144.126C237.864 145.048 237.111 145.801 236.184 145.801Z" fill="#32DE84"/>
</g>
<g clip-path="url(#clip1_1_2)">
<path d="M12 10H46V44H12V10Z" fill="#464646"/>
<path d="M42.7432 16.4958C42.4747 15.7889 41.8305 14.7958 40.9179 14.0889C40.3811 13.6863 39.7726 13.2926 38.9137 13.0421C37.9832 12.7737 36.8379 12.6842 35.4421 12.6842H22.5579C21.1532 12.6842 20.0168 12.7737 19.0953 13.0511C18.2363 13.3105 17.6011 13.6953 17.0821 14.0979C16.1695 14.7958 15.5253 15.7979 15.2479 16.5047C14.6932 17.9274 14.6842 19.5379 14.6842 20.5579V33.4421C14.6842 34.4621 14.6932 36.0726 15.2479 37.5042C15.5253 38.2111 16.1695 39.2042 17.0821 39.9111C17.61 40.3137 18.2363 40.7074 19.0953 40.9579C20.0168 41.2263 21.1532 41.3158 22.5579 41.3158H35.4421C36.8468 41.3158 37.9832 41.2263 38.9047 40.9489C39.7637 40.6895 40.399 40.3047 40.9179 39.9021C41.8305 39.2042 42.4747 38.2021 42.7521 37.4953C43.3158 36.0726 43.3158 34.4532 43.3158 33.4332V20.5489C43.3158 19.5289 43.3068 17.9184 42.7521 16.4868L42.7432 16.4958ZM20.3568 32.3684H19.2921V26.0068H20.3568V32.3684ZM19.8289 24.9332C19.4711 24.9332 19.1668 24.6379 19.1668 24.2711C19.1668 23.9042 19.4621 23.6089 19.8289 23.6089C20.1958 23.6089 20.5 23.9042 20.5 24.2711C20.4911 24.6379 20.1958 24.9332 19.8289 24.9332ZM26.2263 32.5295C23.4168 32.5295 21.6453 30.5253 21.6453 27.3311C21.6453 24.1368 23.4168 22.1237 26.2263 22.1237C29.0358 22.1237 30.8074 24.1368 30.8074 27.3311C30.8074 30.5253 29.0358 32.5295 26.2263 32.5295ZM35.4958 32.5295C33.3842 32.5295 31.8989 31.3663 31.8005 29.6305H32.7579C32.8653 30.8384 34.0016 31.6616 35.5853 31.6616C37.0974 31.6616 38.18 30.8384 38.18 29.7021C38.18 28.7626 37.5268 28.1989 36.0326 27.8232L34.78 27.5011C32.91 27.0268 32.0779 26.2395 32.0779 24.9063C32.0779 23.2779 33.5453 22.1147 35.5316 22.1147C37.5 22.1147 38.9316 23.2779 38.9942 24.8795H38.0368C37.9474 23.7432 36.9363 22.9826 35.5047 22.9826C34.1089 22.9826 33.0711 23.7611 33.0711 24.8705C33.0711 25.7384 33.6974 26.2484 35.1826 26.6242L36.2742 26.9016C38.3053 27.4116 39.1553 28.19 39.1553 29.5947C39.1553 31.3663 37.7326 32.5295 35.4958 32.5295ZM29.8321 27.3311C29.8321 29.9705 28.4363 31.6437 26.2263 31.6437C24.0163 31.6437 22.6295 29.9705 22.6295 27.3311C22.6295 24.6826 24.0163 23.0095 26.2263 23.0095C28.4363 23.0095 29.8321 24.6826 29.8321 27.3311Z" fill="#EFEFEF"/>
</g>
<rect x="202" y="81" width="19" height="34.1406" rx="3" fill="#D9D9D9"/>
<rect x="203" y="82.5938" width="17" height="28" rx="2" fill="#C0F0FF"/>
<circle cx="211.648" cy="112.914" r="1.63281" fill="#6F6F6F"/>
<rect x="206.129" y="96.9231" width="1.30994" height="5.07692" fill="#E57373"/>
<rect x="211.041" y="93.0769" width="1.30994" height="8.92308" fill="#24BBCB"/>
<rect x="213.497" y="97.8462" width="1.30994" height="4.15385" fill="#2196F3"/>
<rect x="215.953" y="95.5385" width="1.30994" height="6.46154" fill="#F3B881"/>
<rect x="208.585" y="95.5385" width="1.30994" height="6.46154" fill="#90CAF9"/>
<path d="M204 96.6154L208.257 94.3077L210.877 91L213.743 93.1538L218 91" stroke="#BFBFBF"/>
<g clip-path="url(#clip2_1_2)">
<path d="M102.191 157.835L105.26 150.074H114.122L109.916 138.301L115.176 125L130.241 165H119.131L116.556 157.835H102.191Z" fill="#3D3D3D"/>
<path d="M92.7119 165L108.839 125H98.1485L87.1156 150.848L79.27 125H71.0509L62.6284 150.848L56.6877 139.071L51.3113 155.631L56.7707 165H67.293L74.9042 141.82L82.1667 165H92.7119Z" fill="#5A0FC8"/>
<path d="M34.1489 151.268H40.735C42.5334 151.293 44.3267 151.069 46.0636 150.601L47.7672 145.354L52.5273 130.688C52.1614 130.109 51.7448 129.564 51.2823 129.059C48.842 126.353 45.2675 125 40.5586 125H24V165H34.1489V151.268ZM42.8639 134.203C43.8184 135.163 44.2957 136.449 44.2957 138.06C44.2957 139.672 43.8765 140.959 43.0382 141.922C42.1183 142.979 40.4237 143.507 37.9545 143.507H34.1489V132.761H37.9835C40.2812 132.761 41.9087 133.241 42.866 134.203H42.8639Z" fill="#3D3D3D"/>
</g>
<path d="M237.544 39.6256L237.385 39.7814L237.394 40.0039C237.49 42.2683 237.493 43.3634 237.422 43.9149C237.396 44.1242 237.363 44.2075 237.351 44.2333C237.338 44.2393 237.312 44.251 237.263 44.2701L237.26 44.2712L234.262 45.4659L234.262 45.4659C234.214 45.4852 234.188 45.4942 234.175 45.4982C234.165 45.4949 234.145 45.4875 234.114 45.4713C234.061 45.4434 233.984 45.3949 233.875 45.3116C233.422 44.9659 232.625 44.187 231.044 42.5227L230.898 42.3698L230.688 42.3671L229.316 42.35L229.095 42.3472L228.944 42.5091C227.414 44.151 226.643 44.9146 226.204 45.2498C226.025 45.3862 225.942 45.4181 225.919 45.4251C225.907 45.4212 225.88 45.4116 225.825 45.3892L222.756 44.0668L222.739 44.0268C222.551 42.6279 222.505 41.2141 222.603 39.8062L222.618 39.5827L222.462 39.4224L221.484 38.4206L221.331 38.2644L221.113 38.2701C218.855 38.3282 217.761 38.3136 217.209 38.2363C216.987 38.2052 216.903 38.1697 216.88 38.1574C216.874 38.1455 216.862 38.1199 216.842 38.0704L216.842 38.0703L215.605 35.0521L215.605 35.0514C215.586 35.0049 215.576 34.9792 215.572 34.9664C215.581 34.9399 215.616 34.8558 215.749 34.6798C216.086 34.2355 216.85 33.4516 218.489 31.8948L218.645 31.747V31.5323V30.1394V29.9231L218.487 29.7749C217.074 28.4481 216.339 27.6983 215.953 27.2693C215.76 27.0546 215.662 26.9286 215.613 26.8568C215.574 26.8019 215.568 26.7839 215.565 26.7766C215.565 26.7763 215.565 26.776 215.565 26.7758L215.565 26.7758L215.564 26.7745L215.534 26.7011L215.566 26.6084L216.803 23.6414C216.824 23.5944 216.835 23.5701 216.841 23.5587C216.865 23.5465 216.95 23.5111 217.179 23.4815C217.738 23.4093 218.842 23.4033 221.115 23.4765L221.329 23.4834L221.482 23.3334L222.452 22.3798L222.61 22.2244L222.601 22.0029C222.51 19.7398 222.509 18.6447 222.58 18.0928C222.607 17.8797 222.641 17.7963 222.653 17.7712C222.666 17.7652 222.692 17.7533 222.741 17.7337L222.741 17.7337L225.745 16.5358C225.745 16.5358 225.745 16.5358 225.745 16.5358C225.798 16.515 225.825 16.5057 225.837 16.5017C225.847 16.5049 225.867 16.5122 225.897 16.5281C225.95 16.5557 226.026 16.6041 226.135 16.6873C226.586 17.0331 227.379 17.8119 228.958 19.4747L229.103 19.6271L229.313 19.6303L230.685 19.6506L230.907 19.6539L231.058 19.4914C232.593 17.8432 233.366 17.08 233.806 16.7485C233.977 16.6195 234.058 16.5876 234.083 16.5802C234.096 16.5848 234.125 16.5961 234.181 16.6215L234.181 16.6216L234.189 16.6248L237.241 17.9405L237.258 17.9792C237.448 19.3797 237.495 20.7955 237.398 22.2053L237.383 22.4295L237.54 22.5899L238.518 23.5863L238.671 23.7418L238.889 23.7359C241.146 23.675 242.241 23.6916 242.794 23.7701C243.016 23.8017 243.1 23.8377 243.124 23.8502C243.13 23.8619 243.141 23.8867 243.161 23.934L244.398 26.9487C244.417 26.9944 244.426 27.0199 244.431 27.0327C244.422 27.0594 244.386 27.1436 244.253 27.3196C243.915 27.7639 243.151 28.5479 241.512 30.1048L241.357 30.2526V30.4673V31.8644V32.0806L241.514 32.2287C242.924 33.5539 243.659 34.3041 244.045 34.7341C244.239 34.9493 244.337 35.0761 244.388 35.1486C244.427 35.2052 244.433 35.2232 244.435 35.2286C244.436 35.2291 244.436 35.2296 244.436 35.2299L244.436 35.2303L244.468 35.3079L244.438 35.3976L243.204 38.3599C243.184 38.4077 243.172 38.4321 243.166 38.4433C243.157 38.4481 243.138 38.4565 243.105 38.4666C243.049 38.4841 242.961 38.5036 242.826 38.521C242.267 38.593 241.163 38.5984 238.888 38.5252L238.674 38.5183L238.522 38.6677L237.544 39.6256ZM224.543 33.1735L224.543 33.1736L224.545 33.179C225.126 34.6242 226.262 35.7818 227.703 36.4004C229.145 37.019 230.775 37.0494 232.239 36.4849L232.239 36.485L232.244 36.4829C233.318 36.0546 234.241 35.3226 234.897 34.3777C235.552 33.4327 235.91 32.3171 235.925 31.171C235.941 30.0249 235.612 28.9003 234.982 27.9386C234.352 26.977 233.449 26.2213 232.387 25.7653C231.324 25.3094 230.15 25.1731 229.009 25.3732C227.869 25.5733 226.814 26.1012 225.975 26.8915C225.137 27.682 224.553 28.6999 224.298 29.8179C224.043 30.936 224.128 32.1035 224.543 33.1735Z" fill="#99B8C4" stroke="#6C95A5"/>
<defs>
<clipPath id="clip0_1_2">
<rect width="40" height="34.9152" fill="white" transform="translate(207 129)"/>
</clipPath>
<clipPath id="clip1_1_2">
<rect width="34" height="34" fill="white" transform="translate(12 10)"/>
</clipPath>
<clipPath id="clip2_1_2">
<rect width="106.241" height="40" fill="white" transform="translate(24 125)"/>
</clipPath>
</defs>
</svg>
