<svg width="260" height="175" viewBox="0 0 260 175" fill="none" xmlns="http://www.w3.org/2000/svg">
<circle cx="37.5" cy="17.5" r="9.5" transform="rotate(-180 37.5 17.5)" fill="#24BBCB"/>
<circle cx="120.5" cy="87.5" r="9.5" transform="rotate(-180 120.5 87.5)" fill="#E4BFF5"/>
<circle cx="244.5" cy="152.5" r="9.5" transform="rotate(-180 244.5 152.5)" fill="#FFF59D"/>
<circle cx="15.5" cy="72.5" r="9.5" transform="rotate(-180 15.5 72.5)" fill="#F3B881"/>
<path d="M123 140.5C123 135.253 127.253 131 132.5 131C137.747 131 142 135.253 142 140.5C142 145.747 137.747 150 132.5 150C127.253 150 123 145.747 123 140.5Z" fill="#B18000"/>
<path d="M123 140.5C123 135.253 127.253 131 132.5 131C137.747 131 142 135.253 142 140.5C142 145.747 137.747 150 132.5 150C127.253 150 123 145.747 123 140.5Z" fill="#E0C06C"/>
<path d="M226 17.5C226 12.2533 230.253 8 235.5 8C240.747 8 245 12.2533 245 17.5C245 22.7467 240.747 27 235.5 27C230.253 27 226 22.7467 226 17.5Z" fill="#A7EDBA"/>
<circle cx="34.5" cy="152.5" r="9.5" transform="rotate(-180 34.5 152.5)" fill="#ECD5FF"/>
<circle cx="160.5" cy="35.5" r="9.5" transform="rotate(-180 160.5 35.5)" fill="#E57373"/>
<path d="M37 42.5H134.61C136.543 42.5 138.11 44.067 138.11 46V104.866H33.5V46C33.5 44.067 35.067 42.5 37 42.5Z" fill="#D7F5FF" stroke="#727272"/>
<path d="M138.61 113.436C138.61 115.645 136.819 117.436 134.61 117.436L37 117.436C34.7909 117.436 33 115.645 33 113.436L33 105.366L138.61 105.366L138.61 113.436Z" fill="#C6C6C6"/>
<path d="M76.106 117.436H95.5037L99.3833 132.523H72.2265L76.106 117.436Z" fill="#C6C6C6"/>
<path d="M76.106 117.436H95.5037L97.4974 124.979L74.8667 122.339L76.106 117.436Z" fill="#626262"/>
<rect x="63.9286" y="132.523" width="43.7526" height="2.26307" fill="#626262"/>
<rect x="205.629" y="94.3833" width="20.8134" height="38.6234" rx="3" fill="#D9D9D9"/>
<rect x="207" y="96" width="18" height="32" rx="2" fill="#D7F5FF"/>
<ellipse cx="216.198" cy="130.488" rx="1.78865" ry="1.8472" fill="#6F6F6F"/>
<rect x="151.207" y="77.2428" width="42.7926" height="56.3186" rx="5" fill="#D9D9D9"/>
<rect x="153.585" y="79.0341" width="38.6322" height="51.3495" rx="3" fill="#D7F5FF"/>
<rect x="170.226" y="130.981" width="4.75474" height="1.79126" rx="0.89563" fill="#6F6F6F"/>
<rect x="50.442" y="52.8235" width="71" height="16.7647" rx="2" fill="#90CAF9"/>
<rect x="50.442" y="45" width="71" height="5.58824" rx="1" fill="#E57373"/>
<rect x="50.442" y="72.9412" width="21.3" height="11.1765" rx="2" fill="#D89150"/>
<rect x="75.292" y="72.9412" width="21.3" height="11.1765" rx="2" fill="#0097A7"/>
<rect x="100.142" y="72.9412" width="21.3" height="11.1765" rx="2" fill="#2196F3"/>
<rect x="50.442" y="87.4706" width="21.3" height="1.11765" fill="#8F8F8F"/>
<rect x="50.442" y="94.1765" width="21.3" height="1.11765" fill="#8F8F8F"/>
<rect x="50.442" y="100.882" width="10.65" height="1.11765" fill="#8F8F8F"/>
<rect x="50.442" y="97.5294" width="21.3" height="1.11765" fill="#8F8F8F"/>
<rect x="50.442" y="90.8235" width="21.3" height="1.11765" fill="#8F8F8F"/>
<rect x="100.142" y="87.4706" width="21.3" height="1.11765" fill="#8F8F8F"/>
<rect x="100.142" y="94.1765" width="21.3" height="1.11765" fill="#8F8F8F"/>
<rect x="100.142" y="100.882" width="10.65" height="1.11765" fill="#8F8F8F"/>
<rect x="100.142" y="97.5294" width="21.3" height="1.11765" fill="#8F8F8F"/>
<rect x="100.142" y="90.8235" width="21.3" height="1.11765" fill="#8F8F8F"/>
<rect x="75.292" y="87.4706" width="21.3" height="1.11765" fill="#8F8F8F"/>
<rect x="75.292" y="94.1765" width="21.3" height="1.11765" fill="#8F8F8F"/>
<rect x="75.292" y="100.882" width="10.65" height="1.11765" fill="#8F8F8F"/>
<rect x="75.292" y="97.5294" width="21.3" height="1.11765" fill="#8F8F8F"/>
<rect x="75.292" y="90.8235" width="21.3" height="1.11765" fill="#8F8F8F"/>
<rect x="157.442" y="88.0392" width="31" height="12.9412" rx="2" fill="#90CAF9"/>
<rect x="157.442" y="82" width="31" height="4.31373" rx="1" fill="#E57373"/>
<rect x="157.442" y="102.706" width="13.4054" height="8.62745" rx="2" fill="#0097A7"/>
<rect x="174.199" y="102.706" width="13.4054" height="8.62745" rx="2" fill="#2196F3"/>
<rect x="157.442" y="114.784" width="13.4054" height="0.862745" fill="#8F8F8F"/>
<rect x="157.442" y="119.961" width="13.4054" height="0.862745" fill="#8F8F8F"/>
<rect x="157.442" y="125.137" width="6.7027" height="0.862745" fill="#8F8F8F"/>
<rect x="157.442" y="122.549" width="13.4054" height="0.862745" fill="#8F8F8F"/>
<rect x="157.442" y="117.373" width="13.4054" height="0.862745" fill="#8F8F8F"/>
<rect x="174.199" y="114.784" width="13.4054" height="0.862745" fill="#8F8F8F"/>
<rect x="174.199" y="119.961" width="13.4054" height="0.862745" fill="#8F8F8F"/>
<rect x="174.199" y="125.137" width="6.7027" height="0.862745" fill="#8F8F8F"/>
<rect x="174.199" y="122.549" width="13.4054" height="0.862745" fill="#8F8F8F"/>
<rect x="174.199" y="117.373" width="13.4054" height="0.862745" fill="#8F8F8F"/>
<rect x="209.442" y="111.245" width="13" height="5.09434" rx="2" fill="#D89150"/>
<rect x="209.442" y="102.075" width="13" height="7.64151" rx="2" fill="#90CAF9"/>
<rect x="209.442" y="98" width="13" height="2.54717" rx="1" fill="#E57373"/>
<rect x="209.442" y="118.377" width="13" height="0.509434" fill="#8F8F8F"/>
<rect x="209.442" y="121.434" width="13" height="0.509434" fill="#8F8F8F"/>
<rect x="209.442" y="124.491" width="6.5" height="0.509434" fill="#8F8F8F"/>
<rect x="209.442" y="122.962" width="13" height="0.509434" fill="#8F8F8F"/>
<rect x="209.442" y="119.906" width="13" height="0.509434" fill="#8F8F8F"/>
</svg>
