<svg width="260" height="175" viewBox="0 0 260 175" fill="none" xmlns="http://www.w3.org/2000/svg">
<rect x="11" y="24.4314" width="89" height="22.3529" rx="2" fill="#CCE5FA"/>
<rect x="11" y="14" width="89" height="7.45098" rx="1" fill="#F3D6D6"/>
<rect x="11" y="51.2549" width="26.7" height="14.902" rx="2" fill="#E3C9B0"/>
<rect x="42.15" y="51.2549" width="26.7" height="14.902" rx="2" fill="#ADDCE1"/>
<rect x="11" y="70.6275" width="26.7" height="1.4902" fill="#DFDFDF"/>
<rect x="11" y="79.5686" width="26.7" height="1.4902" fill="#DFDFDF"/>
<rect x="11" y="88.5098" width="13.35" height="1.4902" fill="#DFDFDF"/>
<rect x="11" y="84.0392" width="26.7" height="1.4902" fill="#DFDFDF"/>
<rect x="11" y="75.098" width="26.7" height="1.4902" fill="#DFDFDF"/>
<rect x="42.15" y="70.6275" width="26.7" height="1.4902" fill="#DFDFDF"/>
<rect x="42.15" y="79.5686" width="26.7" height="1.4902" fill="#DFDFDF"/>
<rect x="42.15" y="88.5098" width="13.35" height="1.4902" fill="#DFDFDF"/>
<rect x="42.15" y="84.0392" width="26.7" height="1.4902" fill="#DFDFDF"/>
<rect x="42.15" y="75.098" width="26.7" height="1.4902" fill="#DFDFDF"/>
<path d="M71.5 39C71.5 37.067 73.067 35.5 75 35.5H185C186.933 35.5 188.5 37.067 188.5 39V105.3H71.5V39Z" fill="#E1F8FF" stroke="#727272"/>
<path d="M189 115.286C189 117.495 187.209 119.286 185 119.286L75 119.286C72.7909 119.286 71 117.495 71 115.286L71 105.8L189 105.8L189 115.286Z" fill="#C6C6C6"/>
<path d="M119.163 119.286H140.837L145.171 136.143H114.829L119.163 119.286Z" fill="#C6C6C6"/>
<path d="M119.163 119.286H140.837L143.064 127.714L117.779 124.764L119.163 119.286Z" fill="#626262"/>
<rect x="105.557" y="136.143" width="48.8857" height="2.52857" fill="#626262"/>
<g clip-path="url(#clip0_1_35)">
<path d="M105.98 69.9993C105.98 79.507 111.506 87.7235 119.518 91.6172L108.06 60.2238C106.727 63.2111 105.98 66.517 105.98 69.9993Z" fill="#464342"/>
<path d="M146.217 68.7872C146.217 65.8186 145.15 63.7628 144.236 62.1626C143.018 60.184 141.877 58.5084 141.877 56.5298C141.877 54.3218 143.552 52.2664 145.911 52.2664C146.017 52.2664 146.118 52.2797 146.222 52.2856C141.948 48.3705 136.255 45.9801 130.001 45.9801C121.609 45.9801 114.226 50.2855 109.931 56.8068C110.495 56.8237 111.026 56.8356 111.477 56.8356C113.989 56.8356 117.879 56.5308 117.879 56.5308C119.173 56.4544 119.326 58.3562 118.033 58.5094C118.033 58.5094 116.731 58.6625 115.283 58.7383L124.031 84.7563L129.287 68.991L125.545 58.7374C124.251 58.6616 123.026 58.5084 123.026 58.5084C121.732 58.4326 121.883 56.4535 123.178 56.5298C123.178 56.5298 127.145 56.8347 129.505 56.8347C132.017 56.8347 135.907 56.5298 135.907 56.5298C137.202 56.4535 137.355 58.3553 136.061 58.5084C136.061 58.5084 134.757 58.6616 133.311 58.7374L141.992 84.5584L144.388 76.5521C145.427 73.2298 146.217 70.8435 146.217 68.7872Z" fill="#464342"/>
<path d="M130.422 72.1004L123.215 93.0423C125.367 93.6749 127.643 94.0209 130.001 94.0209C132.798 94.0209 135.481 93.5373 137.978 92.6593C137.913 92.5564 137.855 92.4472 137.807 92.3284L130.422 72.1004Z" fill="#464342"/>
<path d="M151.078 58.4751C151.181 59.2402 151.24 60.0615 151.24 60.945C151.24 63.3825 150.785 66.1226 149.414 69.5487L142.076 90.762C149.217 86.5978 154.021 78.8612 154.021 69.9998C154.021 65.8236 152.954 61.8966 151.078 58.4751Z" fill="#464342"/>
<path d="M130.001 42C114.562 42 102 54.5604 102 69.9993C102 85.4401 114.562 98 130.001 98C145.44 98 158.003 85.4401 158.003 69.9993C158.003 54.5604 145.44 42 130.001 42ZM130.001 96.7166C115.27 96.7166 103.284 84.7312 103.284 69.9993C103.284 55.2684 115.269 43.2839 130.001 43.2839C144.732 43.2839 156.717 55.2684 156.717 69.9993C156.717 84.7312 144.732 96.7166 130.001 96.7166Z" fill="#464342"/>
</g>
<rect x="213" y="128.849" width="34" height="13.0189" rx="2" fill="#E3C9B0"/>
<rect x="213" y="105.415" width="34" height="19.5283" rx="2" fill="#CCE5FA"/>
<rect x="213" y="95" width="34" height="6.50943" rx="1" fill="#F3D6D6"/>
<rect x="213" y="147.075" width="34" height="1.30189" fill="#8F8F8F"/>
<rect x="213" y="154.887" width="34" height="1.30189" fill="#8F8F8F"/>
<rect x="213" y="162.698" width="17" height="1.30189" fill="#8F8F8F"/>
<rect x="213" y="158.792" width="34" height="1.30189" fill="#8F8F8F"/>
<rect x="213" y="150.981" width="34" height="1.30189" fill="#8F8F8F"/>
<path d="M61.0714 132.438H25.9286C24.3112 132.438 23 133.757 23 135.384V153.055C23 154.681 24.3112 156 25.9286 156H61.0714C62.6888 156 64 154.681 64 153.055V135.384C64 133.757 62.6888 132.438 61.0714 132.438Z" fill="#FFE296"/>
<path d="M42.7401 121.563C43.207 121.278 43.793 121.278 44.2599 121.563L61.764 132.251C62.7425 132.849 62.6918 134.293 61.6738 134.82L44.1697 143.873C43.7494 144.09 43.2506 144.09 42.8303 143.873L25.3262 134.82C24.3083 134.293 24.2576 132.849 25.2359 132.251L42.7401 121.563Z" fill="#FFF5D0"/>
<path fill-rule="evenodd" clip-rule="evenodd" d="M59.1878 136.105L44.1697 143.873C43.7494 144.09 43.2506 144.09 42.8303 143.873L26.6588 135.509L26.5857 134.91C26.5462 134.587 26.7746 134.293 27.0956 134.253L57.9071 130.448C58.2281 130.409 58.5204 130.638 58.5599 130.961L59.1878 136.105Z" fill="#ECC8C8"/>
<path d="M43.7004 151.877C42.3682 151.877 41.1821 151.691 40.1423 151.321C39.1024 150.955 38.2233 150.416 37.505 149.706C36.7867 148.999 36.2396 148.135 35.8638 147.113C35.4879 146.091 35.3 144.929 35.3 143.627C35.3 142.341 35.4879 141.174 35.8638 140.127C36.2438 139.08 36.7971 138.182 37.5238 137.433C38.2505 136.679 39.1379 136.1 40.1861 135.696C41.2385 135.291 42.4371 135.089 43.7818 135.089C45.0263 135.089 46.1371 135.274 47.1144 135.645C48.0958 136.015 48.9269 136.543 49.6076 137.228C50.2924 137.909 50.8124 138.72 51.1674 139.661C51.5265 140.598 51.704 141.634 51.6998 142.771C51.704 143.554 51.6372 144.274 51.4994 144.929C51.3615 145.585 51.1444 146.157 50.8479 146.647C50.5555 147.132 50.1713 147.518 49.6952 147.803C49.2192 148.084 48.6429 148.243 47.9663 148.282C47.4819 148.32 47.0893 148.284 46.7886 148.173C46.488 148.062 46.2583 147.899 46.0996 147.681C45.9451 147.46 45.8448 147.202 45.7989 146.909H45.7237C45.6235 147.164 45.4272 147.396 45.1349 147.605C44.8425 147.809 44.4855 147.969 44.0637 148.084C43.6461 148.194 43.2013 148.235 42.7294 148.205C42.2366 148.175 41.7689 148.058 41.3262 147.854C40.8877 147.649 40.4973 147.353 40.1548 146.966C39.8165 146.579 39.5492 146.1 39.353 145.53C39.1609 144.959 39.0627 144.299 39.0586 143.55C39.0627 142.809 39.165 142.164 39.3655 141.615C39.5701 141.066 39.8395 140.604 40.1736 140.229C40.5119 139.855 40.8877 139.561 41.3011 139.348C41.7146 139.135 42.1301 138.999 42.5477 138.94C43.0197 138.867 43.4665 138.867 43.8883 138.94C44.3101 139.012 44.6651 139.129 44.9532 139.291C45.2455 139.453 45.4272 139.627 45.4982 139.814H45.5859V139.099H47.5466V145.332C47.5508 145.625 47.6155 145.853 47.7408 146.015C47.8661 146.177 48.0352 146.258 48.2482 146.258C48.5364 146.258 48.7765 146.128 48.9686 145.868C49.1649 145.608 49.311 145.21 49.4071 144.674C49.5073 144.137 49.5574 143.454 49.5574 142.624C49.5574 141.824 49.453 141.121 49.2442 140.517C49.0396 139.908 48.7515 139.391 48.3798 138.965C48.0123 138.535 47.5842 138.186 47.0956 137.918C46.607 137.65 46.0766 137.454 45.5045 137.33C44.9365 137.207 44.3518 137.145 43.7505 137.145C42.7106 137.145 41.8023 137.307 41.0255 137.63C40.2488 137.95 39.6015 138.399 39.0836 138.978C38.5658 139.557 38.1774 140.236 37.9185 141.015C37.6637 141.79 37.5342 142.635 37.5301 143.55C37.5342 144.559 37.6721 145.453 37.9435 146.232C38.2191 147.007 38.6242 147.658 39.1588 148.186C39.6933 148.714 40.3532 149.114 41.1383 149.386C41.9234 149.659 42.8255 149.795 43.8444 149.795C44.3247 149.795 44.7945 149.759 45.2539 149.686C45.7133 149.618 46.1288 149.533 46.5005 149.431C46.8722 149.333 47.1708 149.237 47.3963 149.144L48.0164 150.996C47.7533 151.149 47.3963 151.292 46.9453 151.423C46.4984 151.56 45.9931 151.668 45.4293 151.749C44.8697 151.834 44.2934 151.877 43.7004 151.877ZM43.4122 146.104C43.9217 146.104 44.3268 146.004 44.6275 145.804C44.9323 145.604 45.1495 145.308 45.279 144.916C45.4126 144.52 45.4752 144.033 45.4669 143.454C45.4627 142.943 45.398 142.511 45.2727 142.158C45.1516 141.8 44.9407 141.53 44.64 141.347C44.3435 141.16 43.9301 141.066 43.3997 141.066C42.9361 141.066 42.5415 141.166 42.2157 141.366C41.8942 141.566 41.6478 141.847 41.4766 142.209C41.3095 142.567 41.2239 142.988 41.2197 143.473C41.2239 143.925 41.2949 144.352 41.4327 144.757C41.5705 145.157 41.7981 145.483 42.1155 145.734C42.4329 145.981 42.8651 146.104 43.4122 146.104Z" fill="white"/>
<g clip-path="url(#clip1_1_35)">
<path d="M243.393 28.5543C246.969 24.979 246.969 19.1822 243.393 15.6067C239.818 12.0312 234.021 12.0313 230.446 15.6067L222.478 23.5745L235.425 36.5221L243.393 28.5543Z" fill="#FEF8DB"/>
<path d="M243.393 28.5544C246.969 24.979 246.969 19.1822 243.393 15.6067L228.952 30.0483L235.425 36.5221L243.393 28.5544Z" fill="#FFF3B7"/>
<path d="M244.887 16.2256C246.054 16.2256 247 15.2796 247 14.1128C247 12.9459 246.054 12 244.887 12C243.72 12 242.774 12.9459 242.774 14.1128C242.774 15.2796 243.72 16.2256 244.887 16.2256Z" fill="#FFF3B7"/>
<path d="M232.936 40.008C231.56 41.3832 229.331 41.3831 227.956 40.008C226.58 38.6328 226.58 36.4032 227.956 35.0281" fill="#ECB45C"/>
<path d="M217 24.0724C218.925 22.1472 222.047 22.1473 223.972 24.0724L234.928 35.0282C236.853 36.9533 236.853 40.0747 234.928 41.9999L217 24.0724Z" fill="#FFF3B7"/>
<path d="M234.927 35.0283L229.45 29.5503L225.964 33.0362L234.927 42C236.853 40.0748 236.853 36.9534 234.927 35.0283Z" fill="#FBE88C"/>
<path d="M246.381 12.6188L243.393 15.6067C244.218 16.4319 245.556 16.4319 246.381 15.6067C247.206 14.7817 247.206 13.4439 246.381 12.6188Z" fill="#FBE88C"/>
</g>
<defs>
<clipPath id="clip0_1_35">
<rect width="56" height="56" fill="white" transform="translate(102 42)"/>
</clipPath>
<clipPath id="clip1_1_35">
<rect width="30" height="30" fill="white" transform="translate(217 12)"/>
</clipPath>
</defs>
</svg>
